<?xml version="1.0" encoding="UTF-8" standalone="no"?>
<svg xmlns="http://www.w3.org/2000/svg" width="39.06413650512695mm" height="77.63246154785156mm" viewBox="0 0 39.06413650512695 77.63246154785156">
<desc>Created with Glowforge for Fusion 360. To download visit: https://cam.autodesk.com/hsmposts?p=glowforge</desc>
<!-- CAM Setup Info:
Work Area Width: 39.06413650512695mm
Work Area Height: 77.63246154785156mm
Work Area Too Small?: false
Stock box Upper Right: 17.532068252563477,36.81623077392578
Stock box Lower Left: -17.532068252563477,-36.81623077392578
Origin: 0,0
Selected Colors: #0000d3, #02abea, #1fb714, #dd0907, #f20884, #fbf305
-->
<g id="global-translation-frame" transform="translate(19.532, 38.816) scale(1, -1)">
<g id="opperation-1">
    <title>Reflectors (Op: 1/2)</title>
    <path d="M 5.97 12.476
             L 6.345 12.851
             L 5.97 13.225
             L 6.345 13.601
             L 5.97 13.975
             L 6.345 14.351
             L 5.97 14.725
             L 6.345 15.1
             L 5.97 15.475
             L 6.345 15.85
             L 5.97 16.225
             L 6.345 16.6
             L 5.97 16.975
             M 4.97 12.476
             L 5.345 12.851
             L 4.97 13.225
             L 5.345 13.601
             L 4.97 13.975
             L 5.345 14.351
             L 4.97 14.725
             L 5.345 15.1
             L 4.97 15.475
             L 5.345 15.85
             L 4.97 16.225
             L 5.345 16.6
             L 4.97 16.975
             M 4.97 30.476
             L 5.345 30.851
             L 4.97 31.225
             L 5.345 31.601
             L 4.97 31.975
             L 5.345 32.35
             L 4.97 32.725
             L 5.345 33.1
             L 4.97 33.475
             L 5.345 33.85
             L 4.97 34.225
             L 5.345 34.6
             L 4.97 34.975
             M 5.97 30.476
             L 6.345 30.851
             L 5.97 31.225
             L 6.345 31.601
             L 5.97 31.975
             L 6.345 32.35
             L 5.97 32.725
             L 6.345 33.1
             L 5.97 33.475
             L 6.345 33.85
             L 5.97 34.225
             L 6.345 34.6
             L 5.97 34.975" fill="none" stroke="#0000d3" stroke-width="0.1"/>
</g>
<g id="opperation-2">
    <title>Perimeter (Op: 2/2)</title>
    <path d="M 8.036 1.495
             L 8.036 0.816
             A 0.614 0.614 0 0 0 7.856 0.382
             L 6.735 -0.739
             A 0.614 0.614 0 0 0 6.3 -0.919
             L 2.507 -0.919
             A 0.386 0.386 0 0 1 2.122 -1.305
             A 0.614 0.614 0 0 0 1.507 -1.919
             L -1.404 -1.919
             A 0.614 0.614 0 0 0 -2.019 -1.305
             A 0.386 0.386 0 0 1 -2.404 -0.919
             L -6.197 -0.919
             A 0.614 0.614 0 0 0 -6.632 -0.739
             L -7.753 0.382
             A 0.614 0.614 0 0 0 -7.933 0.816
             L -7.933 1.495
             A 0.314 0.314 0 0 0 -7.619 1.809
             L -7.183 1.809
             L -7.182 5.195
             L -7.182 18.663
             A 13.114 13.114 0 0 0 -3.341 27.936
             L 4.503 35.78
             A 0.514 0.514 0 0 0 4.866 35.931
             L 7.005 35.931
             A 0.514 0.514 0 0 0 7.368 35.78
             L 7.664 35.484
             A 0.514 0.514 0 0 0 7.815 35.12
             L 7.815 30.452
             A 0.514 0.514 0 0 0 7.664 30.088
             L 7.368 29.792
             A 0.514 0.514 0 0 0 7.005 29.641
             A 9.886 9.886 0 0 1 0.035 26.746
             L -1.058 25.653
             A 9.886 9.886 0 0 1 -3.953 18.663
             L -3.953 5.495
             A 0.186 0.186 0 0 1 -3.768 5.309
             L -1.343 5.309
             A 0.414 0.414 0 0 0 -0.929 4.902
             L -0.874 1.809
             L 0.979 1.809
             L 1.078 4.908
             A 0.414 0.414 0 0 0 1.492 5.309
             L 3.87 5.309
             A 0.186 0.186 0 0 1 4.002 5.364
             A 0.186 0.186 0 0 1 4.056 5.495
             L 4.056 17.06
             A 0.514 0.514 0 0 0 4.207 17.423
             L 4.503 17.719
             A 0.514 0.514 0 0 0 4.866 17.87
             L 7.005 17.87
             A 0.514 0.514 0 0 0 7.368 17.719
             L 7.664 17.423
             A 0.514 0.514 0 0 0 7.815 17.06
             L 7.815 12.391
             A 0.514 0.514 0 0 0 7.664 12.027
             L 7.368 11.731
             A 0.286 0.286 0 0 1 7.285 11.529
             L 7.285 5.195
             L 7.286 1.809
             L 7.721 1.809
             A 0.314 0.314 0 0 0 8.036 1.495" fill="none" stroke="#02abea" stroke-width="0.1"/>
</g>
</g>
</svg>
