<?xml version="1.0" encoding="UTF-8" standalone="no"?>
<svg xmlns="http://www.w3.org/2000/svg" width="38.664833068847656mm" height="77.63246154785156mm" viewBox="0 0 38.664833068847656 77.63246154785156">
<desc>Created with Glowforge for Fusion 360. To download visit: https://cam.autodesk.com/hsmposts?p=glowforge</desc>
<!-- CAM Setup Info:
Work Area Width: 38.664833068847656mm
Work Area Height: 77.63246154785156mm
Work Area Too Small?: false
Stock box Upper Right: 17.332416534423828,36.81623077392578
Stock box Lower Left: -17.332416534423828,-36.81623077392578
Origin: 0,0
Selected Colors: #0000d3, #02abea, #1fb714, #dd0907, #f20884, #fbf305
-->
<g id="global-translation-frame" transform="translate(19.332, 38.816) scale(1, -1)">
<g id="opperation-1">
    <title>Reflectors (Op: 1/2)</title>
    <path d="M 5.447 31.118
             A 0.114 0.114 0 0 0 5.417 31.008
             L 5.33 30.921
             L 6.542 30.921
             L 6.454 31.008
             A 0.114 0.114 0 0 0 6.421 31.089
             A 0.114 0.114 0 0 0 6.454 31.17
             L 6.656 31.372
             L 6.454 31.574
             A 0.114 0.114 0 0 0 6.421 31.655
             A 0.114 0.114 0 0 0 6.454 31.735
             L 6.657 31.937
             L 6.455 32.139
             A 0.114 0.114 0 0 0 6.455 32.301
             L 6.657 32.503
             L 6.455 32.705
             A 0.114 0.114 0 0 0 6.421 32.786
             A 0.114 0.114 0 0 0 6.455 32.867
             L 6.657 33.069
             L 6.455 33.271
             A 0.114 0.114 0 0 0 6.455 33.432
             L 6.657 33.635
             L 6.454 33.836
             A 0.114 0.114 0 0 0 6.421 33.917
             A 0.114 0.114 0 0 0 6.454 33.998
             L 6.656 34.2
             L 6.454 34.402
             A 0.114 0.114 0 0 0 6.421 34.483
             A 0.114 0.114 0 0 0 6.454 34.564
             L 6.542 34.651
             L 5.33 34.651
             L 5.417 34.564
             A 0.114 0.114 0 0 0 5.451 34.483
             A 0.114 0.114 0 0 0 5.417 34.402
             L 5.215 34.2
             L 5.417 33.998
             A 0.114 0.114 0 0 0 5.451 33.917
             A 0.114 0.114 0 0 0 5.417 33.836
             L 5.215 33.635
             L 5.417 33.432
             A 0.114 0.114 0 0 0 5.416 33.271
             L 5.214 33.069
             L 5.416 32.867
             A 0.114 0.114 0 0 0 5.45 32.786
             A 0.114 0.114 0 0 0 5.416 32.705
             L 5.214 32.503
             L 5.416 32.301
             A 0.114 0.114 0 0 0 5.417 32.139
             L 5.215 31.937
             L 5.417 31.735
             A 0.114 0.114 0 0 0 5.451 31.655
             A 0.114 0.114 0 0 0 5.417 31.574
             L 5.215 31.372
             L 5.417 31.17
             A 0.114 0.114 0 0 0 5.447 31.118
             M 5.675 16.59
             L 5.33 16.59
             L 5.417 16.503
             A 0.114 0.114 0 0 0 5.451 16.422
             A 0.114 0.114 0 0 0 5.417 16.341
             L 5.215 16.139
             L 5.417 15.937
             A 0.114 0.114 0 0 0 5.451 15.857
             A 0.114 0.114 0 0 0 5.417 15.776
             L 5.215 15.574
             L 5.417 15.372
             A 0.114 0.114 0 0 0 5.416 15.21
             L 5.214 15.008
             L 5.416 14.806
             A 0.114 0.114 0 0 0 5.416 14.644
             L 5.214 14.442
             L 5.416 14.24
             A 0.114 0.114 0 0 0 5.417 14.079
             L 5.215 13.877
             L 5.417 13.675
             A 0.114 0.114 0 0 0 5.451 13.594
             A 0.114 0.114 0 0 0 5.417 13.513
             L 5.215 13.311
             L 5.417 13.109
             A 0.114 0.114 0 0 0 5.451 13.028
             A 0.114 0.114 0 0 0 5.417 12.947
             L 5.33 12.86
             L 6.542 12.86
             L 6.454 12.947
             A 0.114 0.114 0 0 0 6.421 13.028
             A 0.114 0.114 0 0 0 6.454 13.109
             L 6.656 13.311
             L 6.454 13.513
             A 0.114 0.114 0 0 0 6.421 13.594
             A 0.114 0.114 0 0 0 6.454 13.675
             L 6.657 13.877
             L 6.455 14.079
             A 0.114 0.114 0 0 0 6.455 14.24
             L 6.657 14.442
             L 6.455 14.644
             A 0.114 0.114 0 0 0 6.455 14.806
             L 6.657 15.008
             L 6.455 15.21
             A 0.114 0.114 0 0 0 6.455 15.372
             L 6.657 15.574
             L 6.454 15.776
             A 0.114 0.114 0 0 0 6.421 15.857
             A 0.114 0.114 0 0 0 6.454 15.937
             L 6.656 16.139
             L 6.454 16.341
             A 0.114 0.114 0 0 0 6.421 16.422
             A 0.114 0.114 0 0 0 6.454 16.503
             L 6.542 16.59
             L 5.675 16.59" fill="none" stroke="#0000d3" stroke-width="0.1"/>
</g>
<g id="opperation-2">
    <title>Perimeter (Op: 2/2)</title>
    <path d="M 8.036 1.495
             L 8.036 0.816
             A 0.614 0.614 0 0 0 7.856 0.382
             L 6.735 -0.739
             A 0.614 0.614 0 0 0 6.3 -0.919
             L 2.507 -0.919
             A 0.386 0.386 0 0 1 2.122 -1.305
             A 0.614 0.614 0 0 0 1.507 -1.919
             L -1.404 -1.919
             A 0.614 0.614 0 0 0 -2.019 -1.305
             A 0.386 0.386 0 0 1 -2.404 -0.919
             L -6.197 -0.919
             A 0.614 0.614 0 0 0 -6.632 -0.739
             L -7.753 0.382
             A 0.614 0.614 0 0 0 -7.933 0.816
             L -7.933 1.495
             A 0.314 0.314 0 0 0 -7.619 1.809
             L -7.183 1.809
             L -7.182 5.195
             L -7.182 18.663
             A 13.114 13.114 0 0 0 -3.341 27.936
             L 2.514 33.791
             L 4.503 35.78
             A 0.514 0.514 0 0 0 4.866 35.931
             L 7.005 35.931
             A 0.514 0.514 0 0 0 7.368 35.78
             L 7.664 35.484
             A 0.514 0.514 0 0 0 7.815 35.12
             L 7.815 30.452
             A 0.514 0.514 0 0 0 7.664 30.088
             L 7.368 29.792
             A 0.514 0.514 0 0 0 7.005 29.641
             A 9.886 9.886 0 0 1 0.035 26.746
             L -1.058 25.653
             A 9.886 9.886 0 0 1 -3.953 18.663
             L -3.953 5.495
             A 0.186 0.186 0 0 1 -3.768 5.309
             L -1.343 5.309
             A 0.414 0.414 0 0 0 -0.929 4.902
             L -0.874 1.809
             L 0.979 1.809
             L 1.078 4.908
             A 0.414 0.414 0 0 0 1.492 5.309
             L 3.87 5.309
             A 0.186 0.186 0 0 1 4.002 5.364
             A 0.186 0.186 0 0 1 4.056 5.495
             L 4.056 17.06
             A 0.514 0.514 0 0 0 4.207 17.423
             L 4.503 17.719
             A 0.514 0.514 0 0 0 4.866 17.87
             L 7.005 17.87
             A 0.514 0.514 0 0 0 7.368 17.719
             L 7.664 17.423
             A 0.514 0.514 0 0 0 7.815 17.06
             L 7.815 12.391
             A 0.514 0.514 0 0 0 7.664 12.027
             L 7.368 11.731
             A 0.286 0.286 0 0 1 7.285 11.529
             L 7.285 5.195
             L 7.286 1.809
             L 7.721 1.809
             A 0.314 0.314 0 0 0 8.036 1.495" fill="none" stroke="#02abea" stroke-width="0.1"/>
</g>
</g>
</svg>
