<?xml version="1.0" encoding="UTF-8" standalone="no"?>
<svg xmlns="http://www.w3.org/2000/svg" width="77.78245544433594mm" height="38.664833068847656mm" viewBox="0 0 77.78245544433594 38.664833068847656">
<desc>Created with Glowforge for Fusion 360. To download visit: https://cam.autodesk.com/hsmposts?p=glowforge</desc>
<!-- CAM Setup Info:
Work Area Width: 77.78245544433594mm
Work Area Height: 38.664833068847656mm
Work Area Too Small?: false
Stock box Upper Right: 36.89122772216797,17.332416534423828
Stock box Lower Left: -36.89122772216797,-17.332416534423828
Origin: 0,0
Selected Colors: #0000d3, #02abea, #1fb714, #dd0907, #f20884, #fbf305
-->
<g id="global-translation-frame" transform="translate(38.891, 19.332) scale(1, -1)">
<g id="opperation-1">
    <title>Reflectors (Op: 1/2)</title>
    <path d="M 16.453 -6.416
             A 0.127 0.127 0 0 0 16.587 -6.445
             L 16.653 -6.511
             L 16.653 -5.36
             L 16.587 -5.426
             A 0.127 0.127 0 0 0 16.497 -5.463
             A 0.127 0.127 0 0 0 16.407 -5.426
             L 16.214 -5.233
             L 16.021 -5.426
             A 0.127 0.127 0 0 0 15.932 -5.463
             A 0.127 0.127 0 0 0 15.842 -5.426
             L 15.649 -5.233
             L 15.456 -5.426
             A 0.127 0.127 0 0 0 15.276 -5.425
             L 15.083 -5.232
             L 14.89 -5.425
             A 0.127 0.127 0 0 0 14.71 -5.425
             L 14.517 -5.232
             L 14.324 -5.425
             A 0.127 0.127 0 0 0 14.145 -5.426
             L 13.952 -5.233
             L 13.759 -5.426
             A 0.127 0.127 0 0 0 13.669 -5.463
             A 0.127 0.127 0 0 0 13.579 -5.426
             L 13.386 -5.233
             L 13.193 -5.426
             A 0.127 0.127 0 0 0 13.103 -5.463
             A 0.127 0.127 0 0 0 13.013 -5.426
             L 12.948 -5.36
             L 12.948 -6.511
             L 13.013 -6.445
             A 0.127 0.127 0 0 0 13.103 -6.408
             A 0.127 0.127 0 0 0 13.193 -6.445
             L 13.386 -6.638
             L 13.579 -6.445
             A 0.127 0.127 0 0 0 13.669 -6.408
             A 0.127 0.127 0 0 0 13.759 -6.445
             L 13.952 -6.639
             L 14.145 -6.446
             A 0.127 0.127 0 0 0 14.324 -6.446
             L 14.517 -6.639
             L 14.71 -6.446
             A 0.127 0.127 0 0 0 14.89 -6.446
             L 15.083 -6.639
             L 15.276 -6.446
             A 0.127 0.127 0 0 0 15.456 -6.446
             L 15.649 -6.639
             L 15.842 -6.445
             A 0.127 0.127 0 0 0 15.932 -6.408
             A 0.127 0.127 0 0 0 16.021 -6.445
             L 16.214 -6.638
             L 16.407 -6.445
             A 0.127 0.127 0 0 0 16.453 -6.416
             M 31.008 -6.162
             L 31.008 -6.511
             L 31.074 -6.445
             A 0.127 0.127 0 0 0 31.164 -6.408
             A 0.127 0.127 0 0 0 31.254 -6.445
             L 31.447 -6.638
             L 31.64 -6.445
             A 0.127 0.127 0 0 0 31.73 -6.408
             A 0.127 0.127 0 0 0 31.819 -6.445
             L 32.012 -6.639
             L 32.206 -6.446
             A 0.127 0.127 0 0 0 32.385 -6.446
             L 32.578 -6.639
             L 32.771 -6.446
             A 0.127 0.127 0 0 0 32.861 -6.409
             A 0.127 0.127 0 0 0 32.951 -6.446
             L 33.144 -6.639
             L 33.337 -6.446
             A 0.127 0.127 0 0 0 33.516 -6.446
             L 33.71 -6.639
             L 33.902 -6.445
             A 0.127 0.127 0 0 0 33.992 -6.408
             A 0.127 0.127 0 0 0 34.082 -6.445
             L 34.275 -6.638
             L 34.468 -6.445
             A 0.127 0.127 0 0 0 34.558 -6.408
             A 0.127 0.127 0 0 0 34.648 -6.445
             L 34.713 -6.511
             L 34.713 -5.36
             L 34.648 -5.426
             A 0.127 0.127 0 0 0 34.558 -5.463
             A 0.127 0.127 0 0 0 34.468 -5.426
             L 34.275 -5.233
             L 34.082 -5.426
             A 0.127 0.127 0 0 0 33.992 -5.463
             A 0.127 0.127 0 0 0 33.902 -5.426
             L 33.71 -5.233
             L 33.516 -5.426
             A 0.127 0.127 0 0 0 33.337 -5.425
             L 33.144 -5.232
             L 32.951 -5.425
             A 0.127 0.127 0 0 0 32.861 -5.463
             A 0.127 0.127 0 0 0 32.771 -5.425
             L 32.578 -5.232
             L 32.385 -5.425
             A 0.127 0.127 0 0 0 32.206 -5.426
             L 32.012 -5.233
             L 31.819 -5.426
             A 0.127 0.127 0 0 0 31.73 -5.463
             A 0.127 0.127 0 0 0 31.64 -5.426
             L 31.447 -5.233
             L 31.254 -5.426
             A 0.127 0.127 0 0 0 31.164 -5.463
             A 0.127 0.127 0 0 0 31.074 -5.426
             L 31.008 -5.36
             L 31.008 -6.162" fill="none" stroke="#0000d3" stroke-width="0.1"/>
</g>
<g id="opperation-2">
    <title>Perimeter (Op: 2/2)</title>
    <path d="M 28.02 3.35
             L 33.875 -2.505
             L 35.864 -4.494
             A 0.527 0.527 0 0 0 36.018 -4.866
             L 36.018 -7.005
             A 0.527 0.527 0 0 0 35.864 -7.377
             L 35.568 -7.673
             A 0.527 0.527 0 0 0 35.195 -7.828
             L 30.527 -7.828
             A 0.527 0.527 0 0 0 30.154 -7.673
             L 29.858 -7.377
             A 0.527 0.527 0 0 0 29.704 -7.005
             A 9.873 9.873 0 0 1 26.812 -0.044
             L 25.719 1.049
             A 9.873 9.873 0 0 1 18.738 3.941
             L 5.57 3.941
             A 0.173 0.173 0 0 1 5.397 3.768
             L 5.397 1.348
             A 0.427 0.427 0 0 0 4.97 0.921
             L 1.897 0.921
             L 1.897 -1.025
             L 4.976 -1.07
             A 0.427 0.427 0 0 0 5.397 -1.497
             L 5.397 -3.87
             A 0.173 0.173 0 0 1 5.57 -4.043
             L 17.135 -4.043
             A 0.527 0.527 0 0 0 17.507 -4.198
             L 17.803 -4.494
             A 0.527 0.527 0 0 0 17.958 -4.866
             L 17.958 -7.005
             A 0.527 0.527 0 0 0 17.803 -7.377
             L 17.507 -7.673
             A 0.527 0.527 0 0 0 17.135 -7.828
             L 12.466 -7.828
             A 0.527 0.527 0 0 0 12.093 -7.673
             L 11.797 -7.377
             A 0.273 0.273 0 0 1 11.604 -7.297
             L 5.27 -7.297
             L 1.897 -7.298
             L 1.897 -7.721
             A 0.327 0.327 0 0 0 1.57 -8.048
             L 0.891 -8.048
             A 0.627 0.627 0 0 0 0.448 -7.865
             L -0.673 -6.744
             A 0.627 0.627 0 0 0 -0.857 -6.3
             L -0.857 -2.507
             A 0.373 0.373 0 0 1 -1.23 -2.134
             A 0.627 0.627 0 0 0 -1.857 -1.507
             L -1.857 1.404
             A 0.627 0.627 0 0 0 -1.23 2.031
             A 0.373 0.373 0 0 1 -0.857 2.404
             L -0.857 6.197
             A 0.627 0.627 0 0 0 -0.673 6.641
             L 0.448 7.762
             A 0.627 0.627 0 0 0 0.891 7.946
             L 1.57 7.946
             A 0.327 0.327 0 0 0 1.897 7.619
             L 1.897 7.195
             L 5.27 7.195
             L 18.738 7.195
             A 13.127 13.127 0 0 0 28.02 3.35" fill="none" stroke="#02abea" stroke-width="0.1"/>
</g>
</g>
</svg>
