<?xml version="1.0" encoding="UTF-8" standalone="no"?>
<svg xmlns="http://www.w3.org/2000/svg" width="155.6297149658203mm" height="127.81452178955078mm" viewBox="0 0 155.6297149658203 127.81452178955078">
<desc>Created with Glowforge for Fusion 360. To download visit: https://cam.autodesk.com/hsmposts?p=glowforge</desc>
<!-- CAM Setup Info:
Work Area Width: 155.6297149658203mm
Work Area Height: 127.81452178955078mm
Work Area Too Small?: false
Stock box Upper Right: 75.81485748291016,61.90726089477539
Stock box Lower Left: -75.81485748291016,-61.90726089477539
Origin: 0,0
Selected Colors: #0000d3, #02abea, #1fb714, #dd0907, #f20884, #fbf305
-->
<g id="global-translation-frame" transform="translate(77.815, 63.907) scale(1, -1)">
<g id="opperation-1">
    <title>Engraving (Op: 1/3)</title>
    <path d="M -27.704 56.773
             L -29.429 56.772
             L -29.428 54.265
             L -30.251 54.264
             L -30.253 59.154
             L -27.045 59.155
             L -27.044 58.838
             L -29.43 58.837
             L -29.429 57.089
             L -27.704 57.09
             L -27.704 56.773
             M -26.465 57.411
             A 2.662 2.662 0 0 0 -24.237 59.243
             L -24.237 58.991
             A 2.088 2.088 0 0 1 -25.594 56.737
             A 2.326 2.326 0 0 1 -24.613 54.569
             A 1.717 1.717 0 0 1 -22.335 55.409
             A 1.717 1.717 0 0 1 -22.193 56.357
             L -21.19 56.363
             A 2.708 2.708 0 0 0 -24.332 54.173
             A 2.708 2.708 0 0 0 -26.108 55.334
             A 2.708 2.708 0 0 0 -26.501 57.419
             M -22.836 58.666
             L -23.121 58.858
             L -23.487 58.989
             L -23.487 59.243
             A 2.622 2.622 0 0 0 -21.186 57.114
             L -22.146 57.113
             A 2.06 2.06 0 0 1 -22.836 58.666
             M -16.846 58.804
             L -16.543 59.159
             L -16.108 59.159
             L -17.943 57.012
             L -15.859 54.27
             L -16.844 54.269
             L -18.459 56.411
             L -20.287 54.268
             L -20.719 54.268
             L -18.659 56.68
             L -20.54 59.157
             L -19.563 59.158
             L -18.143 57.281
             L -16.846 58.804
             M -14.364 59.16
             L -14.362 54.27
             L -15.184 54.27
             L -15.186 59.159
             L -14.364 59.16
             M -12.21 58.683
             L -12.21 57.096
             L -10.484 57.096
             L -10.484 56.779
             L -12.21 56.778
             L -12.209 54.588
             L -9.631 54.589
             L -9.631 54.272
             L -13.031 54.271
             L -13.033 59.16
             L -9.633 59.161
             L -9.633 58.844
             L -12.21 58.843
             L -12.21 58.683
             M -3.306 58.661
             A 1.927 1.927 0 0 1 -5.923 57.898
             A 1.927 1.927 0 0 1 -6.142 56.704
             A 1.884 1.884 0 0 1 -4.571 54.552
             A 1.884 1.884 0 0 1 -2.566 55.632
             L -2.235 55.418
             A 2.635 2.635 0 0 0 -5.846 54.5
             A 2.635 2.635 0 0 0 -6.829 57.996
             A 2.734 2.734 0 0 0 -3.059 58.855
             A 2.734 2.734 0 0 0 -2.22 58.028
             L -2.593 57.781
             L -2.886 58.255
             L -3.279 58.647
             L -3.306 58.661
             M -1.093 58.275
             L -1.093 59.165
             L -0.271 59.165
             L -0.269 54.593
             L 2.194 54.593
             L 2.194 54.276
             L -1.091 54.275
             L -1.093 58.275
             M 4.627 58.851
             A 2.18 2.18 0 0 1 3.69 56.75
             A 2.35 2.35 0 0 1 4.643 54.565
             A 1.741 1.741 0 0 1 6.941 55.448
             A 1.741 1.741 0 0 1 7.078 56.369
             L 8.076 56.374
             A 2.708 2.708 0 0 0 4.935 54.184
             A 2.708 2.708 0 0 0 3.159 55.345
             A 2.708 2.708 0 0 0 2.765 57.43
             A 2.772 2.772 0 0 0 5.029 59.254
             L 5.029 59.001
             L 4.652 58.868
             L 4.627 58.851
             M 6.881 58.069
             A 1.587 1.587 0 0 1 5.779 59.001
             L 5.779 59.254
             A 2.622 2.622 0 0 0 8.08 57.125
             L 7.121 57.124
             L 7.023 57.674
             L 6.891 58.051
             L 6.881 58.069
             M 13.926 58.023
             L 13.568 57.787
             L 13.519 57.897
             L 13.462 58.003
             L 13.399 58.106
             L 13.329 58.204
             L 13.252 58.297
             L 13.17 58.385
             L 13.082 58.467
             L 12.989 58.543
             L 12.891 58.613
             L 12.788 58.677
             L 12.682 58.733
             L 12.572 58.782
             L 12.459 58.824
             L 12.344 58.859
             L 12.226 58.885
             L 12.107 58.904
             L 11.987 58.915
             L 11.867 58.918
             L 11.747 58.913
             L 11.627 58.9
             L 11.508 58.88
             L 11.391 58.851
             L 11.276 58.815
             L 11.164 58.771
             L 11.055 58.72
             L 10.95 58.662
             L 10.848 58.597
             L 10.751 58.526
             L 10.659 58.448
             L 10.573 58.364
             L 10.492 58.275
             L 10.417 58.181
             L 10.348 58.081
             L 10.287 57.978
             L 10.232 57.871
             L 10.184 57.76
             L 10.144 57.647
             L 10.111 57.531
             L 10.087 57.413
             L 10.07 57.294
             L 10.06 57.174
             A 2.05 2.05 0 0 1 11.404 54.605
             A 2.05 2.05 0 0 1 12.262 54.526
             A 2.172 2.172 0 0 1 13.579 55.645
             L 13.927 55.424
             A 2.635 2.635 0 0 0 10.315 54.506
             A 2.635 2.635 0 0 0 9.333 58.002
             A 2.734 2.734 0 0 0 13.103 58.861
             A 2.734 2.734 0 0 0 13.942 58.034
             M 16.656 57.647
             L 18.464 59.172
             L 18.999 59.172
             L 16.559 57.113
             L 19.657 54.283
             L 18.61 54.282
             L 15.892 56.763
             L 15.893 54.281
             L 15.07 54.281
             L 15.068 59.171
             L 15.891 59.171
             L 15.892 57.003
             L 16.656 57.647
             M 34.266 55.636
             L 36.462 54.787
             L 36.984 53.777
             L 37.473 53.777
             L 37.994 54.787
             L 40.191 55.636
             L 40.286 55.589
             L 40.237 55.449
             L 38.34 54.541
             L 37.674 53.492
             L 36.782 53.492
             L 36.116 54.541
             L 34.219 55.449
             L 34.17 55.589
             L 34.266 55.636
             M 35.377 56.482
             L 35.46 56.551
             L 36.758 55.85
             L 36.811 55.751
             L 36.717 55.683
             L 35.351 56.241
             L 35.377 56.482
             M 35.662 57.072
             L 34.432 58.351
             L 34.788 58.521
             L 34.463 59.278
             L 34.595 59.351
             L 36.158 57.869
             L 35.662 57.072
             M 38.794 57.072
             L 38.299 57.869
             L 39.862 59.351
             L 39.994 59.278
             L 39.669 58.521
             L 40.024 58.351
             L 38.794 57.072
             M 38.996 56.551
             L 39.08 56.482
             L 39.105 56.241
             L 37.739 55.683
             L 37.646 55.751
             L 37.699 55.85
             L 38.996 56.551" fill="#0000d3" stroke="none"/>
</g>
<g id="opperation-2">
    <title>Holes (Op: 2/3)</title>
    <path d="M -69.575 52.325
             L -57.771 52.325
             L -57.771 53.889
             L -69.735 53.889
             L -69.735 52.325
             L -69.575 52.325
             M -57.931 40.12
             L -69.735 40.12
             L -69.735 38.556
             L -57.771 38.556
             L -57.771 40.12
             L -57.931 40.12
             M -32.85 42.916
             A 1.42 1.42 0 0 1 -31.43 44.336
             A 1.42 1.42 0 0 1 -32.85 45.756
             A 1.42 1.42 0 0 1 -34.27 44.336
             A 1.42 1.42 0 0 1 -32.85 42.916
             M -8.853 38.658
             A 1.52 1.52 0 0 1 -9.928 38.213
             A 1.52 1.52 0 0 1 -10.373 37.138
             L -10.373 36.588
             A 1.52 1.52 0 0 1 -8.853 35.068
             L -2.653 35.068
             A 1.52 1.52 0 0 1 -1.133 36.588
             L -1.133 37.138
             A 1.52 1.52 0 0 1 -2.653 38.658
             L -8.853 38.658
             M 1.915 46.941
             A 1.42 1.42 0 0 1 2.078 48.943
             A 1.42 1.42 0 0 1 0.076 49.105
             A 1.42 1.42 0 0 1 -0.087 47.104
             A 1.42 1.42 0 0 1 1.915 46.941
             M 46.425 52.325
             L 58.229 52.325
             L 58.229 53.889
             L 46.265 53.889
             L 46.265 52.325
             L 46.425 52.325
             M 46.425 40.12
             L 46.265 40.12
             L 46.265 38.556
             L 58.229 38.556
             L 58.229 40.12
             L 46.425 40.12" fill="none" stroke="#02abea" stroke-width="0.1"/>
</g>
<g id="opperation-3">
    <title>Perimeter (Op: 3/3)</title>
    <path d="M -11.089 41.59
             L -11.089 43.19
             A 0.78 0.78 0 0 0 -10.309 43.97
             L -10.26 43.97
             A 0.38 0.38 0 0 0 -9.886 43.656
             L -9.677 42.47
             L -8.062 42.47
             L -7.835 43.902
             A 0.08 0.08 0 0 0 -7.756 43.97
             L -7.506 43.97
             A 0.08 0.08 0 0 0 -7.428 43.903
             L -7.177 42.47
             L -5.562 42.47
             L -5.335 43.902
             A 0.08 0.08 0 0 0 -5.256 43.97
             L -5.006 43.97
             A 0.08 0.08 0 0 0 -4.928 43.903
             L -4.677 42.47
             L -3.062 42.47
             L -2.835 43.902
             A 0.08 0.08 0 0 0 -2.756 43.97
             L -2.506 43.97
             A 0.08 0.08 0 0 0 -2.428 43.903
             L -2.177 42.47
             L -0.562 42.47
             L -0.335 43.902
             A 0.08 0.08 0 0 0 -0.256 43.97
             L -0.006 43.97
             A 0.08 0.08 0 0 0 0.072 43.903
             L 0.323 42.47
             L 1.938 42.47
             L 2.165 43.902
             A 0.08 0.08 0 0 0 2.244 43.97
             L 2.494 43.97
             A 0.08 0.08 0 0 0 2.572 43.903
             L 2.823 42.47
             L 4.438 42.47
             L 4.665 43.902
             A 0.08 0.08 0 0 0 4.744 43.97
             L 4.994 43.97
             A 0.08 0.08 0 0 0 5.072 43.903
             L 5.323 42.47
             L 6.938 42.47
             L 7.165 43.902
             A 0.08 0.08 0 0 0 7.244 43.97
             L 7.494 43.97
             A 0.08 0.08 0 0 0 7.572 43.903
             L 7.823 42.47
             L 9.438 42.47
             L 9.665 43.902
             A 0.08 0.08 0 0 0 9.744 43.97
             L 9.994 43.97
             A 0.08 0.08 0 0 0 10.072 43.903
             L 10.323 42.47
             L 11.938 42.47
             L 12.165 43.902
             A 0.08 0.08 0 0 0 12.244 43.97
             L 12.494 43.97
             A 0.08 0.08 0 0 0 12.572 43.903
             L 12.823 42.47
             L 14.486 42.47
             L 14.695 43.656
             A 0.38 0.38 0 0 0 14.87 43.913
             A 3.92 3.92 0 0 1 16.563 46.095
             A 4.08 4.08 0 0 0 20.46 48.97
             L 32.818 48.97
             A 4.08 4.08 0 0 0 36.898 44.89
             A 4.08 4.08 0 0 0 32.818 40.81
             L -10.309 40.81
             A 0.78 0.78 0 0 0 -11.089 41.59
             M 15.981 52.227
             L -45.486 52.227
             A 1.92 1.92 0 0 1 -46.844 51.665
             L -51.173 47.336
             A 2.08 2.08 0 0 0 -52.643 46.727
             L -72.401 46.727
             A 1.08 1.08 0 0 0 -73.164 47.044
             L -74.579 48.458
             A 1.08 1.08 0 0 0 -74.895 49.222
             L -74.895 57.407
             A 0.08 0.08 0 0 0 -74.815 57.487
             L -69.833 57.487
             L -69.833 60.407
             A 0.58 0.58 0 0 0 -69.253 60.987
             L -58.253 60.987
             A 0.58 0.58 0 0 0 -57.673 60.407
             L -57.673 57.487
             L -52.709 57.487
             L -52.709 60.407
             A 0.58 0.58 0 0 0 -52.129 60.987
             L 40.623 60.987
             A 0.58 0.58 0 0 0 41.203 60.407
             L 41.203 57.487
             L 46.167 57.487
             L 46.167 60.407
             A 0.58 0.58 0 0 0 46.747 60.987
             L 57.747 60.987
             A 0.58 0.58 0 0 0 58.327 60.407
             L 58.327 57.487
             L 63.309 57.487
             A 0.08 0.08 0 0 0 63.389 57.407
             L 63.389 49.222
             A 1.08 1.08 0 0 0 63.073 48.458
             L 61.659 47.044
             A 1.08 1.08 0 0 0 60.895 46.727
             L 41.138 46.727
             A 2.08 2.08 0 0 0 39.667 47.336
             L 35.338 51.665
             A 1.92 1.92 0 0 1 33.981 52.227
             L 15.981 52.227
             M 6.329 50.26
             L 14.662 50.26
             L 15.889 51.487
             A 0.08 0.08 0 0 0 16.002 51.487
             A 0.08 0.08 0 0 0 16.025 51.43
             L 16.025 50.26
             L 18.771 50.26
             A 0.38 0.38 0 0 0 19.151 49.88
             A 0.38 0.38 0 0 0 19.04 49.612
             L 18.698 49.27
             A 0.58 0.58 0 0 0 18.288 49.1
             L 15.45 49.1
             A 0.42 0.42 0 0 1 15.153 48.977
             L 14.627 48.452
             A 0.42 0.42 0 0 1 14.504 48.155
             L 14.504 45.334
             A 0.58 0.58 0 0 0 14.278 44.874
             A 2.08 2.08 0 0 0 13.01 44.443
             L -11.019 44.443
             A 2.08 2.08 0 0 0 -12.49 45.053
             L -17.049 49.612
             A 0.38 0.38 0 0 0 -17.049 50.149
             A 0.38 0.38 0 0 0 -16.78 50.26
             L -14.035 50.26
             L -14.035 51.43
             A 0.08 0.08 0 0 0 -13.955 51.51
             A 0.08 0.08 0 0 0 -13.898 51.487
             L -12.671 50.26
             L 6.329 50.26
             M -14.806 45.924
             L -19.365 41.365
             A 2.08 2.08 0 0 0 -20.836 40.756
             L -44.865 40.756
             A 2.08 2.08 0 0 0 -46.336 41.365
             L -50.895 45.924
             A 0.38 0.38 0 0 0 -50.895 46.462
             A 0.38 0.38 0 0 0 -50.626 46.573
             L -47.868 46.573
             L -47.868 47.743
             A 0.08 0.08 0 0 0 -47.788 47.823
             A 0.08 0.08 0 0 0 -47.732 47.8
             L -46.505 46.573
             L -19.195 46.573
             L -17.969 47.8
             A 0.08 0.08 0 0 0 -17.856 47.8
             A 0.08 0.08 0 0 0 -17.832 47.743
             L -17.832 46.573
             L -15.075 46.573
             A 0.38 0.38 0 0 0 -14.695 46.193
             A 0.38 0.38 0 0 0 -14.806 45.924
             M -14.806 40.218
             L 33.981 40.218
             A 1.92 1.92 0 0 1 35.338 40.781
             L 39.667 45.109
             A 2.08 2.08 0 0 0 41.138 45.718
             L 60.895 45.718
             A 1.08 1.08 0 0 0 61.659 45.402
             L 63.073 43.988
             A 1.08 1.08 0 0 0 63.389 43.224
             L 63.389 35.038
             A 0.08 0.08 0 0 0 63.309 34.958
             L 58.327 34.958
             L 58.327 32.038
             A 0.58 0.58 0 0 0 57.747 31.458
             L 46.747 31.458
             A 0.58 0.58 0 0 0 46.167 32.038
             L 46.167 34.958
             L 41.203 34.958
             L 41.203 32.038
             A 0.58 0.58 0 0 0 40.623 31.458
             L -52.129 31.458
             A 0.58 0.58 0 0 0 -52.709 32.038
             L -52.709 34.958
             L -57.673 34.958
             L -57.673 32.038
             A 0.58 0.58 0 0 0 -58.253 31.458
             L -69.253 31.458
             A 0.58 0.58 0 0 0 -69.833 32.038
             L -69.833 34.958
             L -74.815 34.958
             A 0.08 0.08 0 0 0 -74.895 35.038
             L -74.895 43.224
             A 1.08 1.08 0 0 0 -74.579 43.988
             L -73.164 45.402
             A 1.08 1.08 0 0 0 -72.401 45.718
             L -52.643 45.718
             A 2.08 2.08 0 0 0 -51.173 45.109
             L -46.844 40.781
             A 1.92 1.92 0 0 1 -45.486 40.218
             L -14.806 40.218" fill="none" stroke="#1fb714" stroke-width="0.1"/>
</g>
</g>
</svg>
