<?xml version="1.0" encoding="UTF-8" standalone="no"?>
<svg xmlns="http://www.w3.org/2000/svg" width="77.78245544433594mm" height="38.664833068847656mm" viewBox="0 0 77.78245544433594 38.664833068847656">
<desc>Created with Glowforge for Fusion 360. To download visit: https://cam.autodesk.com/hsmposts?p=glowforge</desc>
<!-- CAM Setup Info:
Work Area Width: 77.78245544433594mm
Work Area Height: 38.664833068847656mm
Work Area Too Small?: false
Stock box Upper Right: 36.89122772216797,17.332416534423828
Stock box Lower Left: -36.89122772216797,-17.332416534423828
Origin: 0,0
Selected Colors: #0000d3, #02abea, #1fb714, #dd0907, #f20884, #fbf305
-->
<g id="global-translation-frame" transform="translate(38.891, 19.332) scale(1, -1)">
<g id="opperation-1">
    <title>Top positioner (Op: 1/2)</title>
    <path d="M -5.686 11.825
             A 1.254 1.254 0 0 0 -5.319 12.712
             L -3.105 14.926
             A 1.254 1.254 0 0 0 -2.218 15.293
             L -1.076 15.293
             A 0.046 0.046 0 0 1 -1.031 15.332
             L -0.996 15.551
             A 0.554 0.554 0 0 0 -0.362 16.012
             A 0.554 0.554 0 0 0 0.097 15.56
             L 0.137 15.332
             A 0.046 0.046 0 0 1 0.182 15.293
             L 1.424 15.293
             A 0.046 0.046 0 0 1 1.469 15.332
             L 1.504 15.551
             A 0.554 0.554 0 0 0 2.138 16.012
             A 0.554 0.554 0 0 0 2.597 15.56
             L 2.637 15.332
             A 0.046 0.046 0 0 1 2.682 15.293
             L 3.924 15.293
             A 0.046 0.046 0 0 1 3.969 15.332
             L 4.004 15.551
             A 0.554 0.554 0 0 0 4.638 16.012
             A 0.554 0.554 0 0 0 5.097 15.56
             L 5.137 15.332
             A 0.046 0.046 0 0 1 5.182 15.293
             L 6.424 15.293
             A 0.046 0.046 0 0 1 6.469 15.332
             L 6.504 15.551
             A 0.554 0.554 0 0 0 7.138 16.012
             A 0.554 0.554 0 0 0 7.597 15.56
             L 7.637 15.332
             A 0.046 0.046 0 0 1 7.682 15.293
             L 8.924 15.293
             A 0.046 0.046 0 0 1 8.969 15.332
             L 9.004 15.551
             A 0.554 0.554 0 0 0 9.638 16.012
             A 0.554 0.554 0 0 0 10.097 15.56
             L 10.137 15.332
             A 0.046 0.046 0 0 1 10.182 15.293
             L 11.424 15.293
             A 0.046 0.046 0 0 1 11.469 15.332
             L 11.504 15.551
             A 0.554 0.554 0 0 0 12.138 16.012
             A 0.554 0.554 0 0 0 12.597 15.56
             L 12.637 15.332
             A 0.046 0.046 0 0 1 12.682 15.293
             L 13.924 15.293
             A 0.046 0.046 0 0 1 13.969 15.332
             L 14.004 15.551
             A 0.554 0.554 0 0 0 14.638 16.012
             A 0.554 0.554 0 0 0 15.097 15.56
             L 15.137 15.332
             A 0.046 0.046 0 0 1 15.182 15.293
             L 16.424 15.293
             A 0.046 0.046 0 0 1 16.469 15.332
             L 16.504 15.551
             A 0.554 0.554 0 0 0 17.138 16.012
             A 0.554 0.554 0 0 0 17.597 15.56
             L 17.637 15.332
             A 0.046 0.046 0 0 1 17.682 15.293
             L 18.924 15.293
             A 0.046 0.046 0 0 1 18.969 15.332
             L 19.004 15.551
             A 0.554 0.554 0 0 0 19.638 16.012
             A 0.554 0.554 0 0 0 20.097 15.56
             L 20.137 15.332
             A 0.046 0.046 0 0 1 20.182 15.293
             L 21.427 15.293
             A 0.046 0.046 0 0 1 21.473 15.34
             L 21.473 15.832
             A 0.754 0.754 0 0 0 22.227 16.586
             A 0.754 0.754 0 0 0 22.76 16.366
             L 24.414 14.712
             A 1.254 1.254 0 0 0 24.781 13.825
             L 24.781 10.915
             A 1.254 1.254 0 0 0 24.414 10.028
             L 22.76 8.374
             A 0.754 0.754 0 0 0 21.694 8.374
             A 0.754 0.754 0 0 0 21.473 8.908
             L 21.473 9.4
             A 0.046 0.046 0 0 1 21.427 9.446
             L 20.182 9.446
             A 0.046 0.046 0 0 1 20.137 9.408
             L 20.097 9.18
             A 0.554 0.554 0 0 0 19.455 8.73
             A 0.554 0.554 0 0 0 19.004 9.189
             L 18.969 9.408
             A 0.046 0.046 0 0 1 18.924 9.446
             L 17.682 9.446
             A 0.046 0.046 0 0 1 17.637 9.408
             L 17.597 9.18
             A 0.554 0.554 0 0 0 16.955 8.73
             A 0.554 0.554 0 0 0 16.504 9.189
             L 16.469 9.408
             A 0.046 0.046 0 0 1 16.424 9.446
             L 15.182 9.446
             A 0.046 0.046 0 0 1 15.137 9.408
             L 15.097 9.18
             A 0.554 0.554 0 0 0 14.455 8.73
             A 0.554 0.554 0 0 0 14.004 9.189
             L 13.969 9.408
             A 0.046 0.046 0 0 1 13.924 9.446
             L 12.682 9.446
             A 0.046 0.046 0 0 1 12.637 9.408
             L 12.597 9.18
             A 0.554 0.554 0 0 0 11.955 8.73
             A 0.554 0.554 0 0 0 11.504 9.189
             L 11.469 9.408
             A 0.046 0.046 0 0 1 11.424 9.446
             L 10.182 9.446
             A 0.046 0.046 0 0 1 10.137 9.408
             L 10.097 9.18
             A 0.554 0.554 0 0 0 9.455 8.73
             A 0.554 0.554 0 0 0 9.004 9.189
             L 8.969 9.408
             A 0.046 0.046 0 0 1 8.924 9.446
             L 7.682 9.446
             A 0.046 0.046 0 0 1 7.637 9.408
             L 7.597 9.18
             A 0.554 0.554 0 0 0 6.955 8.73
             A 0.554 0.554 0 0 0 6.504 9.189
             L 6.469 9.408
             A 0.046 0.046 0 0 1 6.424 9.446
             L 5.182 9.446
             A 0.046 0.046 0 0 1 5.137 9.408
             L 5.097 9.18
             A 0.554 0.554 0 0 0 4.455 8.73
             A 0.554 0.554 0 0 0 4.004 9.189
             L 3.969 9.408
             A 0.046 0.046 0 0 1 3.924 9.446
             L 2.682 9.446
             A 0.046 0.046 0 0 1 2.637 9.408
             L 2.597 9.18
             A 0.554 0.554 0 0 0 1.955 8.73
             A 0.554 0.554 0 0 0 1.504 9.189
             L 1.469 9.408
             A 0.046 0.046 0 0 1 1.424 9.446
             L 0.182 9.446
             A 0.046 0.046 0 0 1 0.137 9.408
             L 0.097 9.18
             A 0.554 0.554 0 0 0 -0.545 8.73
             A 0.554 0.554 0 0 0 -0.996 9.189
             L -1.031 9.408
             A 0.046 0.046 0 0 1 -1.076 9.446
             L -2.332 9.446
             A 0.046 0.046 0 0 1 -2.378 9.4
             L -2.378 -9.4
             A 0.046 0.046 0 0 1 -2.332 -9.446
             L -1.076 -9.446
             A 0.046 0.046 0 0 1 -1.031 -9.408
             L -0.996 -9.189
             A 0.554 0.554 0 0 0 -0.362 -8.728
             A 0.554 0.554 0 0 0 0.097 -9.18
             L 0.137 -9.408
             A 0.046 0.046 0 0 1 0.182 -9.446
             L 1.424 -9.446
             A 0.046 0.046 0 0 1 1.469 -9.408
             L 1.504 -9.189
             A 0.554 0.554 0 0 0 2.138 -8.728
             A 0.554 0.554 0 0 0 2.597 -9.18
             L 2.637 -9.408
             A 0.046 0.046 0 0 1 2.682 -9.446
             L 3.924 -9.446
             A 0.046 0.046 0 0 1 3.969 -9.408
             L 4.004 -9.189
             A 0.554 0.554 0 0 0 4.638 -8.728
             A 0.554 0.554 0 0 0 5.097 -9.18
             L 5.137 -9.408
             A 0.046 0.046 0 0 1 5.182 -9.446
             L 6.424 -9.446
             A 0.046 0.046 0 0 1 6.469 -9.408
             L 6.504 -9.189
             A 0.554 0.554 0 0 0 7.138 -8.728
             A 0.554 0.554 0 0 0 7.597 -9.18
             L 7.637 -9.408
             A 0.046 0.046 0 0 1 7.682 -9.446
             L 8.924 -9.446
             A 0.046 0.046 0 0 1 8.969 -9.408
             L 9.004 -9.189
             A 0.554 0.554 0 0 0 9.638 -8.728
             A 0.554 0.554 0 0 0 10.097 -9.18
             L 10.137 -9.408
             A 0.046 0.046 0 0 1 10.182 -9.446
             L 11.424 -9.446
             A 0.046 0.046 0 0 1 11.469 -9.408
             L 11.504 -9.189
             A 0.554 0.554 0 0 0 12.138 -8.728
             A 0.554 0.554 0 0 0 12.597 -9.18
             L 12.637 -9.408
             A 0.046 0.046 0 0 1 12.682 -9.446
             L 13.924 -9.446
             A 0.046 0.046 0 0 1 13.969 -9.408
             L 14.004 -9.189
             A 0.554 0.554 0 0 0 14.638 -8.728
             A 0.554 0.554 0 0 0 15.097 -9.18
             L 15.137 -9.408
             A 0.046 0.046 0 0 1 15.182 -9.446
             L 16.424 -9.446
             A 0.046 0.046 0 0 1 16.469 -9.408
             L 16.504 -9.189
             A 0.554 0.554 0 0 0 17.138 -8.728
             A 0.554 0.554 0 0 0 17.597 -9.18
             L 17.637 -9.408
             A 0.046 0.046 0 0 1 17.682 -9.446
             L 18.924 -9.446
             A 0.046 0.046 0 0 1 18.969 -9.408
             L 19.004 -9.189
             A 0.554 0.554 0 0 0 19.638 -8.728
             A 0.554 0.554 0 0 0 20.097 -9.18
             L 20.137 -9.408
             A 0.046 0.046 0 0 1 20.182 -9.446
             L 21.427 -9.446
             A 0.046 0.046 0 0 1 21.473 -9.4
             L 21.473 -8.908
             A 0.754 0.754 0 0 0 22.227 -8.154
             A 0.754 0.754 0 0 0 22.76 -8.374
             L 24.414 -10.028
             A 1.254 1.254 0 0 0 24.781 -10.915
             L 24.781 -13.825
             A 1.254 1.254 0 0 0 24.414 -14.712
             L 22.76 -16.366
             A 0.754 0.754 0 0 0 21.694 -16.366
             A 0.754 0.754 0 0 0 21.473 -15.832
             L 21.473 -15.34
             A 0.046 0.046 0 0 1 21.427 -15.293
             L 20.182 -15.293
             A 0.046 0.046 0 0 1 20.137 -15.332
             L 20.097 -15.56
             A 0.554 0.554 0 0 0 19.455 -16.01
             A 0.554 0.554 0 0 0 19.004 -15.551
             L 18.969 -15.332
             A 0.046 0.046 0 0 1 18.924 -15.293
             L 17.682 -15.293
             A 0.046 0.046 0 0 1 17.637 -15.332
             L 17.597 -15.56
             A 0.554 0.554 0 0 0 16.955 -16.01
             A 0.554 0.554 0 0 0 16.504 -15.551
             L 16.469 -15.332
             A 0.046 0.046 0 0 1 16.424 -15.293
             L 15.182 -15.293
             A 0.046 0.046 0 0 1 15.137 -15.332
             L 15.097 -15.56
             A 0.554 0.554 0 0 0 14.455 -16.01
             A 0.554 0.554 0 0 0 14.004 -15.551
             L 13.969 -15.332
             A 0.046 0.046 0 0 1 13.924 -15.293
             L 12.682 -15.293
             A 0.046 0.046 0 0 1 12.637 -15.332
             L 12.597 -15.56
             A 0.554 0.554 0 0 0 11.955 -16.01
             A 0.554 0.554 0 0 0 11.504 -15.551
             L 11.469 -15.332
             A 0.046 0.046 0 0 1 11.424 -15.293
             L 10.182 -15.293
             A 0.046 0.046 0 0 1 10.137 -15.332
             L 10.097 -15.56
             A 0.554 0.554 0 0 0 9.455 -16.01
             A 0.554 0.554 0 0 0 9.004 -15.551
             L 8.969 -15.332
             A 0.046 0.046 0 0 1 8.924 -15.293
             L 7.682 -15.293
             A 0.046 0.046 0 0 1 7.637 -15.332
             L 7.597 -15.56
             A 0.554 0.554 0 0 0 6.955 -16.01
             A 0.554 0.554 0 0 0 6.504 -15.551
             L 6.469 -15.332
             A 0.046 0.046 0 0 1 6.424 -15.293
             L 5.182 -15.293
             A 0.046 0.046 0 0 1 5.137 -15.332
             L 5.097 -15.56
             A 0.554 0.554 0 0 0 4.455 -16.01
             A 0.554 0.554 0 0 0 4.004 -15.551
             L 3.969 -15.332
             A 0.046 0.046 0 0 1 3.924 -15.293
             L 2.682 -15.293
             A 0.046 0.046 0 0 1 2.637 -15.332
             L 2.597 -15.56
             A 0.554 0.554 0 0 0 1.955 -16.01
             A 0.554 0.554 0 0 0 1.504 -15.551
             L 1.469 -15.332
             A 0.046 0.046 0 0 1 1.424 -15.293
             L 0.182 -15.293
             A 0.046 0.046 0 0 1 0.137 -15.332
             L 0.097 -15.56
             A 0.554 0.554 0 0 0 -0.545 -16.01
             A 0.554 0.554 0 0 0 -0.996 -15.551
             L -1.031 -15.332
             A 0.046 0.046 0 0 1 -1.076 -15.293
             L -2.218 -15.293
             A 1.254 1.254 0 0 0 -3.105 -14.926
             L -5.319 -12.712
             A 1.254 1.254 0 0 0 -5.686 -11.825" fill="none" stroke="#0000d3" stroke-width="0.1"/>
</g>
<g id="opperation-2">
    <title>Bottom positioner (Op: 2/2)</title>
    <path d="M -9.146 -15.293
             L -10.288 -15.293
             A 0.046 0.046 0 0 1 -10.333 -15.332
             L -10.368 -15.551
             A 0.554 0.554 0 0 0 -11.002 -16.012
             A 0.554 0.554 0 0 0 -11.461 -15.56
             L -11.501 -15.332
             A 0.046 0.046 0 0 1 -11.546 -15.293
             L -12.788 -15.293
             A 0.046 0.046 0 0 1 -12.833 -15.332
             L -12.868 -15.551
             A 0.554 0.554 0 0 0 -13.502 -16.012
             A 0.554 0.554 0 0 0 -13.961 -15.56
             L -14.001 -15.332
             A 0.046 0.046 0 0 1 -14.046 -15.293
             L -15.288 -15.293
             A 0.046 0.046 0 0 1 -15.333 -15.332
             L -15.368 -15.551
             A 0.554 0.554 0 0 0 -16.002 -16.012
             A 0.554 0.554 0 0 0 -16.461 -15.56
             L -16.501 -15.332
             A 0.046 0.046 0 0 1 -16.546 -15.293
             L -17.788 -15.293
             A 0.046 0.046 0 0 1 -17.833 -15.332
             L -17.868 -15.551
             A 0.554 0.554 0 0 0 -18.502 -16.012
             A 0.554 0.554 0 0 0 -18.961 -15.56
             L -19.001 -15.332
             A 0.046 0.046 0 0 1 -19.046 -15.293
             L -20.288 -15.293
             A 0.046 0.046 0 0 1 -20.333 -15.332
             L -20.368 -15.551
             A 0.554 0.554 0 0 0 -21.002 -16.012
             A 0.554 0.554 0 0 0 -21.461 -15.56
             L -21.501 -15.332
             A 0.046 0.046 0 0 1 -21.546 -15.293
             L -22.788 -15.293
             A 0.046 0.046 0 0 1 -22.833 -15.332
             L -22.868 -15.551
             A 0.554 0.554 0 0 0 -23.502 -16.012
             A 0.554 0.554 0 0 0 -23.961 -15.56
             L -24.001 -15.332
             A 0.046 0.046 0 0 1 -24.046 -15.293
             L -25.288 -15.293
             A 0.046 0.046 0 0 1 -25.333 -15.332
             L -25.368 -15.551
             A 0.554 0.554 0 0 0 -26.002 -16.012
             A 0.554 0.554 0 0 0 -26.461 -15.56
             L -26.501 -15.332
             A 0.046 0.046 0 0 1 -26.546 -15.293
             L -27.788 -15.293
             A 0.046 0.046 0 0 1 -27.833 -15.332
             L -27.868 -15.551
             A 0.554 0.554 0 0 0 -28.502 -16.012
             A 0.554 0.554 0 0 0 -28.961 -15.56
             L -29.001 -15.332
             A 0.046 0.046 0 0 1 -29.046 -15.293
             L -30.288 -15.293
             A 0.046 0.046 0 0 1 -30.333 -15.332
             L -30.368 -15.551
             A 0.554 0.554 0 0 0 -31.002 -16.012
             A 0.554 0.554 0 0 0 -31.461 -15.56
             L -31.501 -15.332
             A 0.046 0.046 0 0 1 -31.546 -15.293
             L -32.791 -15.293
             A 0.046 0.046 0 0 1 -32.837 -15.34
             L -32.837 -15.832
             A 0.754 0.754 0 0 0 -33.591 -16.586
             A 0.754 0.754 0 0 0 -34.124 -16.366
             L -35.778 -14.712
             A 1.254 1.254 0 0 0 -36.145 -13.825
             L -36.145 -10.915
             A 1.254 1.254 0 0 0 -35.778 -10.028
             L -34.124 -8.374
             A 0.754 0.754 0 0 0 -33.058 -8.374
             A 0.754 0.754 0 0 0 -32.837 -8.908
             L -32.837 -9.4
             A 0.046 0.046 0 0 1 -32.791 -9.446
             L -31.546 -9.446
             A 0.046 0.046 0 0 1 -31.501 -9.408
             L -31.461 -9.18
             A 0.554 0.554 0 0 0 -30.82 -8.73
             A 0.554 0.554 0 0 0 -30.368 -9.189
             L -30.333 -9.408
             A 0.046 0.046 0 0 1 -30.288 -9.446
             L -29.046 -9.446
             A 0.046 0.046 0 0 1 -29.001 -9.408
             L -28.961 -9.18
             A 0.554 0.554 0 0 0 -28.32 -8.73
             A 0.554 0.554 0 0 0 -27.868 -9.189
             L -27.833 -9.408
             A 0.046 0.046 0 0 1 -27.788 -9.446
             L -26.546 -9.446
             A 0.046 0.046 0 0 1 -26.501 -9.408
             L -26.461 -9.18
             A 0.554 0.554 0 0 0 -25.82 -8.73
             A 0.554 0.554 0 0 0 -25.368 -9.189
             L -25.333 -9.408
             A 0.046 0.046 0 0 1 -25.288 -9.446
             L -24.046 -9.446
             A 0.046 0.046 0 0 1 -24.001 -9.408
             L -23.961 -9.18
             A 0.554 0.554 0 0 0 -23.32 -8.73
             A 0.554 0.554 0 0 0 -22.868 -9.189
             L -22.833 -9.408
             A 0.046 0.046 0 0 1 -22.788 -9.446
             L -21.546 -9.446
             A 0.046 0.046 0 0 1 -21.501 -9.408
             L -21.461 -9.18
             A 0.554 0.554 0 0 0 -20.82 -8.73
             A 0.554 0.554 0 0 0 -20.368 -9.189
             L -20.333 -9.408
             A 0.046 0.046 0 0 1 -20.288 -9.446
             L -19.046 -9.446
             A 0.046 0.046 0 0 1 -19.001 -9.408
             L -18.961 -9.18
             A 0.554 0.554 0 0 0 -18.32 -8.73
             A 0.554 0.554 0 0 0 -17.868 -9.189
             L -17.833 -9.408
             A 0.046 0.046 0 0 1 -17.788 -9.446
             L -16.546 -9.446
             A 0.046 0.046 0 0 1 -16.501 -9.408
             L -16.461 -9.18
             A 0.554 0.554 0 0 0 -15.82 -8.73
             A 0.554 0.554 0 0 0 -15.368 -9.189
             L -15.333 -9.408
             A 0.046 0.046 0 0 1 -15.288 -9.446
             L -14.046 -9.446
             A 0.046 0.046 0 0 1 -14.001 -9.408
             L -13.961 -9.18
             A 0.554 0.554 0 0 0 -13.32 -8.73
             A 0.554 0.554 0 0 0 -12.868 -9.189
             L -12.833 -9.408
             A 0.046 0.046 0 0 1 -12.788 -9.446
             L -11.546 -9.446
             A 0.046 0.046 0 0 1 -11.501 -9.408
             L -11.461 -9.18
             A 0.554 0.554 0 0 0 -10.82 -8.73
             A 0.554 0.554 0 0 0 -10.368 -9.189
             L -10.333 -9.408
             A 0.046 0.046 0 0 1 -10.288 -9.446
             L -9.032 -9.446
             A 0.046 0.046 0 0 1 -8.986 -9.4
             L -8.986 9.4
             A 0.046 0.046 0 0 1 -9.032 9.446
             L -10.288 9.446
             A 0.046 0.046 0 0 1 -10.333 9.408
             L -10.368 9.189
             A 0.554 0.554 0 0 0 -11.002 8.728
             A 0.554 0.554 0 0 0 -11.461 9.18
             L -11.501 9.408
             A 0.046 0.046 0 0 1 -11.546 9.446
             L -12.788 9.446
             A 0.046 0.046 0 0 1 -12.833 9.408
             L -12.868 9.189
             A 0.554 0.554 0 0 0 -13.502 8.728
             A 0.554 0.554 0 0 0 -13.961 9.18
             L -14.001 9.408
             A 0.046 0.046 0 0 1 -14.046 9.446
             L -15.288 9.446
             A 0.046 0.046 0 0 1 -15.333 9.408
             L -15.368 9.189
             A 0.554 0.554 0 0 0 -16.002 8.728
             A 0.554 0.554 0 0 0 -16.461 9.18
             L -16.501 9.408
             A 0.046 0.046 0 0 1 -16.546 9.446
             L -17.788 9.446
             A 0.046 0.046 0 0 1 -17.833 9.408
             L -17.868 9.189
             A 0.554 0.554 0 0 0 -18.502 8.728
             A 0.554 0.554 0 0 0 -18.961 9.18
             L -19.001 9.408
             A 0.046 0.046 0 0 1 -19.046 9.446
             L -20.288 9.446
             A 0.046 0.046 0 0 1 -20.333 9.408
             L -20.368 9.189
             A 0.554 0.554 0 0 0 -21.002 8.728
             A 0.554 0.554 0 0 0 -21.461 9.18
             L -21.501 9.408
             A 0.046 0.046 0 0 1 -21.546 9.446
             L -22.788 9.446
             A 0.046 0.046 0 0 1 -22.833 9.408
             L -22.868 9.189
             A 0.554 0.554 0 0 0 -23.502 8.728
             A 0.554 0.554 0 0 0 -23.961 9.18
             L -24.001 9.408
             A 0.046 0.046 0 0 1 -24.046 9.446
             L -25.288 9.446
             A 0.046 0.046 0 0 1 -25.333 9.408
             L -25.368 9.189
             A 0.554 0.554 0 0 0 -26.002 8.728
             A 0.554 0.554 0 0 0 -26.461 9.18
             L -26.501 9.408
             A 0.046 0.046 0 0 1 -26.546 9.446
             L -27.788 9.446
             A 0.046 0.046 0 0 1 -27.833 9.408
             L -27.868 9.189
             A 0.554 0.554 0 0 0 -28.502 8.728
             A 0.554 0.554 0 0 0 -28.961 9.18
             L -29.001 9.408
             A 0.046 0.046 0 0 1 -29.046 9.446
             L -30.288 9.446
             A 0.046 0.046 0 0 1 -30.333 9.408
             L -30.368 9.189
             A 0.554 0.554 0 0 0 -31.002 8.728
             A 0.554 0.554 0 0 0 -31.461 9.18
             L -31.501 9.408
             A 0.046 0.046 0 0 1 -31.546 9.446
             L -32.791 9.446
             A 0.046 0.046 0 0 1 -32.837 9.4
             L -32.837 8.908
             A 0.754 0.754 0 0 0 -33.591 8.154
             A 0.754 0.754 0 0 0 -34.124 8.374
             L -35.778 10.028
             A 1.254 1.254 0 0 0 -36.145 10.915
             L -36.145 13.825
             A 1.254 1.254 0 0 0 -35.778 14.712
             L -34.124 16.366
             A 0.754 0.754 0 0 0 -33.058 16.366
             A 0.754 0.754 0 0 0 -32.837 15.832
             L -32.837 15.34
             A 0.046 0.046 0 0 1 -32.791 15.293
             L -31.546 15.293
             A 0.046 0.046 0 0 1 -31.501 15.332
             L -31.461 15.56
             A 0.554 0.554 0 0 0 -30.82 16.01
             A 0.554 0.554 0 0 0 -30.368 15.551
             L -30.333 15.332
             A 0.046 0.046 0 0 1 -30.288 15.293
             L -29.046 15.293
             A 0.046 0.046 0 0 1 -29.001 15.332
             L -28.961 15.56
             A 0.554 0.554 0 0 0 -28.32 16.01
             A 0.554 0.554 0 0 0 -27.868 15.551
             L -27.833 15.332
             A 0.046 0.046 0 0 1 -27.788 15.293
             L -26.546 15.293
             A 0.046 0.046 0 0 1 -26.501 15.332
             L -26.461 15.56
             A 0.554 0.554 0 0 0 -25.82 16.01
             A 0.554 0.554 0 0 0 -25.368 15.551
             L -25.333 15.332
             A 0.046 0.046 0 0 1 -25.288 15.293
             L -24.046 15.293
             A 0.046 0.046 0 0 1 -24.001 15.332
             L -23.961 15.56
             A 0.554 0.554 0 0 0 -23.32 16.01
             A 0.554 0.554 0 0 0 -22.868 15.551
             L -22.833 15.332
             A 0.046 0.046 0 0 1 -22.788 15.293
             L -21.546 15.293
             A 0.046 0.046 0 0 1 -21.501 15.332
             L -21.461 15.56
             A 0.554 0.554 0 0 0 -20.82 16.01
             A 0.554 0.554 0 0 0 -20.368 15.551
             L -20.333 15.332
             A 0.046 0.046 0 0 1 -20.288 15.293
             L -19.046 15.293
             A 0.046 0.046 0 0 1 -19.001 15.332
             L -18.961 15.56
             A 0.554 0.554 0 0 0 -18.32 16.01
             A 0.554 0.554 0 0 0 -17.868 15.551
             L -17.833 15.332
             A 0.046 0.046 0 0 1 -17.788 15.293
             L -16.546 15.293
             A 0.046 0.046 0 0 1 -16.501 15.332
             L -16.461 15.56
             A 0.554 0.554 0 0 0 -15.82 16.01
             A 0.554 0.554 0 0 0 -15.368 15.551
             L -15.333 15.332
             A 0.046 0.046 0 0 1 -15.288 15.293
             L -14.046 15.293
             A 0.046 0.046 0 0 1 -14.001 15.332
             L -13.961 15.56
             A 0.554 0.554 0 0 0 -13.32 16.01
             A 0.554 0.554 0 0 0 -12.868 15.551
             L -12.833 15.332
             A 0.046 0.046 0 0 1 -12.788 15.293
             L -11.546 15.293
             A 0.046 0.046 0 0 1 -11.501 15.332
             L -11.461 15.56
             A 0.554 0.554 0 0 0 -10.82 16.01
             A 0.554 0.554 0 0 0 -10.368 15.551
             L -10.333 15.332
             A 0.046 0.046 0 0 1 -10.288 15.293
             L -9.146 15.293
             A 1.254 1.254 0 0 0 -8.26 14.926
             L -6.045 12.712
             A 1.254 1.254 0 0 0 -5.678 11.825
             L -5.678 -11.825
             A 1.254 1.254 0 0 0 -6.045 -12.712
             L -8.26 -14.926
             A 1.254 1.254 0 0 0 -9.146 -15.293" fill="none" stroke="#02abea" stroke-width="0.1"/>
</g>
</g>
</svg>
