<?xml version="1.0" encoding="UTF-8" standalone="no"?>
<svg xmlns="http://www.w3.org/2000/svg" width="38.664833068847656mm" height="77.63246154785156mm" viewBox="0 0 38.664833068847656 77.63246154785156">
<desc>Created with Glowforge for Fusion 360. To download visit: https://cam.autodesk.com/hsmposts?p=glowforge</desc>
<!-- CAM Setup Info:
Work Area Width: 38.664833068847656mm
Work Area Height: 77.63246154785156mm
Work Area Too Small?: false
Stock box Upper Right: 17.332416534423828,36.81623077392578
Stock box Lower Left: -17.332416534423828,-36.81623077392578
Origin: 0,0
Selected Colors: #0000d3, #02abea, #1fb714, #dd0907, #f20884, #fbf305
-->
<g id="global-translation-frame" transform="translate(19.332, 38.816) scale(1, -1)">
<g id="opperation-1">
    <title>Top positioner (Op: 1/2)</title>
    <path d="M -11.825 -5.721
             A 1.114 1.114 0 0 0 -12.613 -5.395
             L -14.827 -3.181
             A 1.114 1.114 0 0 0 -15.154 -2.393
             L -15.154 -1.251
             A 0.186 0.186 0 0 1 -15.31 -1.068
             L -15.529 -1.033
             A 0.414 0.414 0 0 0 -15.874 -0.559
             A 0.414 0.414 0 0 0 -15.536 -0.216
             L -15.307 -0.176
             A 0.186 0.186 0 0 1 -15.154 0.007
             L -15.154 1.249
             A 0.186 0.186 0 0 1 -15.31 1.432
             L -15.529 1.467
             A 0.414 0.414 0 0 0 -15.874 1.941
             A 0.414 0.414 0 0 0 -15.536 2.284
             L -15.307 2.324
             A 0.186 0.186 0 0 1 -15.154 2.507
             L -15.154 3.749
             A 0.186 0.186 0 0 1 -15.31 3.932
             L -15.529 3.967
             A 0.414 0.414 0 0 0 -15.874 4.441
             A 0.414 0.414 0 0 0 -15.536 4.784
             L -15.307 4.824
             A 0.186 0.186 0 0 1 -15.154 5.007
             L -15.154 6.249
             A 0.186 0.186 0 0 1 -15.31 6.432
             L -15.529 6.467
             A 0.414 0.414 0 0 0 -15.874 6.941
             A 0.414 0.414 0 0 0 -15.536 7.284
             L -15.307 7.324
             A 0.186 0.186 0 0 1 -15.154 7.507
             L -15.154 8.749
             A 0.186 0.186 0 0 1 -15.31 8.932
             L -15.529 8.967
             A 0.414 0.414 0 0 0 -15.874 9.441
             A 0.414 0.414 0 0 0 -15.536 9.784
             L -15.307 9.824
             A 0.186 0.186 0 0 1 -15.154 10.007
             L -15.154 11.249
             A 0.186 0.186 0 0 1 -15.31 11.432
             L -15.529 11.467
             A 0.414 0.414 0 0 0 -15.874 11.941
             A 0.414 0.414 0 0 0 -15.536 12.284
             L -15.308 12.324
             A 0.186 0.186 0 0 1 -15.154 12.507
             L -15.154 13.749
             A 0.186 0.186 0 0 1 -15.31 13.932
             L -15.529 13.967
             A 0.414 0.414 0 0 0 -15.874 14.441
             A 0.414 0.414 0 0 0 -15.536 14.784
             L -15.308 14.824
             A 0.186 0.186 0 0 1 -15.154 15.007
             L -15.154 16.249
             A 0.186 0.186 0 0 1 -15.31 16.432
             L -15.529 16.467
             A 0.414 0.414 0 0 0 -15.874 16.941
             A 0.414 0.414 0 0 0 -15.536 17.284
             L -15.308 17.324
             A 0.186 0.186 0 0 1 -15.154 17.507
             L -15.154 18.749
             A 0.186 0.186 0 0 1 -15.31 18.932
             L -15.529 18.967
             A 0.414 0.414 0 0 0 -15.874 19.441
             A 0.414 0.414 0 0 0 -15.536 19.784
             L -15.308 19.824
             A 0.186 0.186 0 0 1 -15.154 20.007
             L -15.154 21.252
             A 0.186 0.186 0 0 1 -15.34 21.438
             L -15.832 21.438
             A 0.614 0.614 0 0 0 -16.447 22.052
             A 0.614 0.614 0 0 0 -16.267 22.486
             L -14.613 24.14
             A 1.114 1.114 0 0 0 -13.825 24.466
             L -10.915 24.466
             A 1.114 1.114 0 0 0 -10.127 24.14
             L -8.473 22.486
             A 0.614 0.614 0 0 0 -8.473 21.618
             A 0.614 0.614 0 0 0 -8.908 21.438
             L -9.4 21.438
             A 0.186 0.186 0 0 1 -9.586 21.252
             L -9.586 20.007
             A 0.186 0.186 0 0 1 -9.432 19.824
             L -9.204 19.784
             A 0.414 0.414 0 0 0 -8.867 19.305
             A 0.414 0.414 0 0 0 -9.211 18.967
             L -9.43 18.932
             A 0.186 0.186 0 0 1 -9.586 18.749
             L -9.586 17.507
             A 0.186 0.186 0 0 1 -9.432 17.324
             L -9.204 17.284
             A 0.414 0.414 0 0 0 -8.867 16.805
             A 0.414 0.414 0 0 0 -9.211 16.467
             L -9.43 16.432
             A 0.186 0.186 0 0 1 -9.586 16.249
             L -9.586 15.007
             A 0.186 0.186 0 0 1 -9.432 14.824
             L -9.204 14.784
             A 0.414 0.414 0 0 0 -8.867 14.305
             A 0.414 0.414 0 0 0 -9.211 13.967
             L -9.43 13.932
             A 0.186 0.186 0 0 1 -9.586 13.749
             L -9.586 12.507
             A 0.186 0.186 0 0 1 -9.432 12.324
             L -9.204 12.284
             A 0.414 0.414 0 0 0 -8.867 11.805
             A 0.414 0.414 0 0 0 -9.211 11.467
             L -9.43 11.432
             A 0.186 0.186 0 0 1 -9.586 11.249
             L -9.586 10.007
             A 0.186 0.186 0 0 1 -9.432 9.824
             L -9.204 9.784
             A 0.414 0.414 0 0 0 -8.867 9.305
             A 0.414 0.414 0 0 0 -9.211 8.967
             L -9.43 8.932
             A 0.186 0.186 0 0 1 -9.586 8.749
             L -9.586 7.507
             A 0.186 0.186 0 0 1 -9.432 7.324
             L -9.204 7.284
             A 0.414 0.414 0 0 0 -8.867 6.805
             A 0.414 0.414 0 0 0 -9.211 6.467
             L -9.43 6.432
             A 0.186 0.186 0 0 1 -9.586 6.249
             L -9.586 5.007
             A 0.186 0.186 0 0 1 -9.432 4.824
             L -9.204 4.784
             A 0.414 0.414 0 0 0 -8.867 4.305
             A 0.414 0.414 0 0 0 -9.211 3.967
             L -9.43 3.932
             A 0.186 0.186 0 0 1 -9.586 3.749
             L -9.586 2.507
             A 0.186 0.186 0 0 1 -9.432 2.324
             L -9.204 2.284
             A 0.414 0.414 0 0 0 -8.867 1.805
             A 0.414 0.414 0 0 0 -9.211 1.467
             L -9.43 1.432
             A 0.186 0.186 0 0 1 -9.586 1.249
             L -9.586 0.007
             A 0.186 0.186 0 0 1 -9.432 -0.176
             L -9.204 -0.216
             A 0.414 0.414 0 0 0 -8.867 -0.695
             A 0.414 0.414 0 0 0 -9.211 -1.033
             L -9.43 -1.068
             A 0.186 0.186 0 0 1 -9.586 -1.251
             L -9.586 -2.507
             A 0.186 0.186 0 0 1 -9.4 -2.693
             L 9.4 -2.693
             A 0.186 0.186 0 0 1 9.586 -2.507
             L 9.586 -1.251
             A 0.186 0.186 0 0 1 9.43 -1.068
             L 9.211 -1.033
             A 0.414 0.414 0 0 0 8.866 -0.559
             A 0.414 0.414 0 0 0 9.204 -0.216
             L 9.432 -0.176
             A 0.186 0.186 0 0 1 9.586 0.007
             L 9.586 1.249
             A 0.186 0.186 0 0 1 9.43 1.432
             L 9.211 1.467
             A 0.414 0.414 0 0 0 8.866 1.941
             A 0.414 0.414 0 0 0 9.204 2.284
             L 9.432 2.324
             A 0.186 0.186 0 0 1 9.586 2.507
             L 9.586 3.749
             A 0.186 0.186 0 0 1 9.43 3.932
             L 9.211 3.967
             A 0.414 0.414 0 0 0 8.866 4.441
             A 0.414 0.414 0 0 0 9.204 4.784
             L 9.432 4.824
             A 0.186 0.186 0 0 1 9.586 5.007
             L 9.586 6.249
             A 0.186 0.186 0 0 1 9.43 6.432
             L 9.211 6.467
             A 0.414 0.414 0 0 0 8.866 6.941
             A 0.414 0.414 0 0 0 9.204 7.284
             L 9.432 7.324
             A 0.186 0.186 0 0 1 9.586 7.507
             L 9.586 8.749
             A 0.186 0.186 0 0 1 9.43 8.932
             L 9.211 8.967
             A 0.414 0.414 0 0 0 8.866 9.441
             A 0.414 0.414 0 0 0 9.204 9.784
             L 9.432 9.824
             A 0.186 0.186 0 0 1 9.586 10.007
             L 9.586 11.249
             A 0.186 0.186 0 0 1 9.43 11.432
             L 9.211 11.467
             A 0.414 0.414 0 0 0 8.866 11.941
             A 0.414 0.414 0 0 0 9.204 12.284
             L 9.432 12.324
             A 0.186 0.186 0 0 1 9.586 12.507
             L 9.586 13.749
             A 0.186 0.186 0 0 1 9.43 13.932
             L 9.211 13.967
             A 0.414 0.414 0 0 0 8.866 14.441
             A 0.414 0.414 0 0 0 9.204 14.784
             L 9.432 14.824
             A 0.186 0.186 0 0 1 9.586 15.007
             L 9.586 16.249
             A 0.186 0.186 0 0 1 9.43 16.432
             L 9.211 16.467
             A 0.414 0.414 0 0 0 8.866 16.941
             A 0.414 0.414 0 0 0 9.204 17.284
             L 9.432 17.324
             A 0.186 0.186 0 0 1 9.586 17.507
             L 9.586 18.749
             A 0.186 0.186 0 0 1 9.43 18.932
             L 9.211 18.967
             A 0.414 0.414 0 0 0 8.866 19.441
             A 0.414 0.414 0 0 0 9.204 19.784
             L 9.432 19.824
             A 0.186 0.186 0 0 1 9.586 20.007
             L 9.586 21.252
             A 0.186 0.186 0 0 1 9.4 21.438
             L 8.908 21.438
             A 0.614 0.614 0 0 0 8.293 22.052
             A 0.614 0.614 0 0 0 8.473 22.486
             L 10.127 24.14
             A 1.114 1.114 0 0 0 10.915 24.466
             L 13.825 24.466
             A 1.114 1.114 0 0 0 14.613 24.14
             L 16.267 22.486
             A 0.614 0.614 0 0 0 16.267 21.618
             A 0.614 0.614 0 0 0 15.832 21.438
             L 15.34 21.438
             A 0.186 0.186 0 0 1 15.154 21.252
             L 15.154 20.007
             A 0.186 0.186 0 0 1 15.307 19.824
             L 15.536 19.784
             A 0.414 0.414 0 0 0 15.873 19.304
             A 0.414 0.414 0 0 0 15.53 18.967
             L 15.31 18.932
             A 0.186 0.186 0 0 1 15.154 18.749
             L 15.154 17.507
             A 0.186 0.186 0 0 1 15.307 17.324
             L 15.536 17.284
             A 0.414 0.414 0 0 0 15.873 16.804
             A 0.414 0.414 0 0 0 15.53 16.467
             L 15.31 16.432
             A 0.186 0.186 0 0 1 15.154 16.249
             L 15.154 15.007
             A 0.186 0.186 0 0 1 15.307 14.824
             L 15.536 14.784
             A 0.414 0.414 0 0 0 15.873 14.304
             A 0.414 0.414 0 0 0 15.53 13.967
             L 15.31 13.932
             A 0.186 0.186 0 0 1 15.154 13.749
             L 15.154 12.507
             A 0.186 0.186 0 0 1 15.307 12.324
             L 15.536 12.284
             A 0.414 0.414 0 0 0 15.873 11.804
             A 0.414 0.414 0 0 0 15.53 11.467
             L 15.31 11.432
             A 0.186 0.186 0 0 1 15.154 11.249
             L 15.154 10.007
             A 0.186 0.186 0 0 1 15.307 9.824
             L 15.536 9.784
             A 0.414 0.414 0 0 0 15.873 9.305
             A 0.414 0.414 0 0 0 15.53 8.967
             L 15.31 8.932
             A 0.186 0.186 0 0 1 15.154 8.749
             L 15.154 7.507
             A 0.186 0.186 0 0 1 15.307 7.324
             L 15.536 7.284
             A 0.414 0.414 0 0 0 15.873 6.805
             A 0.414 0.414 0 0 0 15.53 6.467
             L 15.31 6.432
             A 0.186 0.186 0 0 1 15.154 6.249
             L 15.154 5.007
             A 0.186 0.186 0 0 1 15.307 4.824
             L 15.536 4.784
             A 0.414 0.414 0 0 0 15.873 4.305
             A 0.414 0.414 0 0 0 15.53 3.967
             L 15.31 3.932
             A 0.186 0.186 0 0 1 15.154 3.749
             L 15.154 2.507
             A 0.186 0.186 0 0 1 15.307 2.324
             L 15.536 2.284
             A 0.414 0.414 0 0 0 15.873 1.805
             A 0.414 0.414 0 0 0 15.53 1.467
             L 15.31 1.432
             A 0.186 0.186 0 0 1 15.154 1.249
             L 15.154 0.007
             A 0.186 0.186 0 0 1 15.307 -0.176
             L 15.536 -0.216
             A 0.414 0.414 0 0 0 15.873 -0.695
             A 0.414 0.414 0 0 0 15.53 -1.033
             L 15.31 -1.068
             A 0.186 0.186 0 0 1 15.154 -1.251
             L 15.154 -2.393
             A 1.114 1.114 0 0 0 14.827 -3.181
             L 12.613 -5.395
             A 1.114 1.114 0 0 0 11.825 -5.721" fill="none" stroke="#0000d3" stroke-width="0.1"/>
</g>
<g id="opperation-2">
    <title>Bottom positioner (Op: 2/2)</title>
    <path d="M -14.827 -8.283
             L -12.613 -6.069
             A 1.114 1.114 0 0 0 -11.825 -5.743
             L 11.825 -5.743
             A 1.114 1.114 0 0 0 12.613 -6.069
             L 14.827 -8.283
             A 1.114 1.114 0 0 0 15.154 -9.071
             L 15.154 -10.213
             A 0.186 0.186 0 0 1 15.31 -10.396
             L 15.529 -10.431
             A 0.414 0.414 0 0 0 15.874 -10.905
             A 0.414 0.414 0 0 0 15.536 -11.248
             L 15.308 -11.288
             A 0.186 0.186 0 0 1 15.154 -11.471
             L 15.154 -12.713
             A 0.186 0.186 0 0 1 15.31 -12.896
             L 15.529 -12.931
             A 0.414 0.414 0 0 0 15.874 -13.405
             A 0.414 0.414 0 0 0 15.536 -13.748
             L 15.308 -13.788
             A 0.186 0.186 0 0 1 15.154 -13.971
             L 15.154 -15.213
             A 0.186 0.186 0 0 1 15.31 -15.396
             L 15.529 -15.431
             A 0.414 0.414 0 0 0 15.874 -15.905
             A 0.414 0.414 0 0 0 15.536 -16.248
             L 15.308 -16.288
             A 0.186 0.186 0 0 1 15.154 -16.471
             L 15.154 -17.713
             A 0.186 0.186 0 0 1 15.31 -17.896
             L 15.529 -17.931
             A 0.414 0.414 0 0 0 15.874 -18.405
             A 0.414 0.414 0 0 0 15.536 -18.748
             L 15.308 -18.788
             A 0.186 0.186 0 0 1 15.154 -18.971
             L 15.154 -20.213
             A 0.186 0.186 0 0 1 15.31 -20.396
             L 15.529 -20.431
             A 0.414 0.414 0 0 0 15.874 -20.905
             A 0.414 0.414 0 0 0 15.536 -21.248
             L 15.308 -21.288
             A 0.186 0.186 0 0 1 15.154 -21.471
             L 15.154 -22.713
             A 0.186 0.186 0 0 1 15.31 -22.896
             L 15.529 -22.931
             A 0.414 0.414 0 0 0 15.874 -23.405
             A 0.414 0.414 0 0 0 15.536 -23.748
             L 15.308 -23.788
             A 0.186 0.186 0 0 1 15.154 -23.971
             L 15.154 -25.213
             A 0.186 0.186 0 0 1 15.31 -25.396
             L 15.529 -25.431
             A 0.414 0.414 0 0 0 15.874 -25.905
             A 0.414 0.414 0 0 0 15.536 -26.248
             L 15.308 -26.288
             A 0.186 0.186 0 0 1 15.154 -26.471
             L 15.154 -27.713
             A 0.186 0.186 0 0 1 15.31 -27.896
             L 15.529 -27.931
             A 0.414 0.414 0 0 0 15.874 -28.405
             A 0.414 0.414 0 0 0 15.536 -28.748
             L 15.308 -28.788
             A 0.186 0.186 0 0 1 15.154 -28.971
             L 15.154 -30.213
             A 0.186 0.186 0 0 1 15.31 -30.396
             L 15.529 -30.431
             A 0.414 0.414 0 0 0 15.874 -30.905
             A 0.414 0.414 0 0 0 15.536 -31.248
             L 15.308 -31.288
             A 0.186 0.186 0 0 1 15.154 -31.471
             L 15.154 -32.716
             A 0.186 0.186 0 0 1 15.34 -32.902
             L 15.832 -32.902
             A 0.614 0.614 0 0 0 16.447 -33.516
             A 0.614 0.614 0 0 0 16.267 -33.951
             L 14.613 -35.604
             A 1.114 1.114 0 0 0 13.825 -35.931
             L 10.915 -35.931
             A 1.114 1.114 0 0 0 10.127 -35.604
             L 8.473 -33.951
             A 0.614 0.614 0 0 0 8.473 -33.082
             A 0.614 0.614 0 0 0 8.908 -32.902
             L 9.4 -32.902
             A 0.186 0.186 0 0 1 9.586 -32.716
             L 9.586 -31.471
             A 0.186 0.186 0 0 1 9.432 -31.288
             L 9.204 -31.248
             A 0.414 0.414 0 0 0 8.867 -30.769
             A 0.414 0.414 0 0 0 9.211 -30.431
             L 9.43 -30.396
             A 0.186 0.186 0 0 1 9.586 -30.213
             L 9.586 -28.971
             A 0.186 0.186 0 0 1 9.432 -28.788
             L 9.204 -28.748
             A 0.414 0.414 0 0 0 8.867 -28.269
             A 0.414 0.414 0 0 0 9.211 -27.931
             L 9.43 -27.896
             A 0.186 0.186 0 0 1 9.586 -27.713
             L 9.586 -26.471
             A 0.186 0.186 0 0 1 9.432 -26.288
             L 9.204 -26.248
             A 0.414 0.414 0 0 0 8.867 -25.769
             A 0.414 0.414 0 0 0 9.211 -25.431
             L 9.43 -25.396
             A 0.186 0.186 0 0 1 9.586 -25.213
             L 9.586 -23.971
             A 0.186 0.186 0 0 1 9.432 -23.788
             L 9.204 -23.748
             A 0.414 0.414 0 0 0 8.867 -23.269
             A 0.414 0.414 0 0 0 9.211 -22.931
             L 9.43 -22.896
             A 0.186 0.186 0 0 1 9.586 -22.713
             L 9.586 -21.471
             A 0.186 0.186 0 0 1 9.432 -21.288
             L 9.204 -21.248
             A 0.414 0.414 0 0 0 8.867 -20.769
             A 0.414 0.414 0 0 0 9.211 -20.431
             L 9.43 -20.396
             A 0.186 0.186 0 0 1 9.586 -20.213
             L 9.586 -18.971
             A 0.186 0.186 0 0 1 9.432 -18.788
             L 9.204 -18.748
             A 0.414 0.414 0 0 0 8.867 -18.269
             A 0.414 0.414 0 0 0 9.211 -17.931
             L 9.43 -17.896
             A 0.186 0.186 0 0 1 9.586 -17.713
             L 9.586 -16.471
             A 0.186 0.186 0 0 1 9.432 -16.288
             L 9.204 -16.248
             A 0.414 0.414 0 0 0 8.867 -15.769
             A 0.414 0.414 0 0 0 9.211 -15.431
             L 9.43 -15.396
             A 0.186 0.186 0 0 1 9.586 -15.213
             L 9.586 -13.971
             A 0.186 0.186 0 0 1 9.432 -13.788
             L 9.204 -13.748
             A 0.414 0.414 0 0 0 8.867 -13.269
             A 0.414 0.414 0 0 0 9.211 -12.931
             L 9.43 -12.896
             A 0.186 0.186 0 0 1 9.586 -12.713
             L 9.586 -11.471
             A 0.186 0.186 0 0 1 9.432 -11.288
             L 9.204 -11.248
             A 0.414 0.414 0 0 0 8.867 -10.769
             A 0.414 0.414 0 0 0 9.211 -10.431
             L 9.43 -10.396
             A 0.186 0.186 0 0 1 9.586 -10.213
             L 9.586 -8.957
             A 0.186 0.186 0 0 1 9.4 -8.771
             L -9.4 -8.771
             A 0.186 0.186 0 0 1 -9.586 -8.957
             L -9.586 -10.213
             A 0.186 0.186 0 0 1 -9.43 -10.396
             L -9.211 -10.431
             A 0.414 0.414 0 0 0 -8.866 -10.905
             A 0.414 0.414 0 0 0 -9.204 -11.248
             L -9.432 -11.288
             A 0.186 0.186 0 0 1 -9.586 -11.471
             L -9.586 -12.713
             A 0.186 0.186 0 0 1 -9.43 -12.896
             L -9.211 -12.931
             A 0.414 0.414 0 0 0 -8.866 -13.405
             A 0.414 0.414 0 0 0 -9.204 -13.748
             L -9.432 -13.788
             A 0.186 0.186 0 0 1 -9.586 -13.971
             L -9.586 -15.213
             A 0.186 0.186 0 0 1 -9.43 -15.396
             L -9.211 -15.431
             A 0.414 0.414 0 0 0 -8.866 -15.905
             A 0.414 0.414 0 0 0 -9.204 -16.248
             L -9.432 -16.288
             A 0.186 0.186 0 0 1 -9.586 -16.471
             L -9.586 -17.713
             A 0.186 0.186 0 0 1 -9.43 -17.896
             L -9.211 -17.931
             A 0.414 0.414 0 0 0 -8.866 -18.405
             A 0.414 0.414 0 0 0 -9.204 -18.748
             L -9.432 -18.788
             A 0.186 0.186 0 0 1 -9.586 -18.971
             L -9.586 -20.213
             A 0.186 0.186 0 0 1 -9.43 -20.396
             L -9.211 -20.431
             A 0.414 0.414 0 0 0 -8.866 -20.905
             A 0.414 0.414 0 0 0 -9.204 -21.248
             L -9.432 -21.288
             A 0.186 0.186 0 0 1 -9.586 -21.471
             L -9.586 -22.713
             A 0.186 0.186 0 0 1 -9.43 -22.896
             L -9.211 -22.931
             A 0.414 0.414 0 0 0 -8.866 -23.405
             A 0.414 0.414 0 0 0 -9.204 -23.748
             L -9.432 -23.788
             A 0.186 0.186 0 0 1 -9.586 -23.971
             L -9.586 -25.213
             A 0.186 0.186 0 0 1 -9.43 -25.396
             L -9.211 -25.431
             A 0.414 0.414 0 0 0 -8.866 -25.905
             A 0.414 0.414 0 0 0 -9.204 -26.248
             L -9.432 -26.288
             A 0.186 0.186 0 0 1 -9.586 -26.471
             L -9.586 -27.713
             A 0.186 0.186 0 0 1 -9.43 -27.896
             L -9.211 -27.931
             A 0.414 0.414 0 0 0 -8.866 -28.405
             A 0.414 0.414 0 0 0 -9.204 -28.748
             L -9.432 -28.788
             A 0.186 0.186 0 0 1 -9.586 -28.971
             L -9.586 -30.213
             A 0.186 0.186 0 0 1 -9.43 -30.396
             L -9.211 -30.431
             A 0.414 0.414 0 0 0 -8.866 -30.905
             A 0.414 0.414 0 0 0 -9.204 -31.248
             L -9.432 -31.288
             A 0.186 0.186 0 0 1 -9.586 -31.471
             L -9.586 -32.716
             A 0.186 0.186 0 0 1 -9.4 -32.902
             L -8.908 -32.902
             A 0.614 0.614 0 0 0 -8.293 -33.516
             A 0.614 0.614 0 0 0 -8.473 -33.951
             L -10.127 -35.604
             A 1.114 1.114 0 0 0 -10.915 -35.931
             L -13.825 -35.931
             A 1.114 1.114 0 0 0 -14.613 -35.604
             L -16.267 -33.951
             A 0.614 0.614 0 0 0 -16.267 -33.082
             A 0.614 0.614 0 0 0 -15.832 -32.902
             L -15.34 -32.902
             A 0.186 0.186 0 0 1 -15.154 -32.716
             L -15.154 -31.471
             A 0.186 0.186 0 0 1 -15.307 -31.288
             L -15.536 -31.248
             A 0.414 0.414 0 0 0 -15.873 -30.769
             A 0.414 0.414 0 0 0 -15.53 -30.431
             L -15.31 -30.396
             A 0.186 0.186 0 0 1 -15.154 -30.213
             L -15.154 -28.971
             A 0.186 0.186 0 0 1 -15.307 -28.788
             L -15.536 -28.748
             A 0.414 0.414 0 0 0 -15.873 -28.269
             A 0.414 0.414 0 0 0 -15.53 -27.931
             L -15.31 -27.896
             A 0.186 0.186 0 0 1 -15.154 -27.713
             L -15.154 -26.471
             A 0.186 0.186 0 0 1 -15.307 -26.288
             L -15.536 -26.248
             A 0.414 0.414 0 0 0 -15.873 -25.769
             A 0.414 0.414 0 0 0 -15.53 -25.431
             L -15.31 -25.396
             A 0.186 0.186 0 0 1 -15.154 -25.213
             L -15.154 -23.971
             A 0.186 0.186 0 0 1 -15.307 -23.788
             L -15.536 -23.748
             A 0.414 0.414 0 0 0 -15.873 -23.269
             A 0.414 0.414 0 0 0 -15.53 -22.931
             L -15.31 -22.896
             A 0.186 0.186 0 0 1 -15.154 -22.713
             L -15.154 -21.471
             A 0.186 0.186 0 0 1 -15.307 -21.288
             L -15.536 -21.248
             A 0.414 0.414 0 0 0 -15.873 -20.769
             A 0.414 0.414 0 0 0 -15.53 -20.431
             L -15.31 -20.396
             A 0.186 0.186 0 0 1 -15.154 -20.213
             L -15.154 -18.971
             A 0.186 0.186 0 0 1 -15.307 -18.788
             L -15.536 -18.748
             A 0.414 0.414 0 0 0 -15.873 -18.269
             A 0.414 0.414 0 0 0 -15.53 -17.931
             L -15.31 -17.896
             A 0.186 0.186 0 0 1 -15.154 -17.713
             L -15.154 -16.471
             A 0.186 0.186 0 0 1 -15.307 -16.288
             L -15.536 -16.248
             A 0.414 0.414 0 0 0 -15.873 -15.769
             A 0.414 0.414 0 0 0 -15.53 -15.431
             L -15.31 -15.396
             A 0.186 0.186 0 0 1 -15.154 -15.213
             L -15.154 -13.971
             A 0.186 0.186 0 0 1 -15.307 -13.788
             L -15.536 -13.748
             A 0.414 0.414 0 0 0 -15.873 -13.269
             A 0.414 0.414 0 0 0 -15.53 -12.931
             L -15.31 -12.896
             A 0.186 0.186 0 0 1 -15.154 -12.713
             L -15.154 -11.471
             A 0.186 0.186 0 0 1 -15.307 -11.288
             L -15.536 -11.248
             A 0.414 0.414 0 0 0 -15.873 -10.769
             A 0.414 0.414 0 0 0 -15.53 -10.431
             L -15.31 -10.396
             A 0.186 0.186 0 0 1 -15.154 -10.213
             L -15.154 -9.071
             A 1.114 1.114 0 0 0 -14.827 -8.283" fill="none" stroke="#02abea" stroke-width="0.1"/>
</g>
</g>
</svg>
