<?xml version="1.0" encoding="UTF-8" standalone="no"?>
<svg xmlns="http://www.w3.org/2000/svg" width="155.6297149658203mm" height="127.81452178955078mm" viewBox="0 0 155.6297149658203 127.81452178955078">
<desc>Created with Glowforge for Fusion 360. To download visit: https://cam.autodesk.com/hsmposts?p=glowforge</desc>
<!-- CAM Setup Info:
Work Area Width: 155.6297149658203mm
Work Area Height: 127.81452178955078mm
Work Area Too Small?: false
Stock box Upper Right: 75.81485748291016,61.90726089477539
Stock box Lower Left: -75.81485748291016,-61.90726089477539
Origin: 0,0
Selected Colors: #0000d3, #02abea, #1fb714, #dd0907, #f20884, #fbf305
-->
<g id="global-translation-frame" transform="translate(77.815, 63.907) scale(1, -1)">
<g id="opperation-1">
    <title>Holes (Op: 1/2)</title>
    <path d="M 27.103 -1.957
             L 5.377 -1.957
             L 5.242 -2.008
             L 5.242 -3.447
             L 5.377 -3.497
             L 27.133 -3.497
             L 27.268 -3.447
             L 27.268 -2.008
             L 27.133 -1.957
             L 27.103 -1.957
             M 27.103 0.543
             L 5.377 0.543
             L 5.242 0.492
             L 5.242 -0.947
             L 5.377 -0.997
             L 27.133 -0.997
             L 27.268 -0.947
             L 27.268 0.492
             L 27.133 0.543
             L 27.103 0.543
             M 27.103 3.043
             L 5.377 3.043
             L 5.242 2.992
             L 5.242 1.553
             L 5.377 1.503
             L 27.133 1.503
             L 27.268 1.553
             L 27.268 2.992
             L 27.133 3.043
             L 27.103 3.043
             M 27.103 5.543
             L 5.377 5.543
             L 5.242 5.492
             L 5.242 4.053
             L 5.377 4.003
             L 27.133 4.003
             L 27.268 4.053
             L 27.268 5.492
             L 27.133 5.543
             L 27.103 5.543
             M 27.103 8.043
             L 5.377 8.043
             L 5.242 7.992
             L 5.242 6.553
             L 5.377 6.503
             L 27.133 6.503
             L 27.268 6.553
             L 27.268 7.992
             L 27.133 8.043
             L 27.103 8.043
             M 27.103 10.543
             L 5.377 10.543
             L 5.242 10.492
             L 5.242 9.053
             L 5.377 9.003
             L 27.133 9.003
             L 27.268 9.053
             L 27.268 10.492
             L 27.133 10.543
             L 27.103 10.543
             M 27.103 13.043
             L 5.377 13.043
             L 5.242 12.992
             L 5.242 11.553
             L 5.377 11.503
             L 27.133 11.503
             L 27.268 11.553
             L 27.268 12.992
             L 27.133 13.043
             L 27.103 13.043
             M 27.103 15.543
             L 5.377 15.543
             L 5.242 15.492
             L 5.242 14.053
             L 5.377 14.003
             L 27.133 14.003
             L 27.268 14.053
             L 27.268 15.492
             L 27.133 15.543
             L 27.103 15.543
             M 27.103 18.043
             L 5.377 18.043
             L 5.242 17.992
             L 5.242 16.553
             L 5.377 16.503
             L 27.133 16.503
             L 27.268 16.553
             L 27.268 17.992
             L 27.133 18.043
             L 27.103 18.043
             M 27.268 19.173
             L 27.268 20.492
             L 27.133 20.543
             L 5.377 20.543
             L 5.242 20.492
             L 5.242 19.053
             L 5.377 19.003
             L 27.133 19.003
             L 27.268 19.053
             L 27.268 19.173
             M 29.866 19.173
             L 29.866 19.053
             L 30.001 19.003
             L 51.757 19.003
             L 51.892 19.053
             L 51.892 20.492
             L 51.757 20.543
             L 30.001 20.543
             L 29.866 20.492
             L 29.866 19.173
             M 30.031 16.503
             L 51.757 16.503
             L 51.892 16.553
             L 51.892 17.992
             L 51.757 18.043
             L 30.001 18.043
             L 29.866 17.992
             L 29.866 16.553
             L 30.001 16.503
             L 30.031 16.503
             M 30.031 14.003
             L 51.757 14.003
             L 51.892 14.053
             L 51.892 15.492
             L 51.757 15.543
             L 30.001 15.543
             L 29.866 15.492
             L 29.866 14.053
             L 30.001 14.003
             L 30.031 14.003
             M 30.031 11.503
             L 51.757 11.503
             L 51.892 11.553
             L 51.892 12.992
             L 51.757 13.043
             L 30.001 13.043
             L 29.866 12.992
             L 29.866 11.553
             L 30.001 11.503
             L 30.031 11.503
             M 30.031 9.003
             L 51.757 9.003
             L 51.892 9.053
             L 51.892 10.492
             L 51.757 10.543
             L 30.001 10.543
             L 29.866 10.492
             L 29.866 9.053
             L 30.001 9.003
             L 30.031 9.003
             M 30.031 6.503
             L 51.757 6.503
             L 51.892 6.553
             L 51.892 7.992
             L 51.757 8.043
             L 30.001 8.043
             L 29.866 7.992
             L 29.866 6.553
             L 30.001 6.503
             L 30.031 6.503
             M 30.031 4.003
             L 51.757 4.003
             L 51.892 4.053
             L 51.892 5.492
             L 51.757 5.543
             L 30.001 5.543
             L 29.866 5.492
             L 29.866 4.053
             L 30.001 4.003
             L 30.031 4.003
             M 30.031 1.503
             L 51.757 1.503
             L 51.892 1.553
             L 51.892 2.992
             L 51.757 3.043
             L 30.001 3.043
             L 29.866 2.992
             L 29.866 1.553
             L 30.001 1.503
             L 30.031 1.503
             M 30.031 -0.997
             L 51.757 -0.997
             L 51.892 -0.947
             L 51.892 0.492
             L 51.757 0.543
             L 30.001 0.543
             L 29.866 0.492
             L 29.866 -0.947
             L 30.001 -0.997
             L 30.031 -0.997
             M 40.001 -3.497
             L 51.757 -3.497
             L 51.892 -3.447
             L 51.892 -2.008
             L 51.757 -1.957
             L 30.001 -1.957
             L 29.866 -2.008
             L 29.866 -3.447
             L 30.001 -3.497
             L 40.001 -3.497
             M 52.052 -6.717
             L 52.052 -9.959
             L 64.016 -9.959
             L 64.016 -6.557
             L 52.052 -6.557
             L 52.052 -6.717
             M 56.814 -2.977
             A 0.42 0.42 0 0 1 57.234 -3.397
             L 61.234 -3.397
             A 0.42 0.42 0 0 1 61.654 -2.977
             L 61.654 3.866
             A 0.58 0.58 0 0 0 61.824 4.276
             L 63.031 5.483
             A 0.58 0.58 0 0 0 63.441 5.653
             L 65.209 5.653
             A 0.42 0.42 0 0 1 65.506 5.776
             L 66.214 6.483
             A 0.42 0.42 0 0 1 66.337 6.78
             L 66.337 10.266
             A 0.42 0.42 0 0 1 66.214 10.563
             L 65.506 11.27
             A 0.42 0.42 0 0 1 65.21 11.393
             L 63.441 11.393
             A 0.58 0.58 0 0 0 63.031 11.563
             L 61.824 12.77
             A 0.58 0.58 0 0 0 61.654 13.18
             L 61.654 20.023
             A 0.42 0.42 0 0 1 61.234 20.443
             L 57.234 20.443
             A 0.42 0.42 0 0 1 56.814 20.023
             L 56.814 -2.977
             M 62.639 1.629
             L 63.467 0.802
             L 64.294 1.629
             M 69.895 8.523
             A 1.42 1.42 0 0 1 71.315 7.103
             A 1.42 1.42 0 0 1 72.735 8.523
             A 1.42 1.42 0 0 1 71.315 9.943
             A 1.42 1.42 0 0 1 69.895 8.523
             M 64.294 15.416
             L 63.467 16.243
             L 62.639 15.416
             M 57.052 23.603
             L 64.016 23.603
             L 64.016 27.005
             L 52.052 27.005
             L 52.052 23.603
             L 57.052 23.603
             M 55.094 18.195
             L 55.921 19.023
             L 55.094 19.85
             M 55.094 15.195
             L 55.921 16.023
             L 55.094 16.85
             M 55.094 12.195
             L 55.921 13.023
             L 55.094 13.85
             M 55.094 9.195
             L 55.921 10.023
             L 55.094 10.85
             M 55.094 6.195
             L 55.921 7.023
             L 55.094 7.85
             M 55.094 3.195
             L 55.921 4.023
             L 55.094 4.85
             M 55.094 0.195
             L 55.921 1.023
             L 55.094 1.85
             M 55.094 -2.805
             L 55.921 -1.977
             L 55.094 -1.15
             M 2.709 7.343
             L -2.801 7.343
             L -2.801 1.453
             L 2.869 1.453
             L 2.869 7.343
             L 2.709 7.343
             M 0.199 9.703
             L 2.869 9.703
             L 2.869 15.593
             L -2.801 15.593
             L -2.801 9.703
             L 0.199 9.703
             M -5.174 15.372
             L -5.174 15.492
             L -5.309 15.543
             L -27.065 15.543
             L -27.2 15.492
             L -27.2 14.053
             L -27.065 14.003
             L -5.309 14.003
             L -5.174 14.053
             L -5.174 15.372
             M -5.339 18.043
             L -27.065 18.043
             L -27.2 17.992
             L -27.2 16.553
             L -27.065 16.503
             L -5.309 16.503
             L -5.174 16.553
             L -5.174 17.992
             L -5.309 18.043
             L -5.339 18.043
             M -27.035 19.003
             L -5.309 19.003
             L -5.174 19.053
             L -5.174 20.492
             L -5.309 20.543
             L -27.065 20.543
             L -27.2 20.492
             L -27.2 19.053
             L -27.065 19.003
             L -27.035 19.003
             M -29.798 19.173
             L -29.798 20.492
             L -29.933 20.543
             L -51.689 20.543
             L -51.824 20.492
             L -51.824 19.053
             L -51.689 19.003
             L -29.933 19.003
             L -29.798 19.053
             L -29.798 19.173
             M -29.904 16.513
             L -29.798 16.553
             L -29.798 17.992
             L -29.933 18.043
             L -51.689 18.043
             L -51.824 17.992
             L -51.824 16.553
             L -51.689 16.503
             L -29.933 16.503
             L -29.904 16.513
             M -29.904 14.013
             L -29.798 14.053
             L -29.798 15.492
             L -29.933 15.543
             L -51.689 15.543
             L -51.824 15.492
             L -51.824 14.053
             L -51.689 14.003
             L -29.933 14.003
             L -29.904 14.013
             M -29.904 11.513
             L -29.798 11.553
             L -29.798 12.992
             L -29.933 13.043
             L -51.689 13.043
             L -51.824 12.992
             L -51.824 11.553
             L -51.689 11.503
             L -29.933 11.503
             L -29.904 11.513
             M -29.904 9.013
             L -29.798 9.053
             L -29.798 10.492
             L -29.933 10.543
             L -51.689 10.543
             L -51.824 10.492
             L -51.824 9.053
             L -51.689 9.003
             L -29.933 9.003
             L -29.904 9.013
             M -29.904 6.513
             L -29.798 6.553
             L -29.798 7.992
             L -29.933 8.043
             L -51.689 8.043
             L -51.824 7.992
             L -51.824 6.553
             L -51.689 6.503
             L -29.933 6.503
             L -29.904 6.513
             M -29.904 4.013
             L -29.798 4.053
             L -29.798 5.492
             L -29.933 5.543
             L -51.689 5.543
             L -51.824 5.492
             L -51.824 4.053
             L -51.689 4.003
             L -29.933 4.003
             L -29.904 4.013
             M -29.904 1.513
             L -29.798 1.553
             L -29.798 2.992
             L -29.933 3.043
             L -51.689 3.043
             L -51.824 2.992
             L -51.824 1.553
             L -51.689 1.503
             L -29.933 1.503
             L -29.904 1.513
             M -29.904 -0.987
             L -29.798 -0.947
             L -29.798 0.492
             L -29.933 0.543
             L -51.689 0.543
             L -51.824 0.492
             L -51.824 -0.947
             L -51.689 -0.997
             L -29.933 -0.997
             L -29.904 -0.987
             M -29.798 -2.128
             L -29.798 -2.008
             L -29.933 -1.957
             L -51.689 -1.957
             L -51.824 -2.008
             L -51.824 -3.447
             L -51.689 -3.497
             L -29.933 -3.497
             L -29.798 -3.447
             L -29.798 -2.128
             M -27.2 -2.128
             L -27.2 -3.447
             L -27.065 -3.497
             L -5.309 -3.497
             L -5.174 -3.447
             L -5.174 -2.008
             L -5.309 -1.957
             L -27.065 -1.957
             L -27.2 -2.008
             L -27.2 -2.128
             M -27.094 0.532
             L -27.2 0.492
             L -27.2 -0.947
             L -27.065 -0.997
             L -5.309 -0.997
             L -5.174 -0.947
             L -5.174 0.492
             L -5.309 0.543
             L -27.065 0.543
             L -27.094 0.532
             M -27.094 3.032
             L -27.2 2.992
             L -27.2 1.553
             L -27.065 1.503
             L -5.309 1.503
             L -5.174 1.553
             L -5.174 2.992
             L -5.309 3.043
             L -27.065 3.043
             L -27.094 3.032
             M -27.094 5.532
             L -27.2 5.492
             L -27.2 4.053
             L -27.065 4.003
             L -5.309 4.003
             L -5.174 4.053
             L -5.174 5.492
             L -5.309 5.543
             L -27.065 5.543
             L -27.094 5.532
             M -27.094 8.032
             L -27.2 7.992
             L -27.2 6.553
             L -27.065 6.503
             L -5.309 6.503
             L -5.174 6.553
             L -5.174 7.992
             L -5.309 8.043
             L -27.065 8.043
             L -27.094 8.032
             M -27.094 10.532
             L -27.2 10.492
             L -27.2 9.053
             L -27.065 9.003
             L -5.309 9.003
             L -5.174 9.053
             L -5.174 10.492
             L -5.309 10.543
             L -27.065 10.543
             L -27.094 10.532
             M -27.2 11.673
             L -27.2 11.553
             L -27.065 11.503
             L -5.309 11.503
             L -5.174 11.553
             L -5.174 12.992
             L -5.309 13.043
             L -27.065 13.043
             L -27.2 12.992
             L -27.2 11.673
             M -52.144 23.603
             L -51.984 23.603
             L -51.984 27.005
             L -63.948 27.005
             L -63.948 23.603
             L -52.144 23.603
             M -69.846 8.293
             A 1.42 1.42 0 0 1 -71.017 9.924
             A 1.42 1.42 0 0 1 -72.648 8.752
             A 1.42 1.42 0 0 1 -71.476 7.121
             A 1.42 1.42 0 0 1 -69.846 8.293
             M -63.948 -6.717
             L -63.948 -9.959
             L -51.984 -9.959
             L -51.984 -6.557
             L -63.948 -6.557
             L -63.948 -6.717" fill="none" stroke="#0000d3" stroke-width="0.1"/>
</g>
<g id="opperation-2">
    <title>Perimeter (Op: 2/2)</title>
    <path d="M -74.827 -3.492
             L -74.827 20.538
             A 2.08 2.08 0 0 0 -74.218 22.008
             L -66.732 29.494
             A 2.08 2.08 0 0 0 -65.262 30.103
             L -50.67 30.103
             A 2.08 2.08 0 0 0 -49.2 29.494
             L -46.847 27.141
             A 0.08 0.08 0 0 0 -46.824 27.085
             L -46.824 23.603
             L 46.892 23.603
             L 46.892 27.085
             A 0.08 0.08 0 0 0 46.915 27.141
             L 49.268 29.494
             A 2.08 2.08 0 0 0 50.738 30.103
             L 65.33 30.103
             A 2.08 2.08 0 0 0 66.8 29.494
             L 74.286 22.008
             A 2.08 2.08 0 0 0 74.895 20.538
             L 74.895 -3.492
             A 2.08 2.08 0 0 0 74.286 -4.963
             L 66.8 -12.448
             A 2.08 2.08 0 0 0 65.33 -13.057
             L 50.738 -13.057
             A 2.08 2.08 0 0 0 49.268 -12.448
             L 46.915 -10.096
             A 0.08 0.08 0 0 0 46.892 -10.039
             L 46.892 -6.557
             L -46.824 -6.557
             L -46.824 -10.039
             A 0.08 0.08 0 0 0 -46.847 -10.096
             L -49.2 -12.448
             A 2.08 2.08 0 0 0 -50.67 -13.057
             L -65.262 -13.057
             A 2.08 2.08 0 0 0 -66.732 -12.448
             L -74.218 -4.963
             A 2.08 2.08 0 0 0 -74.827 -3.492" fill="none" stroke="#02abea" stroke-width="0.1"/>
</g>
</g>
</svg>
