<?xml version="1.0" encoding="UTF-8" standalone="no"?>
<svg xmlns="http://www.w3.org/2000/svg" width="155.6297149658203mm" height="127.81452178955078mm" viewBox="0 0 155.6297149658203 127.81452178955078">
<desc>Created with Glowforge for Fusion 360. To download visit: https://cam.autodesk.com/hsmposts?p=glowforge</desc>
<!-- CAM Setup Info:
Work Area Width: 155.6297149658203mm
Work Area Height: 127.81452178955078mm
Work Area Too Small?: false
Stock box Upper Right: 75.81485748291016,61.90726089477539
Stock box Lower Left: -75.81485748291016,-61.90726089477539
Origin: 0,0
Selected Colors: #0000d3, #02abea, #1fb714, #dd0907, #f20884, #fbf305
-->
<g id="global-translation-frame" transform="translate(77.815, 63.907) scale(1, -1)">
<g id="opperation-1">
    <title>Holes (Op: 1/2)</title>
    <path d="M -63.948 -54.647
             L -63.948 -57.889
             L -51.984 -57.889
             L -51.984 -54.487
             L -63.948 -54.487
             L -63.948 -54.647
             M -69.827 -39.407
             A 1.42 1.42 0 0 1 -71.247 -37.987
             A 1.42 1.42 0 0 1 -72.667 -39.407
             A 1.42 1.42 0 0 1 -71.247 -40.827
             A 1.42 1.42 0 0 1 -69.827 -39.407
             M -52.144 -24.327
             L -51.984 -24.327
             L -51.984 -20.925
             L -63.948 -20.925
             L -63.948 -24.327
             L -52.144 -24.327
             M -0.32 -34.537
             L -4.612 -34.537
             L -6.686 -36.612
             L -6.686 -42.203
             L -4.612 -44.277
             L 4.68 -44.277
             L 6.754 -42.203
             L 6.754 -36.612
             L 4.68 -34.537
             L -0.32 -34.537
             M 52.212 -24.327
             L 64.016 -24.327
             L 64.016 -20.925
             L 52.052 -20.925
             L 52.052 -24.327
             L 52.212 -24.327
             M 56.814 -50.907
             A 0.42 0.42 0 0 1 57.234 -51.327
             L 61.234 -51.327
             A 0.42 0.42 0 0 1 61.654 -50.907
             L 61.654 -44.064
             A 0.58 0.58 0 0 0 61.824 -43.654
             L 63.031 -42.447
             A 0.58 0.58 0 0 0 63.441 -42.277
             L 65.209 -42.277
             A 0.42 0.42 0 0 1 65.506 -42.154
             L 66.214 -41.447
             A 0.42 0.42 0 0 1 66.337 -41.15
             L 66.337 -37.664
             A 0.42 0.42 0 0 1 66.214 -37.367
             L 65.506 -36.66
             A 0.42 0.42 0 0 1 65.21 -36.537
             L 63.441 -36.537
             A 0.58 0.58 0 0 0 63.031 -36.367
             L 61.824 -35.16
             A 0.58 0.58 0 0 0 61.654 -34.75
             L 61.654 -27.907
             A 0.42 0.42 0 0 1 61.234 -27.487
             L 57.234 -27.487
             A 0.42 0.42 0 0 1 56.814 -27.907
             L 56.814 -50.907
             M 60.016 -54.487
             L 52.052 -54.487
             L 52.052 -57.889
             L 64.016 -57.889
             L 64.016 -54.487
             L 60.016 -54.487
             M 70.463 -40.544
             A 1.42 1.42 0 0 1 72.451 -40.259
             A 1.42 1.42 0 0 1 72.166 -38.271
             A 1.42 1.42 0 0 1 70.179 -38.556
             A 1.42 1.42 0 0 1 70.463 -40.544" fill="none" stroke="#0000d3" stroke-width="0.1"/>
</g>
<g id="opperation-2">
    <title>Perimeter (Op: 2/2)</title>
    <path d="M -49.2 -18.436
             L -46.847 -20.789
             A 0.08 0.08 0 0 0 -46.824 -20.845
             L -46.824 -24.327
             L 46.892 -24.327
             L 46.892 -20.845
             A 0.08 0.08 0 0 0 46.915 -20.789
             L 49.268 -18.436
             A 2.08 2.08 0 0 0 50.738 -17.827
             L 65.33 -17.827
             A 2.08 2.08 0 0 0 66.8 -18.436
             L 74.286 -25.922
             A 2.08 2.08 0 0 0 74.895 -27.392
             L 74.895 -51.422
             A 2.08 2.08 0 0 0 74.286 -52.893
             L 66.8 -60.378
             A 2.08 2.08 0 0 0 65.33 -60.987
             L 50.738 -60.987
             A 2.08 2.08 0 0 0 49.268 -60.378
             L 46.915 -58.026
             A 0.08 0.08 0 0 0 46.892 -57.969
             L 46.892 -54.487
             L -46.824 -54.487
             L -46.824 -57.969
             A 0.08 0.08 0 0 0 -46.847 -58.026
             L -49.2 -60.378
             A 2.08 2.08 0 0 0 -50.67 -60.987
             L -65.262 -60.987
             A 2.08 2.08 0 0 0 -66.732 -60.378
             L -74.218 -52.893
             A 2.08 2.08 0 0 0 -74.827 -51.422
             L -74.827 -27.392
             A 2.08 2.08 0 0 0 -74.218 -25.922
             L -66.732 -18.436
             A 2.08 2.08 0 0 0 -65.262 -17.827
             L -50.67 -17.827
             A 2.08 2.08 0 0 0 -49.2 -18.436" fill="none" stroke="#02abea" stroke-width="0.1"/>
</g>
</g>
</svg>
