<?xml version="1.0" encoding="UTF-8" standalone="no"?>
<svg xmlns="http://www.w3.org/2000/svg" width="194mm" height="264mm" viewBox="0 0 194 264">
<desc>Created with Glowforge for Fusion 360. To download visit: https://cam.autodesk.com/hsmposts?p=glowforge</desc>
<!-- CAM Setup Info:
Work Area Width: 194mm
Work Area Height: 264mm
Work Area Too Small?: false
Stock box Upper Right: 95,130
Stock box Lower Left: -95,-130
Origin: 0,0
Selected Colors: #0000d3, #02abea, #1fb714, #dd0907, #f20884, #fbf305
-->
<g id="global-translation-frame" transform="translate(97, 132) scale(1, 1)">
<g id="opperation-1">
    <title>Numerals (Op: 1/3)</title>
    <path d="M 4.21 102.475
             L 4.249 101.478
             L 4.326 100.494
             L 4.44 99.533
             L 4.589 98.603
             L 4.768 97.709
             L 4.976 96.856
             L 5.21 96.046
             L 5.467 95.281
             L 5.744 94.562
             L 6.039 93.888
             L 6.35 93.26
             L 6.631 92.752
             M 3.226 102.475
             L 3.256 101.717
             L 3.307 100.962
             L 3.379 100.212
             L 3.472 99.468
             L 3.585 98.733
             L 3.719 98.007
             L 3.873 97.293
             L 4.047 96.592
             L 4.241 95.906
             L 4.454 95.237
             L 4.687 94.587
             L 4.938 93.956
             L 5.207 93.347
             L 5.496 92.762
             L 5.802 92.201
             L 6.126 91.668
             M 7.274 91.764
             L 7.632 91.3
             L 8 90.879
             L 8.375 90.5
             L 8.758 90.162
             L 9.147 89.865
             L 9.542 89.609
             L 9.941 89.394
             L 10.343 89.218
             L 10.748 89.083
             L 11.155 88.987
             L 11.564 88.93
             L 11.973 88.913
             L 12.382 88.934
             L 12.789 88.995
             L 13.195 89.096
             L 13.599 89.235
             L 13.999 89.414
             L 14.395 89.632
             L 14.787 89.89
             L 15.172 90.187
             L 15.552 90.525
             L 15.923 90.904
             L 16.286 91.323
             L 16.639 91.783
             L 16.982 92.285
             L 17.313 92.828
             L 17.63 93.414
             L 17.932 94.043
             L 18.12 94.475
             M 6.797 90.742
             L 7.147 90.331
             L 7.51 89.946
             L 7.889 89.594
             L 8.283 89.276
             L 8.692 88.992
             L 9.112 88.744
             L 9.544 88.531
             L 9.984 88.353
             L 10.431 88.211
             L 10.884 88.104
             L 11.341 88.034
             L 11.799 87.999
             L 12.258 88.001
             L 12.716 88.04
             L 13.17 88.116
             L 13.62 88.229
             L 14.063 88.379
             L 14.498 88.566
             L 14.922 88.792
             L 15.131 88.918
             L 15.336 89.055
             L 15.735 89.356
             L 16.122 89.689
             L 16.495 90.053
             L 16.854 90.445
             L 17.2 90.864
             L 17.531 91.31
             L 17.847 91.781
             L 18.149 92.276
             L 18.435 92.794
             L 18.706 93.334
             L 18.96 93.895
             L 19.199 94.475
             M 19.553 95.475
             L 19.796 96.288
             L 20.007 97.126
             L 20.188 97.984
             L 20.339 98.859
             L 20.459 99.749
             L 20.55 100.651
             L 20.609 101.56
             L 20.639 102.475
             M 20.637 103.475
             L 20.611 104.236
             L 20.565 104.994
             L 20.498 105.748
             L 20.411 106.494
             L 20.303 107.233
             L 20.174 107.961
             L 20.025 108.677
             L 19.855 109.379
             L 19.666 110.066
             L 19.455 110.735
             L 19.225 111.384
             L 18.974 112.013
             L 18.703 112.618
             L 18.412 113.199
             L 18.101 113.754
             L 17.774 114.282
             M 19.69 103.475
             L 19.651 104.472
             L 19.574 105.456
             L 19.46 106.417
             L 19.311 107.348
             L 19.132 108.241
             L 18.924 109.094
             L 18.69 109.904
             L 18.433 110.669
             L 18.156 111.388
             L 17.861 112.062
             L 17.55 112.69
             L 17.269 113.198
             M 16.626 114.186
             L 16.268 114.65
             L 15.9 115.071
             L 15.525 115.45
             L 15.142 115.788
             L 14.753 116.085
             L 14.358 116.34
             L 13.959 116.556
             L 13.557 116.731
             L 13.152 116.867
             L 12.745 116.963
             L 12.336 117.02
             L 11.927 117.037
             L 11.518 117.016
             L 11.111 116.955
             L 10.705 116.855
             L 10.301 116.715
             L 9.901 116.536
             L 9.505 116.318
             L 9.113 116.06
             L 8.728 115.763
             L 8.348 115.425
             L 7.977 115.046
             L 7.614 114.627
             L 7.261 114.167
             L 6.918 113.665
             L 6.587 113.122
             L 6.27 112.536
             L 5.968 111.907
             L 5.78 111.475
             M 17.103 115.208
             L 16.828 115.529
             L 16.545 115.834
             L 16.255 116.121
             L 15.957 116.391
             L 15.653 116.643
             L 15.342 116.875
             L 15.025 117.088
             L 14.702 117.281
             L 14.374 117.454
             L 14.04 117.605
             L 13.702 117.735
             L 13.359 117.842
             L 13.012 117.927
             L 12.661 117.988
             L 12.307 118.025
             L 11.95 118.037
             L 11.666 118.03
             L 11.383 118.006
             L 11.102 117.967
             L 10.824 117.913
             L 10.547 117.844
             L 10.273 117.761
             L 10.002 117.664
             L 9.733 117.553
             L 9.468 117.428
             L 9.206 117.29
             L 8.948 117.139
             L 8.694 116.975
             L 8.444 116.799
             L 8.198 116.611
             L 7.957 116.41
             L 7.72 116.199
             L 7.489 115.976
             L 7.263 115.742
             L 7.042 115.498
             L 6.827 115.244
             L 6.618 114.979
             L 6.415 114.704
             L 6.218 114.42
             L 6.026 114.127
             L 5.841 113.824
             L 5.66 113.513
             L 5.486 113.193
             L 5.317 112.865
             L 4.998 112.185
             L 4.703 111.475
             M 4.345 110.475
             L 4.097 109.662
             L 3.878 108.825
             L 3.689 107.967
             L 3.53 107.091
             L 3.403 106.199
             L 3.31 105.297
             L 3.249 104.388
             L 3.221 103.475
             M 5.398 110.475
             L 5.152 109.714
             L 4.929 108.911
             L 4.73 108.067
             L 4.56 107.183
             L 4.419 106.263
             L 4.312 105.311
             L 4.241 104.335
             L 4.21 103.475
             M 18.502 95.475
             L 18.748 96.236
             L 18.971 97.039
             L 19.17 97.883
             L 19.34 98.767
             L 19.481 99.687
             L 19.588 100.639
             L 19.659 101.615
             L 19.69 102.475
             M 27.845 110.475
             L 27.597 109.662
             L 27.378 108.825
             L 27.189 107.967
             L 27.03 107.091
             L 26.904 106.199
             L 26.81 105.297
             L 26.749 104.388
             L 26.721 103.475
             M 26.726 102.475
             L 26.756 101.717
             L 26.807 100.962
             L 26.879 100.212
             L 26.972 99.468
             L 27.085 98.733
             L 27.219 98.007
             L 27.373 97.293
             L 27.548 96.592
             L 27.741 95.906
             L 27.954 95.237
             L 28.187 94.587
             L 28.438 93.956
             L 28.708 93.347
             L 28.996 92.762
             L 29.302 92.201
             L 29.626 91.668
             M 27.71 102.475
             L 27.749 101.478
             L 27.826 100.494
             L 27.94 99.533
             L 28.089 98.603
             L 28.268 97.709
             L 28.476 96.856
             L 28.71 96.046
             L 28.967 95.281
             L 29.244 94.562
             L 29.539 93.888
             L 29.85 93.26
             L 30.131 92.752
             M 30.774 91.764
             L 31.132 91.3
             L 31.5 90.879
             L 31.875 90.5
             L 32.258 90.162
             L 32.647 89.865
             L 33.042 89.609
             L 33.441 89.394
             L 33.843 89.218
             L 34.248 89.083
             L 34.655 88.987
             L 35.064 88.93
             L 35.473 88.913
             L 35.882 88.934
             L 36.289 88.995
             L 36.695 89.096
             L 37.099 89.235
             L 37.499 89.414
             L 37.896 89.632
             L 38.287 89.89
             L 38.673 90.187
             L 39.052 90.525
             L 39.423 90.904
             L 39.786 91.323
             L 40.139 91.783
             L 40.482 92.285
             L 40.813 92.828
             L 41.13 93.414
             L 41.432 94.043
             L 41.62 94.475
             M 30.297 90.742
             L 30.647 90.331
             L 31.01 89.946
             L 31.389 89.594
             L 31.783 89.276
             L 32.192 88.992
             L 32.612 88.744
             L 33.044 88.531
             L 33.484 88.353
             L 33.931 88.211
             L 34.384 88.104
             L 34.841 88.034
             L 35.299 87.999
             L 35.758 88.001
             L 36.216 88.04
             L 36.67 88.116
             L 37.12 88.229
             L 37.563 88.379
             L 37.998 88.566
             L 38.423 88.792
             L 38.631 88.918
             L 38.836 89.055
             L 39.235 89.356
             L 39.622 89.689
             L 39.995 90.053
             L 40.354 90.445
             L 40.7 90.864
             L 41.031 91.31
             L 41.347 91.781
             L 41.649 92.276
             L 41.935 92.794
             L 42.206 93.334
             L 42.46 93.895
             L 42.699 94.475
             M 43.053 95.475
             L 43.296 96.288
             L 43.507 97.126
             L 43.688 97.984
             L 43.839 98.859
             L 43.959 99.749
             L 44.05 100.651
             L 44.109 101.56
             L 44.139 102.475
             M 44.137 103.475
             L 44.111 104.236
             L 44.065 104.994
             L 43.998 105.748
             L 43.911 106.494
             L 43.803 107.233
             L 43.674 107.961
             L 43.525 108.677
             L 43.355 109.379
             L 43.166 110.066
             L 42.955 110.735
             L 42.725 111.384
             L 42.474 112.013
             L 42.203 112.618
             L 41.912 113.199
             L 41.601 113.754
             L 41.274 114.282
             M 43.19 103.475
             L 43.151 104.472
             L 43.074 105.456
             L 42.96 106.417
             L 42.811 107.348
             L 42.632 108.241
             L 42.424 109.094
             L 42.19 109.904
             L 41.933 110.669
             L 41.656 111.388
             L 41.361 112.062
             L 41.05 112.69
             L 40.769 113.198
             M 40.126 114.186
             L 39.768 114.65
             L 39.4 115.071
             L 39.025 115.45
             L 38.642 115.788
             L 38.253 116.085
             L 37.858 116.34
             L 37.459 116.556
             L 37.057 116.731
             L 36.652 116.867
             L 36.245 116.963
             L 35.836 117.02
             L 35.427 117.037
             L 35.018 117.016
             L 34.611 116.955
             L 34.205 116.855
             L 33.801 116.715
             L 33.401 116.536
             L 33.005 116.318
             L 32.613 116.06
             L 32.228 115.763
             L 31.848 115.425
             L 31.477 115.046
             L 31.114 114.627
             L 30.761 114.167
             L 30.418 113.665
             L 30.087 113.122
             L 29.77 112.536
             L 29.468 111.907
             L 29.28 111.475
             M 40.603 115.208
             L 40.328 115.529
             L 40.045 115.834
             L 39.755 116.121
             L 39.457 116.391
             L 39.153 116.643
             L 38.842 116.875
             L 38.525 117.088
             L 38.202 117.281
             L 37.874 117.454
             L 37.54 117.605
             L 37.202 117.735
             L 36.859 117.842
             L 36.512 117.927
             L 36.161 117.988
             L 35.807 118.025
             L 35.45 118.037
             L 35.166 118.03
             L 34.883 118.006
             L 34.602 117.967
             L 34.324 117.913
             L 34.047 117.844
             L 33.773 117.761
             L 33.502 117.664
             L 33.233 117.553
             L 32.968 117.428
             L 32.706 117.29
             L 32.448 117.139
             L 32.194 116.975
             L 31.944 116.799
             L 31.698 116.611
             L 31.457 116.41
             L 31.22 116.199
             L 30.989 115.976
             L 30.763 115.742
             L 30.542 115.498
             L 30.327 115.244
             L 30.118 114.979
             L 29.915 114.704
             L 29.718 114.42
             L 29.527 114.127
             L 29.341 113.824
             L 29.16 113.513
             L 28.986 113.193
             L 28.817 112.865
             L 28.498 112.185
             L 28.203 111.475
             M 28.898 110.475
             L 28.652 109.714
             L 28.429 108.911
             L 28.23 108.067
             L 28.06 107.183
             L 27.919 106.263
             L 27.812 105.311
             L 27.741 104.335
             L 27.71 103.475
             M 42.002 95.475
             L 42.248 96.236
             L 42.471 97.039
             L 42.67 97.883
             L 42.84 98.767
             L 42.981 99.687
             L 43.088 100.639
             L 43.159 101.615
             L 43.19 102.475
             M 51.345 110.475
             L 51.097 109.662
             L 50.878 108.825
             L 50.689 107.967
             L 50.53 107.091
             L 50.403 106.199
             L 50.31 105.297
             L 50.249 104.388
             L 50.221 103.475
             M 50.226 102.475
             L 50.256 101.717
             L 50.307 100.962
             L 50.379 100.212
             L 50.472 99.468
             L 50.585 98.733
             L 50.719 98.007
             L 50.873 97.293
             L 51.048 96.592
             L 51.241 95.906
             L 51.454 95.237
             L 51.687 94.587
             L 51.938 93.956
             L 52.208 93.347
             L 52.496 92.762
             L 52.802 92.201
             L 53.126 91.668
             M 51.21 102.475
             L 51.249 101.478
             L 51.326 100.494
             L 51.44 99.533
             L 51.589 98.603
             L 51.768 97.709
             L 51.976 96.856
             L 52.21 96.046
             L 52.467 95.281
             L 52.744 94.562
             L 53.039 93.888
             L 53.35 93.26
             L 53.631 92.752
             M 54.274 91.764
             L 54.632 91.3
             L 55 90.879
             L 55.375 90.5
             L 55.758 90.162
             L 56.147 89.865
             L 56.542 89.609
             L 56.941 89.394
             L 57.343 89.218
             L 57.748 89.083
             L 58.155 88.987
             L 58.564 88.93
             L 58.973 88.913
             L 59.382 88.934
             L 59.789 88.995
             L 60.195 89.096
             L 60.599 89.235
             L 60.999 89.414
             L 61.396 89.632
             L 61.787 89.89
             L 62.173 90.187
             L 62.552 90.525
             L 62.923 90.904
             L 63.286 91.323
             L 63.639 91.783
             L 63.982 92.285
             L 64.313 92.828
             L 64.63 93.414
             L 64.933 94.043
             L 65.12 94.475
             M 53.797 90.742
             L 54.147 90.331
             L 54.51 89.946
             L 54.889 89.594
             L 55.283 89.276
             L 55.692 88.992
             L 56.112 88.744
             L 56.544 88.531
             L 56.984 88.353
             L 57.431 88.211
             L 57.884 88.104
             L 58.341 88.034
             L 58.799 87.999
             L 59.258 88.001
             L 59.716 88.04
             L 60.17 88.116
             L 60.62 88.229
             L 61.063 88.379
             L 61.498 88.566
             L 61.923 88.792
             L 62.131 88.918
             L 62.336 89.055
             L 62.735 89.356
             L 63.122 89.689
             L 63.495 90.053
             L 63.854 90.445
             L 64.2 90.864
             L 64.531 91.31
             L 64.847 91.781
             L 65.149 92.276
             L 65.435 92.794
             L 65.706 93.334
             L 65.96 93.895
             L 66.199 94.475
             M 66.553 95.475
             L 66.796 96.288
             L 67.007 97.126
             L 67.188 97.984
             L 67.339 98.859
             L 67.459 99.749
             L 67.55 100.651
             L 67.609 101.56
             L 67.639 102.475
             M 67.637 103.475
             L 67.611 104.236
             L 67.565 104.994
             L 67.498 105.748
             L 67.411 106.494
             L 67.303 107.233
             L 67.174 107.961
             L 67.025 108.677
             L 66.855 109.379
             L 66.666 110.066
             L 66.455 110.735
             L 66.225 111.384
             L 65.974 112.013
             L 65.703 112.618
             L 65.412 113.199
             L 65.101 113.754
             L 64.774 114.282
             M 66.69 103.475
             L 66.651 104.472
             L 66.574 105.456
             L 66.46 106.417
             L 66.311 107.348
             L 66.132 108.241
             L 65.924 109.094
             L 65.69 109.904
             L 65.433 110.669
             L 65.156 111.388
             L 64.861 112.062
             L 64.55 112.69
             L 64.269 113.198
             M 63.626 114.186
             L 63.268 114.65
             L 62.9 115.071
             L 62.525 115.45
             L 62.142 115.788
             L 61.753 116.085
             L 61.358 116.34
             L 60.959 116.556
             L 60.557 116.731
             L 60.152 116.867
             L 59.745 116.963
             L 59.336 117.02
             L 58.927 117.037
             L 58.518 117.016
             L 58.111 116.955
             L 57.705 116.855
             L 57.301 116.715
             L 56.901 116.536
             L 56.505 116.318
             L 56.113 116.06
             L 55.728 115.763
             L 55.348 115.425
             L 54.977 115.046
             L 54.614 114.627
             L 54.261 114.167
             L 53.918 113.665
             L 53.587 113.122
             L 53.27 112.536
             L 52.968 111.907
             L 52.78 111.475
             M 64.103 115.208
             L 63.828 115.529
             L 63.545 115.834
             L 63.255 116.121
             L 62.957 116.391
             L 62.653 116.643
             L 62.342 116.875
             L 62.025 117.088
             L 61.702 117.281
             L 61.374 117.454
             L 61.04 117.605
             L 60.702 117.735
             L 60.359 117.842
             L 60.012 117.927
             L 59.661 117.988
             L 59.307 118.025
             L 58.95 118.037
             L 58.666 118.03
             L 58.383 118.006
             L 58.102 117.967
             L 57.824 117.913
             L 57.547 117.844
             L 57.273 117.761
             L 57.002 117.664
             L 56.733 117.553
             L 56.468 117.428
             L 56.206 117.29
             L 55.948 117.139
             L 55.694 116.975
             L 55.444 116.799
             L 55.198 116.611
             L 54.957 116.41
             L 54.72 116.199
             L 54.489 115.976
             L 54.263 115.742
             L 54.042 115.498
             L 53.827 115.244
             L 53.618 114.979
             L 53.415 114.704
             L 53.218 114.42
             L 53.027 114.127
             L 52.84 113.824
             L 52.66 113.513
             L 52.486 113.193
             L 52.317 112.865
             L 51.998 112.185
             L 51.703 111.475
             M 52.398 110.475
             L 52.152 109.714
             L 51.929 108.911
             L 51.73 108.067
             L 51.56 107.183
             L 51.419 106.263
             L 51.312 105.311
             L 51.241 104.335
             L 51.21 103.475
             M 65.502 95.475
             L 65.748 96.236
             L 65.971 97.039
             L 66.17 97.883
             L 66.34 98.767
             L 66.481 99.687
             L 66.588 100.639
             L 66.659 101.615
             L 66.69 102.475
             M 74.845 110.475
             L 74.597 109.662
             L 74.378 108.825
             L 74.189 107.967
             L 74.03 107.091
             L 73.904 106.199
             L 73.81 105.297
             L 73.749 104.388
             L 73.721 103.475
             M 73.726 102.475
             L 73.756 101.717
             L 73.807 100.962
             L 73.879 100.212
             L 73.972 99.468
             L 74.085 98.733
             L 74.219 98.007
             L 74.373 97.293
             L 74.548 96.592
             L 74.741 95.906
             L 74.954 95.237
             L 75.187 94.587
             L 75.438 93.956
             L 75.708 93.347
             L 75.996 92.762
             L 76.302 92.201
             L 76.626 91.668
             M 74.71 102.475
             L 74.749 101.478
             L 74.826 100.494
             L 74.94 99.533
             L 75.089 98.603
             L 75.268 97.709
             L 75.476 96.856
             L 75.71 96.046
             L 75.967 95.281
             L 76.244 94.562
             L 76.539 93.888
             L 76.85 93.26
             L 77.131 92.752
             M 77.774 91.764
             L 78.132 91.3
             L 78.5 90.879
             L 78.875 90.5
             L 79.258 90.162
             L 79.647 89.865
             L 80.042 89.609
             L 80.441 89.394
             L 80.843 89.218
             L 81.248 89.083
             L 81.655 88.987
             L 82.064 88.93
             L 82.473 88.913
             L 82.882 88.934
             L 83.289 88.995
             L 83.695 89.096
             L 84.099 89.235
             L 84.499 89.414
             L 84.896 89.632
             L 85.287 89.89
             L 85.673 90.187
             L 86.052 90.525
             L 86.423 90.904
             L 86.786 91.323
             L 87.139 91.783
             L 87.482 92.285
             L 87.813 92.828
             L 88.13 93.414
             L 88.433 94.043
             L 88.62 94.475
             M 77.297 90.742
             L 77.647 90.331
             L 78.01 89.946
             L 78.389 89.594
             L 78.783 89.276
             L 79.192 88.992
             L 79.612 88.744
             L 80.044 88.531
             L 80.484 88.353
             L 80.931 88.211
             L 81.384 88.104
             L 81.841 88.034
             L 82.299 87.999
             L 82.758 88.001
             L 83.216 88.04
             L 83.67 88.116
             L 84.12 88.229
             L 84.563 88.379
             L 84.998 88.566
             L 85.423 88.792
             L 85.631 88.918
             L 85.836 89.055
             L 86.235 89.356
             L 86.622 89.689
             L 86.995 90.053
             L 87.354 90.445
             L 87.7 90.864
             L 88.031 91.31
             L 88.347 91.781
             L 88.649 92.276
             L 88.935 92.794
             L 89.206 93.334
             L 89.46 93.895
             L 89.699 94.475
             M 90.053 95.475
             L 90.296 96.288
             L 90.507 97.126
             L 90.688 97.984
             L 90.839 98.859
             L 90.959 99.749
             L 91.05 100.651
             L 91.109 101.56
             L 91.139 102.475
             M 91.137 103.475
             L 91.111 104.236
             L 91.065 104.994
             L 90.998 105.748
             L 90.911 106.494
             L 90.803 107.233
             L 90.674 107.961
             L 90.525 108.677
             L 90.355 109.379
             L 90.166 110.066
             L 89.955 110.735
             L 89.725 111.384
             L 89.474 112.013
             L 89.203 112.618
             L 88.912 113.199
             L 88.601 113.754
             L 88.274 114.282
             M 90.19 103.475
             L 90.151 104.472
             L 90.074 105.456
             L 89.96 106.417
             L 89.811 107.348
             L 89.632 108.241
             L 89.424 109.094
             L 89.19 109.904
             L 88.933 110.669
             L 88.656 111.388
             L 88.361 112.062
             L 88.05 112.69
             L 87.769 113.198
             M 87.126 114.186
             L 86.768 114.65
             L 86.4 115.071
             L 86.025 115.45
             L 85.642 115.788
             L 85.253 116.085
             L 84.858 116.34
             L 84.459 116.556
             L 84.057 116.731
             L 83.652 116.867
             L 83.245 116.963
             L 82.836 117.02
             L 82.427 117.037
             L 82.018 117.016
             L 81.611 116.955
             L 81.205 116.855
             L 80.801 116.715
             L 80.401 116.536
             L 80.005 116.318
             L 79.613 116.06
             L 79.228 115.763
             L 78.848 115.425
             L 78.477 115.046
             L 78.114 114.627
             L 77.761 114.167
             L 77.418 113.665
             L 77.087 113.122
             L 76.77 112.536
             L 76.467 111.907
             L 76.28 111.475
             M 87.603 115.208
             L 87.328 115.529
             L 87.045 115.834
             L 86.755 116.121
             L 86.457 116.391
             L 86.153 116.643
             L 85.842 116.875
             L 85.525 117.088
             L 85.202 117.281
             L 84.874 117.454
             L 84.54 117.605
             L 84.202 117.735
             L 83.859 117.842
             L 83.512 117.927
             L 83.161 117.988
             L 82.807 118.025
             L 82.45 118.037
             L 82.166 118.03
             L 81.883 118.006
             L 81.602 117.967
             L 81.324 117.913
             L 81.047 117.844
             L 80.773 117.761
             L 80.502 117.664
             L 80.233 117.553
             L 79.968 117.428
             L 79.706 117.29
             L 79.448 117.139
             L 79.194 116.975
             L 78.944 116.799
             L 78.698 116.611
             L 78.457 116.41
             L 78.22 116.199
             L 77.989 115.976
             L 77.763 115.742
             L 77.542 115.498
             L 77.327 115.244
             L 77.118 114.979
             L 76.915 114.704
             L 76.718 114.42
             L 76.527 114.127
             L 76.34 113.824
             L 76.16 113.513
             L 75.986 113.193
             L 75.817 112.865
             L 75.498 112.185
             L 75.203 111.475
             M 75.898 110.475
             L 75.652 109.714
             L 75.429 108.911
             L 75.23 108.067
             L 75.06 107.183
             L 74.919 106.263
             L 74.812 105.311
             L 74.741 104.335
             L 74.71 103.475
             M 89.002 95.475
             L 89.248 96.236
             L 89.471 97.039
             L 89.67 97.883
             L 89.84 98.767
             L 89.981 99.687
             L 90.088 100.639
             L 90.159 101.615
             L 90.19 102.475" fill="none" stroke="#0000d3" stroke-width="0.1"/>
</g>
<g id="opperation-2">
    <title>Breakaways (Op: 2/3)</title>
    <path d="M 70.5 81.5
             L 70.5 80.2
             M 47 81.5
             L 47 80.2
             M 23.5 81.5
             L 23.5 80.2" fill="none" stroke="#02abea" stroke-width="0.1"/>
</g>
<g id="opperation-3">
    <title>Perimeter (Op: 3/3)</title>
    <path d="M 47 78.886
             L 0 78.886
             A 0.114 0.114 0 0 0 -0.114 79
             L -0.114 81.5
             A 0.114 0.114 0 0 0 0 81.614
             L 0.514 81.614
             A 0.036 0.036 0 0 1 0.549 81.649
             L 0.636 85.001
             L 0.636 123.929
             A 2.114 2.114 0 0 0 1.255 125.424
             L 4.326 128.495
             A 2.114 2.114 0 0 0 5.821 129.114
             L 7.25 129.114
             A 1.614 1.614 0 0 0 8.858 127.651
             L 8.858 127.65
             A 0.386 0.386 0 0 1 8.926 127.465
             A 0.614 0.614 0 0 0 9.037 127.113
             L 9.038 126.506
             A 0.614 0.614 0 0 0 8.928 126.154
             A 0.386 0.386 0 0 1 8.859 125.933
             L 8.864 123.199
             A 0.186 0.186 0 0 1 9.049 123.014
             L 14.45 123.014
             A 0.186 0.186 0 0 1 14.636 123.199
             L 14.641 125.933
             A 0.386 0.386 0 0 1 14.572 126.154
             A 0.614 0.614 0 0 0 14.462 126.506
             L 14.463 127.135
             A 0.614 0.614 0 0 0 14.574 127.487
             A 0.386 0.386 0 0 1 14.642 127.668
             A 1.614 1.614 0 0 0 16.247 129.114
             L 17.679 129.114
             A 2.114 2.114 0 0 0 19.174 128.495
             L 22.245 125.424
             A 2.114 2.114 0 0 0 22.864 123.929
             L 22.864 85.001
             L 22.95 81.649
             A 0.036 0.036 0 0 1 22.986 81.614
             L 23.5 81.614
             L 24.014 81.614
             A 0.036 0.036 0 0 1 24.05 81.649
             L 24.136 85.001
             L 24.136 123.929
             A 2.114 2.114 0 0 0 24.755 125.424
             L 27.826 128.495
             A 2.114 2.114 0 0 0 29.321 129.114
             L 30.75 129.114
             A 1.614 1.614 0 0 0 32.358 127.651
             L 32.358 127.65
             A 0.386 0.386 0 0 1 32.426 127.465
             A 0.614 0.614 0 0 0 32.537 127.113
             L 32.538 126.506
             A 0.614 0.614 0 0 0 32.428 126.154
             A 0.386 0.386 0 0 1 32.359 125.933
             L 32.364 123.199
             A 0.186 0.186 0 0 1 32.549 123.014
             L 37.951 123.014
             A 0.186 0.186 0 0 1 38.136 123.199
             L 38.141 125.933
             A 0.386 0.386 0 0 1 38.072 126.154
             A 0.614 0.614 0 0 0 37.962 126.506
             L 37.963 127.135
             A 0.614 0.614 0 0 0 38.074 127.487
             A 0.386 0.386 0 0 1 38.142 127.668
             A 1.614 1.614 0 0 0 39.747 129.114
             L 41.179 129.114
             A 2.114 2.114 0 0 0 42.674 128.495
             L 45.745 125.424
             A 2.114 2.114 0 0 0 46.364 123.929
             L 46.364 85.001
             L 46.45 81.649
             A 0.036 0.036 0 0 1 46.486 81.614
             L 47 81.614
             L 47.514 81.614
             A 0.036 0.036 0 0 1 47.55 81.649
             L 47.636 85.001
             L 47.636 123.929
             A 2.114 2.114 0 0 0 48.255 125.424
             L 51.326 128.495
             A 2.114 2.114 0 0 0 52.821 129.114
             L 54.25 129.114
             A 1.614 1.614 0 0 0 55.858 127.651
             L 55.858 127.65
             A 0.386 0.386 0 0 1 55.926 127.465
             A 0.614 0.614 0 0 0 56.037 127.113
             L 56.038 126.506
             A 0.614 0.614 0 0 0 55.928 126.154
             A 0.386 0.386 0 0 1 55.859 125.933
             L 55.864 123.199
             A 0.186 0.186 0 0 1 56.049 123.014
             L 61.451 123.014
             A 0.186 0.186 0 0 1 61.636 123.199
             L 61.641 125.933
             A 0.386 0.386 0 0 1 61.572 126.154
             A 0.614 0.614 0 0 0 61.462 126.506
             L 61.463 127.135
             A 0.614 0.614 0 0 0 61.574 127.487
             A 0.386 0.386 0 0 1 61.642 127.668
             A 1.614 1.614 0 0 0 63.247 129.114
             L 64.679 129.114
             A 2.114 2.114 0 0 0 66.174 128.495
             L 69.245 125.424
             A 2.114 2.114 0 0 0 69.864 123.929
             L 69.864 85.001
             L 69.95 81.649
             A 0.036 0.036 0 0 1 69.986 81.614
             L 70.5 81.614
             L 71.014 81.614
             A 0.036 0.036 0 0 1 71.05 81.649
             L 71.136 85.001
             L 71.136 123.929
             A 2.114 2.114 0 0 0 71.755 125.424
             L 74.826 128.495
             A 2.114 2.114 0 0 0 76.321 129.114
             L 77.75 129.114
             A 1.614 1.614 0 0 0 79.358 127.651
             L 79.358 127.65
             A 0.386 0.386 0 0 1 79.426 127.465
             A 0.614 0.614 0 0 0 79.537 127.113
             L 79.538 126.506
             A 0.614 0.614 0 0 0 79.428 126.154
             A 0.386 0.386 0 0 1 79.359 125.933
             L 79.364 123.199
             A 0.186 0.186 0 0 1 79.549 123.014
             L 84.951 123.014
             A 0.186 0.186 0 0 1 85.136 123.199
             L 85.141 125.933
             A 0.386 0.386 0 0 1 85.072 126.154
             A 0.614 0.614 0 0 0 84.962 126.506
             L 84.963 127.135
             A 0.614 0.614 0 0 0 85.074 127.487
             A 0.386 0.386 0 0 1 85.142 127.668
             A 1.614 1.614 0 0 0 86.747 129.114
             L 88.179 129.114
             A 2.114 2.114 0 0 0 89.674 128.495
             L 92.745 125.424
             A 2.114 2.114 0 0 0 93.364 123.929
             L 93.364 85.001
             L 93.45 81.649
             A 0.036 0.036 0 0 1 93.486 81.614
             L 94 81.614
             A 0.114 0.114 0 0 0 94.114 81.5
             L 94.114 79
             A 0.114 0.114 0 0 0 94 78.886
             L 47 78.886" fill="none" stroke="#1fb714" stroke-width="0.1"/>
</g>
</g>
</svg>
