<?xml version="1.0" encoding="UTF-8" standalone="no"?>
<svg xmlns="http://www.w3.org/2000/svg" width="194mm" height="264mm" viewBox="0 0 194 264">
<desc>Created with Glowforge for Fusion 360. To download visit: https://cam.autodesk.com/hsmposts?p=glowforge</desc>
<!-- CAM Setup Info:
Work Area Width: 194mm
Work Area Height: 264mm
Work Area Too Small?: false
Stock box Upper Right: 95,130
Stock box Lower Left: -95,-130
Origin: 0,0
Selected Colors: #0000d3, #02abea, #1fb714, #dd0907, #f20884, #fbf305
-->
<g id="global-translation-frame" transform="translate(97, 132) scale(1, 1)">
<g id="opperation-1">
    <title>Numerals (Op: 1/3)</title>
    <path d="M 12.45 62.225
             L 12.45 68.95
             M 11.45 68.95
             L 11.45 62.225
             M 11.45 61.225
             L 11.45 46.225
             M 12.45 46.225
             L 12.45 61.225
             M 11.45 45.225
             L 11.45 38.343
             L 16.193 43.085
             M 15.463 43.773
             L 12.45 40.771
             L 12.45 45.225
             M 34.95 45.225
             L 34.95 38.343
             L 39.703 43.093
             M 38.986 43.792
             L 35.95 40.757
             L 35.95 45.225
             M 35.95 46.225
             L 35.95 61.225
             M 34.95 61.225
             L 34.95 46.225
             M 35.95 62.225
             L 35.95 68.95
             M 34.95 68.95
             L 34.95 62.225
             M 58.45 45.225
             L 58.45 38.343
             L 63.199 43.091
             M 62.486 43.793
             L 59.45 40.757
             L 59.45 45.225
             M 59.45 46.225
             L 59.45 61.225
             M 58.45 61.225
             L 58.45 46.225
             M 59.45 62.225
             L 59.45 68.95
             M 58.45 68.95
             L 58.45 62.225
             M 81.95 45.225
             L 81.95 38.343
             L 86.711 43.091
             M 85.99 43.791
             L 82.95 40.759
             L 82.95 45.225
             M 82.95 46.225
             L 82.95 61.225
             M 81.95 61.225
             L 81.95 46.225
             M 82.95 62.225
             L 82.95 68.95
             M 81.95 68.95
             L 81.95 62.225" fill="none" stroke="#0000d3" stroke-width="0.1"/>
</g>
<g id="opperation-2">
    <title>Breakaways (Op: 2/3)</title>
    <path d="M 70.5 76.5
             L 70.5 77.8
             M 47 76.5
             L 47 77.8
             M 23.5 76.5
             L 23.5 77.8" fill="none" stroke="#02abea" stroke-width="0.1"/>
</g>
<g id="opperation-3">
    <title>Perimeter (Op: 3/3)</title>
    <path d="M 93.364 34.071
             A 2.114 2.114 0 0 0 92.745 32.576
             L 89.674 29.505
             A 2.114 2.114 0 0 0 88.179 28.886
             L 86.75 28.886
             A 1.614 1.614 0 0 0 85.142 30.35
             A 0.386 0.386 0 0 1 85.074 30.535
             A 0.614 0.614 0 0 0 84.963 30.887
             L 84.962 31.494
             A 0.614 0.614 0 0 0 85.072 31.846
             A 0.386 0.386 0 0 1 85.141 32.067
             L 85.136 34.8
             A 0.186 0.186 0 0 1 84.951 34.986
             L 79.549 34.986
             A 0.186 0.186 0 0 1 79.364 34.8
             L 79.359 32.067
             A 0.386 0.386 0 0 1 79.428 31.846
             A 0.614 0.614 0 0 0 79.538 31.494
             L 79.537 30.865
             A 0.614 0.614 0 0 0 79.426 30.513
             A 0.386 0.386 0 0 1 79.358 30.332
             A 1.614 1.614 0 0 0 77.753 28.886
             L 76.321 28.886
             A 2.114 2.114 0 0 0 74.826 29.505
             L 71.755 32.576
             A 2.114 2.114 0 0 0 71.136 34.071
             L 71.136 72.999
             L 71.05 76.351
             A 0.036 0.036 0 0 1 71.014 76.386
             L 70.5 76.386
             L 69.986 76.386
             A 0.036 0.036 0 0 1 69.95 76.351
             L 69.864 72.999
             L 69.864 34.071
             A 2.114 2.114 0 0 0 69.245 32.576
             L 66.174 29.505
             A 2.114 2.114 0 0 0 64.679 28.886
             L 63.25 28.886
             A 1.614 1.614 0 0 0 61.642 30.35
             A 0.386 0.386 0 0 1 61.574 30.535
             A 0.614 0.614 0 0 0 61.463 30.887
             L 61.462 31.494
             A 0.614 0.614 0 0 0 61.572 31.846
             A 0.386 0.386 0 0 1 61.641 32.067
             L 61.636 34.8
             A 0.186 0.186 0 0 1 61.451 34.986
             L 56.049 34.986
             A 0.186 0.186 0 0 1 55.864 34.8
             L 55.859 32.067
             A 0.386 0.386 0 0 1 55.928 31.846
             A 0.614 0.614 0 0 0 56.038 31.494
             L 56.037 30.865
             A 0.614 0.614 0 0 0 55.926 30.513
             A 0.386 0.386 0 0 1 55.858 30.332
             A 1.614 1.614 0 0 0 54.253 28.886
             L 52.821 28.886
             A 2.114 2.114 0 0 0 51.326 29.505
             L 48.255 32.576
             A 2.114 2.114 0 0 0 47.636 34.071
             L 47.636 72.999
             L 47.55 76.351
             A 0.036 0.036 0 0 1 47.514 76.386
             L 47 76.386
             L 46.486 76.386
             A 0.036 0.036 0 0 1 46.45 76.351
             L 46.364 72.999
             L 46.364 34.071
             A 2.114 2.114 0 0 0 45.745 32.576
             L 42.674 29.505
             A 2.114 2.114 0 0 0 41.179 28.886
             L 39.75 28.886
             A 1.614 1.614 0 0 0 38.142 30.35
             A 0.386 0.386 0 0 1 38.074 30.535
             A 0.614 0.614 0 0 0 37.963 30.887
             L 37.962 31.494
             A 0.614 0.614 0 0 0 38.072 31.846
             A 0.386 0.386 0 0 1 38.141 32.067
             L 38.136 34.8
             A 0.186 0.186 0 0 1 37.951 34.986
             L 32.549 34.986
             A 0.186 0.186 0 0 1 32.364 34.8
             L 32.359 32.067
             A 0.386 0.386 0 0 1 32.428 31.846
             A 0.614 0.614 0 0 0 32.538 31.494
             L 32.537 30.865
             A 0.614 0.614 0 0 0 32.426 30.513
             A 0.386 0.386 0 0 1 32.358 30.332
             A 1.614 1.614 0 0 0 30.753 28.886
             L 29.321 28.886
             A 2.114 2.114 0 0 0 27.826 29.505
             L 24.755 32.576
             A 2.114 2.114 0 0 0 24.136 34.071
             L 24.136 72.999
             L 24.05 76.351
             A 0.036 0.036 0 0 1 24.014 76.386
             L 23.5 76.386
             L 22.986 76.386
             A 0.036 0.036 0 0 1 22.95 76.351
             L 22.864 72.999
             L 22.864 34.071
             A 2.114 2.114 0 0 0 22.245 32.576
             L 19.174 29.505
             A 2.114 2.114 0 0 0 17.679 28.886
             L 16.25 28.886
             A 1.614 1.614 0 0 0 14.642 30.35
             A 0.386 0.386 0 0 1 14.574 30.535
             A 0.614 0.614 0 0 0 14.463 30.887
             L 14.462 31.494
             A 0.614 0.614 0 0 0 14.572 31.846
             A 0.386 0.386 0 0 1 14.641 32.067
             L 14.636 34.8
             A 0.186 0.186 0 0 1 14.451 34.986
             L 9.049 34.986
             A 0.186 0.186 0 0 1 8.864 34.8
             L 8.859 32.067
             A 0.386 0.386 0 0 1 8.928 31.846
             A 0.614 0.614 0 0 0 9.038 31.494
             L 9.037 30.865
             A 0.614 0.614 0 0 0 8.926 30.513
             A 0.386 0.386 0 0 1 8.858 30.332
             A 1.614 1.614 0 0 0 7.252 28.886
             L 5.821 28.886
             A 2.114 2.114 0 0 0 4.326 29.505
             L 1.255 32.576
             A 2.114 2.114 0 0 0 0.636 34.071
             L 0.636 72.999
             L 0.549 76.351
             A 0.036 0.036 0 0 1 0.514 76.386
             L 0 76.386
             A 0.114 0.114 0 0 0 -0.114 76.5
             L -0.114 79
             A 0.114 0.114 0 0 0 0 79.114
             L 94 79.114
             A 0.114 0.114 0 0 0 94.114 79
             L 94.114 76.5
             A 0.114 0.114 0 0 0 94 76.386
             L 93.486 76.386
             A 0.036 0.036 0 0 1 93.45 76.351
             L 93.364 72.999
             L 93.364 34.071" fill="none" stroke="#1fb714" stroke-width="0.1"/>
</g>
</g>
</svg>
