<?xml version="1.0" encoding="UTF-8" standalone="no"?>
<svg xmlns="http://www.w3.org/2000/svg" width="194mm" height="264mm" viewBox="0 0 194 264">
<desc>Created with Glowforge for Fusion 360. To download visit: https://cam.autodesk.com/hsmposts?p=glowforge</desc>
<!-- CAM Setup Info:
Work Area Width: 194mm
Work Area Height: 264mm
Work Area Too Small?: false
Stock box Upper Right: 95,130
Stock box Lower Left: -95,-130
Origin: 0,0
Selected Colors: #0000d3, #02abea, #1fb714, #dd0907, #f20884, #fbf305
-->
<g id="global-translation-frame" transform="translate(97, 132) scale(1, 1)">
<g id="opperation-1">
    <title>Numerals (Op: 1/3)</title>
    <path d="M 81.95 15.035
             A 8.48 8.48 0 0 1 73.97 6.547
             M 74.97 6.55
             A 7.48 7.48 0 0 0 81.95 14.033
             M 82.95 14.033
             A 7.48 7.48 0 0 0 89.875 7.475
             M 90.882 7.475
             A 8.48 8.48 0 0 1 82.95 15.035
             M 89.929 6.475
             A 7.48 7.48 0 0 0 88.34 1.959
             L 86.395 -0.525
             M 87.665 -0.525
             L 89.127 1.342
             A 8.48 8.48 0 0 1 90.929 6.475
             M 85.612 -1.525
             L 80.131 -8.525
             M 81.401 -8.525
             L 86.882 -1.525
             M 79.348 -9.525
             L 74.2 -16.1
             L 81.95 -16.1
             M 81.95 -15.1
             L 76.253 -15.1
             L 80.618 -9.525
             M 82.95 -16.1
             L 90.7 -16.1
             M 90.7 -15.1
             L 82.95 -15.1
             M 67.2 -15.1
             L 59.45 -15.1
             M 59.45 -16.1
             L 67.2 -16.1
             M 58.45 -15.1
             L 52.753 -15.1
             L 57.118 -9.525
             M 55.848 -9.525
             L 50.7 -16.1
             L 58.45 -16.1
             M 57.901 -8.525
             L 63.382 -1.525
             M 62.112 -1.525
             L 56.631 -8.525
             M 64.165 -0.525
             L 65.627 1.342
             A 8.48 8.48 0 0 1 67.429 6.475
             M 66.429 6.475
             A 7.48 7.48 0 0 0 64.84 1.959
             L 62.895 -0.525
             M 67.382 7.475
             A 8.48 8.48 0 0 1 59.45 15.035
             M 59.45 14.033
             A 7.48 7.48 0 0 0 66.375 7.475
             M 58.45 15.035
             A 8.48 8.48 0 0 1 50.47 6.547
             M 51.47 6.55
             A 7.48 7.48 0 0 0 58.45 14.033
             M 42.929 6.475
             A 7.48 7.48 0 0 0 41.34 1.959
             L 39.395 -0.525
             M 40.665 -0.525
             L 42.127 1.342
             A 8.48 8.48 0 0 1 43.93 6.475
             M 43.882 7.475
             A 8.48 8.48 0 0 1 35.95 15.035
             M 35.95 14.033
             A 7.48 7.48 0 0 0 42.875 7.475
             M 34.95 15.035
             A 8.48 8.48 0 0 1 26.97 6.547
             M 27.97 6.55
             A 7.48 7.48 0 0 0 34.95 14.033
             M 19.429 6.475
             A 7.48 7.48 0 0 0 17.84 1.959
             L 15.895 -0.525
             M 17.165 -0.525
             L 18.627 1.342
             A 8.48 8.48 0 0 1 20.429 6.475
             M 20.382 7.475
             A 8.48 8.48 0 0 1 12.45 15.035
             M 12.45 14.033
             A 7.48 7.48 0 0 0 19.375 7.475
             M 11.45 15.035
             A 8.48 8.48 0 0 1 3.47 6.547
             M 4.47 6.55
             A 7.48 7.48 0 0 0 11.45 14.033
             M 15.112 -1.525
             L 9.631 -8.525
             M 10.901 -8.525
             L 16.382 -1.525
             M 8.848 -9.525
             L 3.7 -16.1
             L 11.45 -16.1
             M 11.45 -15.1
             L 5.753 -15.1
             L 10.118 -9.525
             M 12.45 -16.1
             L 20.2 -16.1
             M 20.2 -15.1
             L 12.45 -15.1
             M 32.348 -9.525
             L 27.2 -16.1
             L 34.95 -16.1
             M 34.95 -15.1
             L 29.253 -15.1
             L 33.618 -9.525
             M 34.401 -8.525
             L 39.882 -1.525
             M 38.612 -1.525
             L 33.131 -8.525
             M 35.95 -16.1
             L 43.7 -16.1
             M 43.7 -15.1
             L 35.95 -15.1" fill="none" stroke="#0000d3" stroke-width="0.1"/>
</g>
<g id="opperation-2">
    <title>Breakaways (Op: 2/3)</title>
    <path d="M 70.5 -22.5
             L 70.5 -23.8
             M 47 -22.5
             L 47 -23.8
             M 23.5 -22.5
             L 23.5 -23.8" fill="none" stroke="#02abea" stroke-width="0.1"/>
</g>
<g id="opperation-3">
    <title>Perimeter (Op: 3/3)</title>
    <path d="M 47 -25.114
             L 0 -25.114
             A 0.114 0.114 0 0 0 -0.114 -25
             L -0.114 -22.5
             A 0.114 0.114 0 0 0 0 -22.386
             L 0.514 -22.386
             A 0.036 0.036 0 0 1 0.549 -22.351
             L 0.636 -18.999
             L 0.636 19.929
             A 2.114 2.114 0 0 0 1.255 21.424
             L 4.326 24.495
             A 2.114 2.114 0 0 0 5.821 25.114
             L 7.25 25.114
             A 1.614 1.614 0 0 0 8.858 23.65
             A 0.386 0.386 0 0 1 8.926 23.465
             A 0.614 0.614 0 0 0 9.037 23.113
             L 9.038 22.506
             A 0.614 0.614 0 0 0 8.928 22.154
             A 0.386 0.386 0 0 1 8.859 21.933
             L 8.864 19.2
             A 0.186 0.186 0 0 1 9.049 19.014
             L 14.45 19.014
             A 0.186 0.186 0 0 1 14.636 19.2
             L 14.641 21.933
             A 0.386 0.386 0 0 1 14.572 22.154
             A 0.614 0.614 0 0 0 14.462 22.506
             L 14.463 23.135
             A 0.614 0.614 0 0 0 14.574 23.487
             A 0.386 0.386 0 0 1 14.642 23.668
             A 1.614 1.614 0 0 0 16.247 25.114
             L 17.679 25.114
             A 2.114 2.114 0 0 0 19.174 24.495
             L 22.245 21.424
             A 2.114 2.114 0 0 0 22.864 19.929
             L 22.864 -18.999
             L 22.95 -22.351
             A 0.036 0.036 0 0 1 22.986 -22.386
             L 23.5 -22.386
             L 24.014 -22.386
             A 0.036 0.036 0 0 1 24.05 -22.351
             L 24.136 -18.999
             L 24.136 19.929
             A 2.114 2.114 0 0 0 24.755 21.424
             L 27.826 24.495
             A 2.114 2.114 0 0 0 29.321 25.114
             L 30.75 25.114
             A 1.614 1.614 0 0 0 32.358 23.65
             A 0.386 0.386 0 0 1 32.426 23.465
             A 0.614 0.614 0 0 0 32.537 23.113
             L 32.538 22.506
             A 0.614 0.614 0 0 0 32.428 22.154
             A 0.386 0.386 0 0 1 32.359 21.933
             L 32.364 19.2
             A 0.186 0.186 0 0 1 32.549 19.014
             L 37.951 19.014
             A 0.186 0.186 0 0 1 38.136 19.2
             L 38.141 21.933
             A 0.386 0.386 0 0 1 38.072 22.154
             A 0.614 0.614 0 0 0 37.962 22.506
             L 37.963 23.135
             A 0.614 0.614 0 0 0 38.074 23.487
             A 0.386 0.386 0 0 1 38.142 23.668
             A 1.614 1.614 0 0 0 39.747 25.114
             L 41.179 25.114
             A 2.114 2.114 0 0 0 42.674 24.495
             L 45.745 21.424
             A 2.114 2.114 0 0 0 46.364 19.929
             L 46.364 -18.999
             L 46.45 -22.351
             A 0.036 0.036 0 0 1 46.486 -22.386
             L 47 -22.386
             L 47.514 -22.386
             A 0.036 0.036 0 0 1 47.55 -22.351
             L 47.636 -18.999
             L 47.636 19.929
             A 2.114 2.114 0 0 0 48.255 21.424
             L 51.326 24.495
             A 2.114 2.114 0 0 0 52.821 25.114
             L 54.25 25.114
             A 1.614 1.614 0 0 0 55.858 23.65
             A 0.386 0.386 0 0 1 55.926 23.465
             A 0.614 0.614 0 0 0 56.037 23.113
             L 56.038 22.506
             A 0.614 0.614 0 0 0 55.928 22.154
             A 0.386 0.386 0 0 1 55.859 21.933
             L 55.864 19.2
             A 0.186 0.186 0 0 1 56.049 19.014
             L 61.451 19.014
             A 0.186 0.186 0 0 1 61.636 19.2
             L 61.641 21.933
             A 0.386 0.386 0 0 1 61.572 22.154
             A 0.614 0.614 0 0 0 61.462 22.506
             L 61.463 23.135
             A 0.614 0.614 0 0 0 61.574 23.487
             A 0.386 0.386 0 0 1 61.642 23.668
             A 1.614 1.614 0 0 0 63.247 25.114
             L 64.679 25.114
             A 2.114 2.114 0 0 0 66.174 24.495
             L 69.245 21.424
             A 2.114 2.114 0 0 0 69.864 19.929
             L 69.864 -18.999
             L 69.95 -22.351
             A 0.036 0.036 0 0 1 69.986 -22.386
             L 70.5 -22.386
             L 71.014 -22.386
             A 0.036 0.036 0 0 1 71.05 -22.351
             L 71.136 -18.999
             L 71.136 19.929
             A 2.114 2.114 0 0 0 71.755 21.424
             L 74.826 24.495
             A 2.114 2.114 0 0 0 76.321 25.114
             L 77.75 25.114
             A 1.614 1.614 0 0 0 79.358 23.65
             A 0.386 0.386 0 0 1 79.426 23.465
             A 0.614 0.614 0 0 0 79.537 23.113
             L 79.538 22.506
             A 0.614 0.614 0 0 0 79.428 22.154
             A 0.386 0.386 0 0 1 79.359 21.933
             L 79.364 19.2
             A 0.186 0.186 0 0 1 79.549 19.014
             L 84.951 19.014
             A 0.186 0.186 0 0 1 85.136 19.2
             L 85.141 21.933
             A 0.386 0.386 0 0 1 85.072 22.154
             A 0.614 0.614 0 0 0 84.962 22.506
             L 84.963 23.135
             A 0.614 0.614 0 0 0 85.074 23.487
             A 0.386 0.386 0 0 1 85.142 23.668
             A 1.614 1.614 0 0 0 86.747 25.114
             L 88.179 25.114
             A 2.114 2.114 0 0 0 89.674 24.495
             L 92.745 21.424
             A 2.114 2.114 0 0 0 93.364 19.929
             L 93.364 -18.999
             L 93.45 -22.351
             A 0.036 0.036 0 0 1 93.486 -22.386
             L 94 -22.386
             A 0.114 0.114 0 0 0 94.114 -22.5
             L 94.114 -25
             A 0.114 0.114 0 0 0 94 -25.114
             L 47 -25.114" fill="none" stroke="#1fb714" stroke-width="0.1"/>
</g>
</g>
</svg>
