<?xml version="1.0" encoding="UTF-8" standalone="no"?>
<svg xmlns="http://www.w3.org/2000/svg" width="194mm" height="264mm" viewBox="0 0 194 264">
<desc>Created with Glowforge for Fusion 360. To download visit: https://cam.autodesk.com/hsmposts?p=glowforge</desc>
<!-- CAM Setup Info:
Work Area Width: 194mm
Work Area Height: 264mm
Work Area Too Small?: false
Stock box Upper Right: 95,130
Stock box Lower Left: -95,-130
Origin: 0,0
Selected Colors: #0000d3, #02abea, #1fb714, #dd0907, #f20884, #fbf305
-->
<g id="global-translation-frame" transform="translate(97, 132) scale(1, 1)">
<g id="opperation-1">
    <title>Numerals (Op: 1/3)</title>
    <path d="M 5.742 -50.525
             A 9.3 9.3 0 0 1 11.111 -52.862
             L 8.455 -57.525
             M 9.606 -57.525
             L 12.837 -51.852
             A 8.3 8.3 0 0 0 7.375 -50.525
             M 6.138 -49.525
             A 8.3 8.3 0 0 0 3.72 -42.525
             M 2.712 -42.525
             A 9.3 9.3 0 0 1 4.782 -49.525
             M 3.914 -41.525
             A 8.3 8.3 0 0 0 11.45 -35.315
             M 11.45 -34.313
             A 9.3 9.3 0 0 1 2.884 -41.525
             M 12.45 -35.315
             A 8.3 8.3 0 0 0 19.962 -41.431
             M 20.927 -41.169
             A 9.3 9.3 0 0 1 12.45 -34.313
             M 26.212 -42.525
             A 9.3 9.3 0 0 1 28.282 -49.525
             M 29.638 -49.525
             A 8.3 8.3 0 0 0 27.22 -42.525
             M 27.414 -41.525
             A 8.3 8.3 0 0 0 34.95 -35.315
             M 34.95 -34.313
             A 9.3 9.3 0 0 1 26.384 -41.525
             M 35.95 -35.315
             A 8.3 8.3 0 0 0 43.462 -41.431
             M 44.427 -41.169
             A 9.3 9.3 0 0 1 35.95 -34.313
             M 49.712 -42.525
             A 9.3 9.3 0 0 1 51.782 -49.525
             M 53.138 -49.525
             A 8.3 8.3 0 0 0 50.72 -42.525
             M 50.914 -41.525
             A 8.3 8.3 0 0 0 58.45 -35.315
             M 58.45 -34.313
             A 9.3 9.3 0 0 1 49.884 -41.525
             M 59.45 -35.315
             A 8.3 8.3 0 0 0 66.962 -41.431
             M 67.927 -41.169
             A 9.3 9.3 0 0 1 59.45 -34.313
             M 73.212 -42.525
             A 9.3 9.3 0 0 1 75.282 -49.525
             M 76.638 -49.525
             A 8.3 8.3 0 0 0 74.22 -42.525
             M 74.414 -41.525
             A 8.3 8.3 0 0 0 81.95 -35.315
             M 81.95 -34.313
             A 9.3 9.3 0 0 1 73.384 -41.525
             M 82.95 -35.315
             A 8.3 8.3 0 0 0 90.462 -41.431
             M 91.427 -41.169
             A 9.3 9.3 0 0 1 82.95 -34.313
             M 76.242 -50.525
             A 9.3 9.3 0 0 1 81.611 -52.862
             L 78.955 -57.525
             M 80.106 -57.525
             L 83.337 -51.852
             A 8.3 8.3 0 0 0 77.875 -50.525
             M 78.385 -58.525
             L 74.44 -65.45
             L 81.95 -65.45
             M 81.95 -64.45
             L 76.16 -64.45
             L 79.536 -58.525
             M 82.95 -65.45
             L 89.6 -65.45
             M 89.6 -64.45
             L 82.95 -64.45
             M 66.1 -64.45
             L 59.45 -64.45
             M 59.45 -65.45
             L 66.1 -65.45
             M 58.45 -64.45
             L 52.66 -64.45
             L 56.036 -58.525
             M 54.885 -58.525
             L 50.94 -65.45
             L 58.45 -65.45
             M 56.606 -57.525
             L 59.837 -51.852
             A 8.3 8.3 0 0 0 54.375 -50.525
             M 52.742 -50.525
             A 9.3 9.3 0 0 1 58.111 -52.862
             L 55.455 -57.525
             M 42.6 -64.45
             L 35.95 -64.45
             M 35.95 -65.45
             L 42.6 -65.45
             M 34.95 -64.45
             L 29.16 -64.45
             L 32.536 -58.525
             M 31.385 -58.525
             L 27.44 -65.45
             L 34.95 -65.45
             M 33.106 -57.525
             L 36.337 -51.852
             A 8.3 8.3 0 0 0 30.875 -50.525
             M 29.242 -50.525
             A 9.3 9.3 0 0 1 34.611 -52.862
             L 31.955 -57.525
             M 19.1 -64.45
             L 12.45 -64.45
             M 12.45 -65.45
             L 19.1 -65.45
             M 11.45 -64.45
             L 5.66 -64.45
             L 9.036 -58.525
             M 7.885 -58.525
             L 3.94 -65.45
             L 11.45 -65.45" fill="none" stroke="#0000d3" stroke-width="0.1"/>
</g>
<g id="opperation-2">
    <title>Breakaways (Op: 2/3)</title>
    <path d="M 70.5 -27.5
             L 70.5 -26.2
             M 47 -27.5
             L 47 -26.2
             M 23.5 -27.5
             L 23.5 -26.2" fill="none" stroke="#02abea" stroke-width="0.1"/>
</g>
<g id="opperation-3">
    <title>Perimeter (Op: 3/3)</title>
    <path d="M 93.364 -69.929
             A 2.114 2.114 0 0 0 92.745 -71.424
             L 89.674 -74.495
             A 2.114 2.114 0 0 0 88.179 -75.114
             L 86.75 -75.114
             A 1.614 1.614 0 0 0 85.142 -73.65
             A 0.386 0.386 0 0 1 85.074 -73.465
             A 0.614 0.614 0 0 0 84.963 -73.113
             L 84.962 -72.506
             A 0.614 0.614 0 0 0 85.072 -72.154
             A 0.386 0.386 0 0 1 85.141 -71.933
             L 85.136 -69.2
             A 0.186 0.186 0 0 1 84.951 -69.014
             L 79.549 -69.014
             A 0.186 0.186 0 0 1 79.364 -69.2
             L 79.359 -71.933
             A 0.386 0.386 0 0 1 79.428 -72.154
             A 0.614 0.614 0 0 0 79.538 -72.506
             L 79.537 -73.135
             A 0.614 0.614 0 0 0 79.426 -73.487
             A 0.386 0.386 0 0 1 79.358 -73.668
             A 1.614 1.614 0 0 0 77.753 -75.114
             L 76.321 -75.114
             A 2.114 2.114 0 0 0 74.826 -74.495
             L 71.755 -71.424
             A 2.114 2.114 0 0 0 71.136 -69.929
             L 71.136 -31.001
             L 71.05 -27.649
             A 0.036 0.036 0 0 1 71.014 -27.614
             L 70.5 -27.614
             L 69.986 -27.614
             A 0.036 0.036 0 0 1 69.95 -27.649
             L 69.864 -31.001
             L 69.864 -69.929
             A 2.114 2.114 0 0 0 69.245 -71.424
             L 66.174 -74.495
             A 2.114 2.114 0 0 0 64.679 -75.114
             L 63.25 -75.114
             A 1.614 1.614 0 0 0 61.642 -73.65
             A 0.386 0.386 0 0 1 61.574 -73.465
             A 0.614 0.614 0 0 0 61.463 -73.113
             L 61.462 -72.506
             A 0.614 0.614 0 0 0 61.572 -72.154
             A 0.386 0.386 0 0 1 61.641 -71.933
             L 61.636 -69.2
             A 0.186 0.186 0 0 1 61.451 -69.014
             L 56.049 -69.014
             A 0.186 0.186 0 0 1 55.864 -69.2
             L 55.859 -71.933
             A 0.386 0.386 0 0 1 55.928 -72.154
             A 0.614 0.614 0 0 0 56.038 -72.506
             L 56.037 -73.135
             A 0.614 0.614 0 0 0 55.926 -73.487
             A 0.386 0.386 0 0 1 55.858 -73.668
             A 1.614 1.614 0 0 0 54.253 -75.114
             L 52.821 -75.114
             A 2.114 2.114 0 0 0 51.326 -74.495
             L 48.255 -71.424
             A 2.114 2.114 0 0 0 47.636 -69.929
             L 47.636 -31.001
             L 47.55 -27.649
             A 0.036 0.036 0 0 1 47.514 -27.614
             L 47 -27.614
             L 46.486 -27.614
             A 0.036 0.036 0 0 1 46.45 -27.649
             L 46.364 -31.001
             L 46.364 -69.929
             A 2.114 2.114 0 0 0 45.745 -71.424
             L 42.674 -74.495
             A 2.114 2.114 0 0 0 41.179 -75.114
             L 39.75 -75.114
             A 1.614 1.614 0 0 0 38.142 -73.65
             A 0.386 0.386 0 0 1 38.074 -73.465
             A 0.614 0.614 0 0 0 37.963 -73.113
             L 37.962 -72.506
             A 0.614 0.614 0 0 0 38.072 -72.154
             A 0.386 0.386 0 0 1 38.141 -71.933
             L 38.136 -69.2
             A 0.186 0.186 0 0 1 37.951 -69.014
             L 32.549 -69.014
             A 0.186 0.186 0 0 1 32.364 -69.2
             L 32.359 -71.933
             A 0.386 0.386 0 0 1 32.428 -72.154
             A 0.614 0.614 0 0 0 32.538 -72.506
             L 32.537 -73.135
             A 0.614 0.614 0 0 0 32.426 -73.487
             A 0.386 0.386 0 0 1 32.358 -73.668
             A 1.614 1.614 0 0 0 30.753 -75.114
             L 29.321 -75.114
             A 2.114 2.114 0 0 0 27.826 -74.495
             L 24.755 -71.424
             A 2.114 2.114 0 0 0 24.136 -69.929
             L 24.136 -31.001
             L 24.05 -27.649
             A 0.036 0.036 0 0 1 24.014 -27.614
             L 23.5 -27.614
             L 22.986 -27.614
             A 0.036 0.036 0 0 1 22.95 -27.649
             L 22.864 -31.001
             L 22.864 -69.929
             A 2.114 2.114 0 0 0 22.245 -71.424
             L 19.174 -74.495
             A 2.114 2.114 0 0 0 17.679 -75.114
             L 16.25 -75.114
             A 1.614 1.614 0 0 0 14.642 -73.65
             A 0.386 0.386 0 0 1 14.574 -73.465
             A 0.614 0.614 0 0 0 14.463 -73.113
             L 14.462 -72.506
             A 0.614 0.614 0 0 0 14.572 -72.154
             A 0.386 0.386 0 0 1 14.641 -71.933
             L 14.636 -69.2
             A 0.186 0.186 0 0 1 14.451 -69.014
             L 9.049 -69.014
             A 0.186 0.186 0 0 1 8.864 -69.2
             L 8.859 -71.933
             A 0.386 0.386 0 0 1 8.928 -72.154
             A 0.614 0.614 0 0 0 9.038 -72.506
             L 9.037 -73.135
             A 0.614 0.614 0 0 0 8.926 -73.487
             A 0.386 0.386 0 0 1 8.858 -73.668
             A 1.614 1.614 0 0 0 7.252 -75.114
             L 5.821 -75.114
             A 2.114 2.114 0 0 0 4.326 -74.495
             L 1.255 -71.424
             A 2.114 2.114 0 0 0 0.636 -69.929
             L 0.636 -31.001
             L 0.549 -27.649
             A 0.036 0.036 0 0 1 0.514 -27.614
             L 0 -27.614
             A 0.114 0.114 0 0 0 -0.114 -27.5
             L -0.114 -25
             A 0.114 0.114 0 0 0 0 -24.886
             L 94 -24.886
             A 0.114 0.114 0 0 0 94.114 -25
             L 94.114 -27.5
             A 0.114 0.114 0 0 0 94 -27.614
             L 93.486 -27.614
             A 0.036 0.036 0 0 1 93.45 -27.649
             L 93.364 -31.001
             L 93.364 -69.929" fill="none" stroke="#1fb714" stroke-width="0.1"/>
</g>
</g>
</svg>
