<?xml version="1.0" encoding="UTF-8" standalone="no"?>
<svg xmlns="http://www.w3.org/2000/svg" width="194mm" height="264mm" viewBox="0 0 194 264">
<desc>Created with Glowforge for Fusion 360. To download visit: https://cam.autodesk.com/hsmposts?p=glowforge</desc>
<!-- CAM Setup Info:
Work Area Width: 194mm
Work Area Height: 264mm
Work Area Too Small?: false
Stock box Upper Right: 95,130
Stock box Lower Left: -95,-130
Origin: 0,0
Selected Colors: #0000d3, #02abea, #1fb714, #dd0907, #f20884, #fbf305
-->
<g id="global-translation-frame" transform="translate(97, 132) scale(1, 1)">
<g id="opperation-1">
    <title>Numerals (Op: 1/3)</title>
    <path d="M 12.45 -112.6
             L 16.117 -112.6
             L 18.061 -114.545
             L 18.061 -120.1
             M 17.061 -120.1
             L 17.061 -114.545
             M 19.061 -114.13
             L 16.531 -111.6
             L 12.45 -111.6
             M 11.45 -111.6
             L 6.299 -111.6
             L 9.927 -105.525
             M 8.762 -105.525
             L 4.538 -112.6
             L 11.45 -112.6
             M 10.524 -104.525
             L 14.703 -97.525
             M 13.538 -97.525
             L 9.359 -104.525
             M 15.3 -96.525
             L 17.061 -93.576
             L 17.061 -96.525
             M 18.061 -96.525
             L 18.061 -89.95
             L 14.135 -96.525
             M 17.061 -97.525
             L 17.061 -104.525
             M 18.061 -104.525
             L 18.061 -97.525
             M 17.061 -105.525
             L 17.061 -111.323
             M 18.061 -111.323
             L 18.061 -105.525
             M 32.262 -105.525
             L 28.038 -112.6
             L 34.95 -112.6
             M 34.95 -111.6
             L 29.799 -111.6
             L 33.426 -105.525
             M 34.024 -104.525
             L 38.203 -97.525
             M 37.038 -97.525
             L 32.859 -104.525
             M 38.8 -96.525
             L 40.561 -93.576
             L 40.561 -96.525
             M 41.561 -96.525
             L 41.561 -89.95
             L 37.635 -96.525
             M 40.561 -97.525
             L 40.561 -104.525
             M 41.561 -104.525
             L 41.561 -97.525
             M 40.561 -105.525
             L 40.561 -111.323
             M 41.561 -111.323
             L 41.561 -105.525
             M 42.561 -114.13
             L 40.031 -111.6
             L 35.95 -111.6
             M 35.95 -112.6
             L 39.617 -112.6
             L 41.561 -114.545
             L 41.561 -120.1
             M 40.561 -120.1
             L 40.561 -114.545
             M 55.762 -105.525
             L 51.538 -112.6
             L 58.45 -112.6
             M 58.45 -111.6
             L 53.299 -111.6
             L 56.926 -105.525
             M 57.524 -104.525
             L 61.703 -97.525
             M 60.538 -97.525
             L 56.359 -104.525
             M 62.3 -96.525
             L 64.061 -93.576
             L 64.061 -96.525
             M 65.061 -96.525
             L 65.061 -89.95
             L 61.135 -96.525
             M 64.061 -97.525
             L 64.061 -104.525
             M 65.061 -104.525
             L 65.061 -97.525
             M 64.061 -105.525
             L 64.061 -111.323
             M 65.061 -111.323
             L 65.061 -105.525
             M 66.061 -114.13
             L 63.531 -111.6
             L 59.45 -111.6
             M 59.45 -112.6
             L 63.117 -112.6
             L 65.061 -114.545
             L 65.061 -120.1
             M 64.061 -120.1
             L 64.061 -114.545
             M 79.262 -105.525
             L 75.038 -112.6
             L 81.95 -112.6
             M 81.95 -111.6
             L 76.799 -111.6
             L 80.426 -105.525
             M 81.024 -104.525
             L 85.203 -97.525
             M 84.038 -97.525
             L 79.859 -104.525
             M 85.8 -96.525
             L 87.561 -93.576
             L 87.561 -96.525
             M 88.561 -96.525
             L 88.561 -89.95
             L 84.635 -96.525
             M 87.561 -97.525
             L 87.561 -104.525
             M 88.561 -104.525
             L 88.561 -97.525
             M 87.561 -105.525
             L 87.561 -111.323
             M 88.561 -111.323
             L 88.561 -105.525
             M 89.561 -114.13
             L 87.031 -111.6
             L 82.95 -111.6
             M 82.95 -112.6
             L 86.617 -112.6
             L 88.561 -114.545
             L 88.561 -120.1
             M 87.561 -120.1
             L 87.561 -114.545" fill="none" stroke="#0000d3" stroke-width="0.1"/>
</g>
<g id="opperation-2">
    <title>Breakaways (Op: 2/3)</title>
    <path d="M 70.5 -126.5
             L 70.5 -127.8
             M 47 -126.5
             L 47 -127.8
             M 23.5 -126.5
             L 23.5 -127.8" fill="none" stroke="#02abea" stroke-width="0.1"/>
</g>
<g id="opperation-3">
    <title>Perimeter (Op: 3/3)</title>
    <path d="M 79.549 -84.986
             L 84.951 -84.986
             A 0.186 0.186 0 0 1 85.136 -84.8
             L 85.141 -82.067
             A 0.386 0.386 0 0 1 85.072 -81.846
             A 0.614 0.614 0 0 0 84.962 -81.494
             L 84.963 -80.865
             A 0.614 0.614 0 0 0 85.074 -80.513
             A 0.386 0.386 0 0 1 85.142 -80.332
             A 1.614 1.614 0 0 0 86.747 -78.886
             L 88.179 -78.886
             A 2.114 2.114 0 0 0 89.674 -79.505
             L 92.745 -82.576
             A 2.114 2.114 0 0 0 93.364 -84.071
             L 93.364 -122.999
             L 93.45 -126.351
             A 0.036 0.036 0 0 1 93.486 -126.386
             L 94 -126.386
             A 0.114 0.114 0 0 0 94.114 -126.5
             L 94.114 -129
             A 0.114 0.114 0 0 0 94 -129.114
             L 0 -129.114
             A 0.114 0.114 0 0 0 -0.114 -129
             L -0.114 -126.5
             A 0.114 0.114 0 0 0 0 -126.386
             L 0.514 -126.386
             A 0.036 0.036 0 0 1 0.549 -126.351
             L 0.636 -122.999
             L 0.636 -84.071
             A 2.114 2.114 0 0 0 1.255 -82.576
             L 4.326 -79.505
             A 2.114 2.114 0 0 0 5.821 -78.886
             L 7.25 -78.886
             A 1.614 1.614 0 0 0 8.858 -80.35
             A 0.386 0.386 0 0 1 8.926 -80.535
             A 0.614 0.614 0 0 0 9.037 -80.887
             L 9.038 -81.494
             A 0.614 0.614 0 0 0 8.928 -81.846
             A 0.386 0.386 0 0 1 8.859 -82.067
             L 8.864 -84.8
             A 0.186 0.186 0 0 1 9.049 -84.986
             L 14.45 -84.986
             A 0.186 0.186 0 0 1 14.636 -84.8
             L 14.641 -82.067
             A 0.386 0.386 0 0 1 14.572 -81.846
             A 0.614 0.614 0 0 0 14.462 -81.494
             L 14.463 -80.865
             A 0.614 0.614 0 0 0 14.574 -80.513
             A 0.386 0.386 0 0 1 14.642 -80.332
             A 1.614 1.614 0 0 0 16.247 -78.886
             L 17.679 -78.886
             A 2.114 2.114 0 0 0 19.174 -79.505
             L 22.245 -82.576
             A 2.114 2.114 0 0 0 22.864 -84.071
             L 22.864 -122.999
             L 22.95 -126.351
             A 0.036 0.036 0 0 1 22.986 -126.386
             L 23.5 -126.386
             L 24.014 -126.386
             A 0.036 0.036 0 0 1 24.05 -126.351
             L 24.136 -122.999
             L 24.136 -84.071
             A 2.114 2.114 0 0 0 24.755 -82.576
             L 27.826 -79.505
             A 2.114 2.114 0 0 0 29.321 -78.886
             L 30.75 -78.886
             A 1.614 1.614 0 0 0 32.358 -80.35
             A 0.386 0.386 0 0 1 32.426 -80.535
             A 0.614 0.614 0 0 0 32.537 -80.887
             L 32.538 -81.494
             A 0.614 0.614 0 0 0 32.428 -81.846
             A 0.386 0.386 0 0 1 32.359 -82.067
             L 32.364 -84.8
             A 0.186 0.186 0 0 1 32.549 -84.986
             L 37.951 -84.986
             A 0.186 0.186 0 0 1 38.136 -84.8
             L 38.141 -82.067
             A 0.386 0.386 0 0 1 38.072 -81.846
             A 0.614 0.614 0 0 0 37.962 -81.494
             L 37.963 -80.865
             A 0.614 0.614 0 0 0 38.074 -80.513
             A 0.386 0.386 0 0 1 38.142 -80.332
             A 1.614 1.614 0 0 0 39.747 -78.886
             L 41.179 -78.886
             A 2.114 2.114 0 0 0 42.674 -79.505
             L 45.745 -82.576
             A 2.114 2.114 0 0 0 46.364 -84.071
             L 46.364 -122.999
             L 46.45 -126.351
             A 0.036 0.036 0 0 1 46.486 -126.386
             L 47 -126.386
             L 47.514 -126.386
             A 0.036 0.036 0 0 1 47.55 -126.351
             L 47.636 -122.999
             L 47.636 -84.071
             A 2.114 2.114 0 0 0 48.255 -82.576
             L 51.326 -79.505
             A 2.114 2.114 0 0 0 52.821 -78.886
             L 54.25 -78.886
             A 1.614 1.614 0 0 0 55.858 -80.35
             A 0.386 0.386 0 0 1 55.926 -80.535
             A 0.614 0.614 0 0 0 56.037 -80.887
             L 56.038 -81.494
             A 0.614 0.614 0 0 0 55.928 -81.846
             A 0.386 0.386 0 0 1 55.859 -82.067
             L 55.864 -84.8
             A 0.186 0.186 0 0 1 56.049 -84.986
             L 61.451 -84.986
             A 0.186 0.186 0 0 1 61.636 -84.8
             L 61.641 -82.067
             A 0.386 0.386 0 0 1 61.572 -81.846
             A 0.614 0.614 0 0 0 61.462 -81.494
             L 61.463 -80.865
             A 0.614 0.614 0 0 0 61.574 -80.513
             A 0.386 0.386 0 0 1 61.642 -80.332
             A 1.614 1.614 0 0 0 63.247 -78.886
             L 64.679 -78.886
             A 2.114 2.114 0 0 0 66.174 -79.505
             L 69.245 -82.576
             A 2.114 2.114 0 0 0 69.864 -84.071
             L 69.864 -122.999
             L 69.95 -126.351
             A 0.036 0.036 0 0 1 69.986 -126.386
             L 70.5 -126.386
             L 71.014 -126.386
             A 0.036 0.036 0 0 1 71.05 -126.351
             L 71.136 -122.999
             L 71.136 -84.071
             A 2.114 2.114 0 0 0 71.755 -82.576
             L 74.826 -79.505
             A 2.114 2.114 0 0 0 76.321 -78.886
             L 77.75 -78.886
             A 1.614 1.614 0 0 0 79.358 -80.35
             A 0.386 0.386 0 0 1 79.426 -80.535
             A 0.614 0.614 0 0 0 79.537 -80.887
             L 79.538 -81.494
             A 0.614 0.614 0 0 0 79.428 -81.846
             A 0.386 0.386 0 0 1 79.359 -82.067
             L 79.364 -84.8" fill="none" stroke="#1fb714" stroke-width="0.1"/>
</g>
</g>
</svg>
