<?xml version="1.0" encoding="UTF-8" standalone="no"?>
<svg xmlns="http://www.w3.org/2000/svg" width="194mm" height="264mm" viewBox="0 0 194 264">
<desc>Created with Glowforge for Fusion 360. To download visit: https://cam.autodesk.com/hsmposts?p=glowforge</desc>
<!-- CAM Setup Info:
Work Area Width: 194mm
Work Area Height: 264mm
Work Area Too Small?: false
Stock box Upper Right: 95,130
Stock box Lower Left: -95,-130
Origin: 0,0
Selected Colors: #0000d3, #02abea, #1fb714, #dd0907, #f20884, #fbf305
-->
<g id="global-translation-frame" transform="translate(97, 132) scale(1, 1)">
<g id="opperation-1">
    <title>Numerals (Op: 1/3)</title>
    <path d="M -11.05 -90.95
             L -3.3 -90.95
             M -3.3 -89.95
             L -11.05 -89.95
             M -12.05 -89.95
             L -19.8 -89.95
             L -19.8 -96.525
             M -18.8 -96.525
             L -18.8 -90.95
             L -12.05 -90.95
             M -19.8 -97.525
             L -19.8 -102.5
             L -12.05 -102.5
             M -12.05 -101.5
             L -18.8 -101.5
             L -18.8 -97.525
             M -11.05 -102.514
             A 8.8 8.8 0 0 0 -4.747 -105.718
             A 8.8 8.8 0 0 0 -2.836 -112.525
             M -1.827 -112.525
             A 9.8 9.8 0 0 1 -4.037 -105.008
             A 9.8 9.8 0 0 1 -11.05 -101.513
             M -3.036 -113.525
             A 8.8 8.8 0 0 0 -11.05 -120.086
             M -11.05 -121.087
             A 9.8 9.8 0 0 1 -2.006 -113.525
             M -12.05 -120.086
             A 8.8 8.8 0 0 0 -20.298 -112.26
             M -21.291 -112.369
             A 9.8 9.8 0 0 1 -12.05 -121.087
             M -25.327 -112.525
             A 9.8 9.8 0 0 1 -27.537 -105.008
             A 9.8 9.8 0 0 1 -34.55 -101.513
             M -34.55 -102.514
             A 8.8 8.8 0 0 0 -28.247 -105.718
             A 8.8 8.8 0 0 0 -26.336 -112.525
             M -26.536 -113.525
             A 8.8 8.8 0 0 0 -34.55 -120.086
             M -34.55 -121.087
             A 9.8 9.8 0 0 1 -25.506 -113.525
             M -35.55 -120.086
             A 8.8 8.8 0 0 0 -43.798 -112.26
             M -44.792 -112.369
             A 9.8 9.8 0 0 1 -35.55 -121.087
             M -48.827 -112.525
             A 9.8 9.8 0 0 1 -51.037 -105.008
             A 9.8 9.8 0 0 1 -58.05 -101.513
             M -58.05 -102.514
             A 8.8 8.8 0 0 0 -51.747 -105.718
             A 8.8 8.8 0 0 0 -49.836 -112.525
             M -50.036 -113.525
             A 8.8 8.8 0 0 0 -58.05 -120.086
             M -58.05 -121.087
             A 9.8 9.8 0 0 1 -49.006 -113.525
             M -59.05 -120.086
             A 8.8 8.8 0 0 0 -67.298 -112.26
             M -68.291 -112.369
             A 9.8 9.8 0 0 1 -59.05 -121.087
             M -72.327 -112.525
             A 9.8 9.8 0 0 1 -74.537 -105.008
             A 9.8 9.8 0 0 1 -81.55 -101.513
             M -81.55 -102.514
             A 8.8 8.8 0 0 0 -75.247 -105.718
             A 8.8 8.8 0 0 0 -73.336 -112.525
             M -73.536 -113.525
             A 8.8 8.8 0 0 0 -81.55 -120.086
             M -81.55 -121.087
             A 9.8 9.8 0 0 1 -72.506 -113.525
             M -82.55 -120.086
             A 8.8 8.8 0 0 0 -90.798 -112.26
             M -91.791 -112.369
             A 9.8 9.8 0 0 1 -82.55 -121.087
             M -90.3 -97.525
             L -90.3 -102.5
             L -82.55 -102.5
             M -82.55 -101.5
             L -89.3 -101.5
             L -89.3 -97.525
             M -89.3 -96.525
             L -89.3 -90.95
             L -82.55 -90.95
             M -82.55 -89.95
             L -90.3 -89.95
             L -90.3 -96.525
             M -81.55 -90.95
             L -73.8 -90.95
             M -73.8 -89.95
             L -81.55 -89.95
             M -66.8 -97.525
             L -66.8 -102.5
             L -59.05 -102.5
             M -59.05 -101.5
             L -65.8 -101.5
             L -65.8 -97.525
             M -65.8 -96.525
             L -65.8 -90.95
             L -59.05 -90.95
             M -59.05 -89.95
             L -66.8 -89.95
             L -66.8 -96.525
             M -58.05 -90.95
             L -50.3 -90.95
             M -50.3 -89.95
             L -58.05 -89.95
             M -43.3 -97.525
             L -43.3 -102.5
             L -35.55 -102.5
             M -35.55 -101.5
             L -42.3 -101.5
             L -42.3 -97.525
             M -42.3 -96.525
             L -42.3 -90.95
             L -35.55 -90.95
             M -35.55 -89.95
             L -43.3 -89.95
             L -43.3 -96.525
             M -34.55 -90.95
             L -26.8 -90.95
             M -26.8 -89.95
             L -34.55 -89.95" fill="none" stroke="#0000d3" stroke-width="0.1"/>
</g>
<g id="opperation-2">
    <title>Breakaways (Op: 2/3)</title>
    <path d="M -23.5 -126.5
             L -23.5 -127.8
             M -47 -126.5
             L -47 -127.8
             M -70.5 -126.5
             L -70.5 -127.8" fill="none" stroke="#02abea" stroke-width="0.1"/>
</g>
<g id="opperation-3">
    <title>2D Profile24 (Op: 3/3)</title>
    <path d="M -47 -129.114
             L -94 -129.114
             A 0.114 0.114 0 0 0 -94.114 -129
             L -94.114 -126.5
             A 0.114 0.114 0 0 0 -94 -126.386
             L -93.486 -126.386
             A 0.036 0.036 0 0 1 -93.45 -126.351
             L -93.364 -122.999
             L -93.364 -84.071
             A 2.114 2.114 0 0 0 -92.745 -82.576
             L -89.674 -79.505
             A 2.114 2.114 0 0 0 -88.179 -78.886
             L -86.75 -78.886
             A 1.614 1.614 0 0 0 -85.142 -80.35
             A 0.386 0.386 0 0 1 -85.074 -80.535
             A 0.614 0.614 0 0 0 -84.963 -80.887
             L -84.962 -81.494
             A 0.614 0.614 0 0 0 -85.072 -81.846
             A 0.386 0.386 0 0 1 -85.141 -82.067
             L -85.136 -84.8
             A 0.186 0.186 0 0 1 -84.951 -84.986
             L -79.549 -84.986
             A 0.186 0.186 0 0 1 -79.364 -84.8
             L -79.359 -82.067
             A 0.386 0.386 0 0 1 -79.428 -81.846
             A 0.614 0.614 0 0 0 -79.538 -81.494
             L -79.537 -80.865
             A 0.614 0.614 0 0 0 -79.426 -80.513
             A 0.386 0.386 0 0 1 -79.358 -80.332
             A 1.614 1.614 0 0 0 -77.753 -78.886
             L -76.321 -78.886
             A 2.114 2.114 0 0 0 -74.826 -79.505
             L -71.755 -82.576
             A 2.114 2.114 0 0 0 -71.136 -84.071
             L -71.136 -122.999
             L -71.05 -126.351
             A 0.036 0.036 0 0 1 -71.014 -126.386
             L -70.5 -126.386
             L -69.986 -126.386
             A 0.036 0.036 0 0 1 -69.95 -126.351
             L -69.864 -122.999
             L -69.864 -84.071
             A 2.114 2.114 0 0 0 -69.245 -82.576
             L -66.174 -79.505
             A 2.114 2.114 0 0 0 -64.679 -78.886
             L -63.25 -78.886
             A 1.614 1.614 0 0 0 -61.642 -80.35
             A 0.386 0.386 0 0 1 -61.574 -80.535
             A 0.614 0.614 0 0 0 -61.463 -80.887
             L -61.462 -81.494
             A 0.614 0.614 0 0 0 -61.572 -81.846
             A 0.386 0.386 0 0 1 -61.641 -82.067
             L -61.636 -84.8
             A 0.186 0.186 0 0 1 -61.451 -84.986
             L -56.049 -84.986
             A 0.186 0.186 0 0 1 -55.864 -84.8
             L -55.859 -82.067
             A 0.386 0.386 0 0 1 -55.928 -81.846
             A 0.614 0.614 0 0 0 -56.038 -81.494
             L -56.037 -80.865
             A 0.614 0.614 0 0 0 -55.926 -80.513
             A 0.386 0.386 0 0 1 -55.858 -80.332
             A 1.614 1.614 0 0 0 -54.253 -78.886
             L -52.821 -78.886
             A 2.114 2.114 0 0 0 -51.326 -79.505
             L -48.255 -82.576
             A 2.114 2.114 0 0 0 -47.636 -84.071
             L -47.636 -122.999
             L -47.55 -126.351
             A 0.036 0.036 0 0 1 -47.514 -126.386
             L -47 -126.386
             L -46.486 -126.386
             A 0.036 0.036 0 0 1 -46.45 -126.351
             L -46.364 -122.999
             L -46.364 -84.071
             A 2.114 2.114 0 0 0 -45.745 -82.576
             L -42.674 -79.505
             A 2.114 2.114 0 0 0 -41.179 -78.886
             L -39.75 -78.886
             A 1.614 1.614 0 0 0 -38.142 -80.35
             A 0.386 0.386 0 0 1 -38.074 -80.535
             A 0.614 0.614 0 0 0 -37.963 -80.887
             L -37.962 -81.494
             A 0.614 0.614 0 0 0 -38.072 -81.846
             A 0.386 0.386 0 0 1 -38.141 -82.067
             L -38.136 -84.8
             A 0.186 0.186 0 0 1 -37.951 -84.986
             L -32.549 -84.986
             A 0.186 0.186 0 0 1 -32.364 -84.8
             L -32.359 -82.067
             A 0.386 0.386 0 0 1 -32.428 -81.846
             A 0.614 0.614 0 0 0 -32.538 -81.494
             L -32.537 -80.865
             A 0.614 0.614 0 0 0 -32.426 -80.513
             A 0.386 0.386 0 0 1 -32.358 -80.332
             A 1.614 1.614 0 0 0 -30.753 -78.886
             L -29.321 -78.886
             A 2.114 2.114 0 0 0 -27.826 -79.505
             L -24.755 -82.576
             A 2.114 2.114 0 0 0 -24.136 -84.071
             L -24.136 -122.999
             L -24.05 -126.351
             A 0.036 0.036 0 0 1 -24.014 -126.386
             L -23.5 -126.386
             L -22.986 -126.386
             A 0.036 0.036 0 0 1 -22.95 -126.351
             L -22.864 -122.999
             L -22.864 -84.071
             A 2.114 2.114 0 0 0 -22.245 -82.576
             L -19.174 -79.505
             A 2.114 2.114 0 0 0 -17.679 -78.886
             L -16.25 -78.886
             A 1.614 1.614 0 0 0 -14.642 -80.35
             A 0.386 0.386 0 0 1 -14.574 -80.535
             A 0.614 0.614 0 0 0 -14.463 -80.887
             L -14.462 -81.494
             A 0.614 0.614 0 0 0 -14.572 -81.846
             A 0.386 0.386 0 0 1 -14.641 -82.067
             L -14.636 -84.8
             A 0.186 0.186 0 0 1 -14.451 -84.986
             L -9.049 -84.986
             A 0.186 0.186 0 0 1 -8.864 -84.8
             L -8.859 -82.067
             A 0.386 0.386 0 0 1 -8.928 -81.846
             A 0.614 0.614 0 0 0 -9.038 -81.494
             L -9.037 -80.865
             A 0.614 0.614 0 0 0 -8.926 -80.513
             A 0.386 0.386 0 0 1 -8.858 -80.332
             A 1.614 1.614 0 0 0 -7.252 -78.886
             L -5.821 -78.886
             A 2.114 2.114 0 0 0 -4.326 -79.505
             L -1.255 -82.576
             A 2.114 2.114 0 0 0 -0.636 -84.071
             L -0.636 -122.999
             L -0.549 -126.351
             A 0.036 0.036 0 0 1 -0.514 -126.386
             L 0 -126.386
             A 0.114 0.114 0 0 0 0.114 -126.5
             L 0.114 -129
             A 0.114 0.114 0 0 0 0 -129.114
             L -47 -129.114" fill="none" stroke="#1fb714" stroke-width="0.1"/>
</g>
</g>
</svg>
