<?xml version="1.0" encoding="UTF-8" standalone="no"?>
<svg xmlns="http://www.w3.org/2000/svg" width="194mm" height="264mm" viewBox="0 0 194 264">
<desc>Created with Glowforge for Fusion 360. To download visit: https://cam.autodesk.com/hsmposts?p=glowforge</desc>
<!-- CAM Setup Info:
Work Area Width: 194mm
Work Area Height: 264mm
Work Area Too Small?: false
Stock box Upper Right: 95,130
Stock box Lower Left: -95,-130
Origin: 0,0
Selected Colors: #0000d3, #02abea, #1fb714, #dd0907, #f20884, #fbf305
-->
<g id="global-translation-frame" transform="translate(97, 132) scale(1, 1)">
<g id="opperation-1">
    <title>Numerals (Op: 1/3)</title>
    <path d="M -83.17 -58.525
             L -87.944 -64.642
             M -87.156 -65.258
             L -81.901 -58.525
             M -81.121 -57.525
             L -75.658 -50.525
             M -76.926 -50.525
             L -82.389 -57.525
             M -74.719 -49.322
             A 9.3 9.3 0 0 1 -72.812 -42.525
             M -73.82 -42.525
             A 8.3 8.3 0 0 0 -75.507 -48.707
             M -72.984 -41.525
             A 9.3 9.3 0 0 1 -81.55 -34.313
             M -81.55 -35.315
             A 8.3 8.3 0 0 0 -74.014 -41.525
             M -82.55 -34.313
             A 9.3 9.3 0 0 1 -91.116 -41.525
             M -90.086 -41.525
             A 8.3 8.3 0 0 0 -82.55 -35.315
             M -91.288 -42.525
             A 9.3 9.3 0 0 1 -83.125 -52.838
             A 9.3 9.3 0 0 1 -81.521 -52.885
             M -81.578 -51.887
             A 8.3 8.3 0 0 0 -90.337 -44.072
             A 8.3 8.3 0 0 0 -90.28 -42.525
             M -67.788 -42.525
             A 9.3 9.3 0 0 1 -59.625 -52.838
             A 9.3 9.3 0 0 1 -58.021 -52.885
             M -58.078 -51.887
             A 8.3 8.3 0 0 0 -66.837 -44.072
             A 8.3 8.3 0 0 0 -66.78 -42.525
             M -66.586 -41.525
             A 8.3 8.3 0 0 0 -59.05 -35.315
             M -59.05 -34.313
             A 9.3 9.3 0 0 1 -67.616 -41.525
             M -58.05 -35.315
             A 8.3 8.3 0 0 0 -50.514 -41.525
             M -49.484 -41.525
             A 9.3 9.3 0 0 1 -58.05 -34.313
             M -50.32 -42.525
             A 8.3 8.3 0 0 0 -52.007 -48.707
             M -51.219 -49.322
             A 9.3 9.3 0 0 1 -49.312 -42.525
             M -53.426 -50.525
             L -58.889 -57.525
             M -57.621 -57.525
             L -52.158 -50.525
             M -59.67 -58.525
             L -64.444 -64.642
             M -63.656 -65.258
             L -58.401 -58.525
             M -40.156 -65.258
             L -34.901 -58.525
             M -36.17 -58.525
             L -40.944 -64.642
             M -34.121 -57.525
             L -28.658 -50.525
             M -29.926 -50.525
             L -35.389 -57.525
             M -27.719 -49.322
             A 9.3 9.3 0 0 1 -25.812 -42.525
             M -26.82 -42.525
             A 8.3 8.3 0 0 0 -28.507 -48.707
             M -25.984 -41.525
             A 9.3 9.3 0 0 1 -34.55 -34.313
             M -34.55 -35.315
             A 8.3 8.3 0 0 0 -27.014 -41.525
             M -35.55 -34.313
             A 9.3 9.3 0 0 1 -44.116 -41.525
             M -43.086 -41.525
             A 8.3 8.3 0 0 0 -35.55 -35.315
             M -44.288 -42.525
             A 9.3 9.3 0 0 1 -36.125 -52.838
             A 9.3 9.3 0 0 1 -34.521 -52.885
             M -34.578 -51.887
             A 8.3 8.3 0 0 0 -43.337 -44.072
             A 8.3 8.3 0 0 0 -43.28 -42.525
             M -20.788 -42.525
             A 9.3 9.3 0 0 1 -12.625 -52.838
             A 9.3 9.3 0 0 1 -11.021 -52.885
             M -11.078 -51.887
             A 8.3 8.3 0 0 0 -19.837 -44.072
             A 8.3 8.3 0 0 0 -19.78 -42.525
             M -19.586 -41.525
             A 8.3 8.3 0 0 0 -12.05 -35.315
             M -12.05 -34.313
             A 9.3 9.3 0 0 1 -20.616 -41.525
             M -11.05 -35.315
             A 8.3 8.3 0 0 0 -3.514 -41.525
             M -2.484 -41.525
             A 9.3 9.3 0 0 1 -11.05 -34.313
             M -3.32 -42.525
             A 8.3 8.3 0 0 0 -5.007 -48.707
             M -4.219 -49.322
             A 9.3 9.3 0 0 1 -2.312 -42.525
             M -6.426 -50.525
             L -11.889 -57.525
             M -10.621 -57.525
             L -5.158 -50.525
             M -12.67 -58.525
             L -17.444 -64.642
             M -16.656 -65.258
             L -11.401 -58.525" fill="none" stroke="#0000d3" stroke-width="0.1"/>
</g>
<g id="opperation-2">
    <title>Breakaways (Op: 2/3)</title>
    <path d="M -23.5 -27.5
             L -23.5 -26.2
             M -47 -27.5
             L -47 -26.2
             M -70.5 -27.5
             L -70.5 -26.2" fill="none" stroke="#02abea" stroke-width="0.1"/>
</g>
<g id="opperation-3">
    <title>Perimeter (Op: 3/3)</title>
    <path d="M -0.636 -69.929
             A 2.114 2.114 0 0 0 -1.255 -71.424
             L -4.326 -74.495
             A 2.114 2.114 0 0 0 -5.821 -75.114
             L -7.25 -75.114
             A 1.614 1.614 0 0 0 -8.858 -73.65
             A 0.386 0.386 0 0 1 -8.926 -73.465
             A 0.614 0.614 0 0 0 -9.037 -73.113
             L -9.038 -72.506
             A 0.614 0.614 0 0 0 -8.928 -72.154
             A 0.386 0.386 0 0 1 -8.859 -71.933
             L -8.864 -69.2
             A 0.186 0.186 0 0 1 -9.049 -69.014
             L -14.45 -69.014
             A 0.186 0.186 0 0 1 -14.636 -69.2
             L -14.641 -71.933
             A 0.386 0.386 0 0 1 -14.572 -72.154
             A 0.614 0.614 0 0 0 -14.462 -72.506
             L -14.463 -73.135
             A 0.614 0.614 0 0 0 -14.574 -73.487
             A 0.386 0.386 0 0 1 -14.642 -73.668
             A 1.614 1.614 0 0 0 -16.247 -75.114
             L -17.679 -75.114
             A 2.114 2.114 0 0 0 -19.174 -74.495
             L -22.245 -71.424
             A 2.114 2.114 0 0 0 -22.864 -69.929
             L -22.864 -31.001
             L -22.95 -27.649
             A 0.036 0.036 0 0 1 -22.986 -27.614
             L -23.5 -27.614
             L -24.014 -27.614
             A 0.036 0.036 0 0 1 -24.05 -27.649
             L -24.136 -31.001
             L -24.136 -69.929
             A 2.114 2.114 0 0 0 -24.755 -71.424
             L -27.826 -74.495
             A 2.114 2.114 0 0 0 -29.321 -75.114
             L -30.75 -75.114
             A 1.614 1.614 0 0 0 -32.358 -73.65
             A 0.386 0.386 0 0 1 -32.426 -73.465
             A 0.614 0.614 0 0 0 -32.537 -73.113
             L -32.538 -72.506
             A 0.614 0.614 0 0 0 -32.428 -72.154
             A 0.386 0.386 0 0 1 -32.359 -71.933
             L -32.364 -69.2
             A 0.186 0.186 0 0 1 -32.549 -69.014
             L -37.951 -69.014
             A 0.186 0.186 0 0 1 -38.136 -69.2
             L -38.141 -71.933
             A 0.386 0.386 0 0 1 -38.072 -72.154
             A 0.614 0.614 0 0 0 -37.962 -72.506
             L -37.963 -73.135
             A 0.614 0.614 0 0 0 -38.074 -73.487
             A 0.386 0.386 0 0 1 -38.142 -73.668
             A 1.614 1.614 0 0 0 -39.747 -75.114
             L -41.179 -75.114
             A 2.114 2.114 0 0 0 -42.674 -74.495
             L -45.745 -71.424
             A 2.114 2.114 0 0 0 -46.364 -69.929
             L -46.364 -31.001
             L -46.45 -27.649
             A 0.036 0.036 0 0 1 -46.486 -27.614
             L -47 -27.614
             L -47.514 -27.614
             A 0.036 0.036 0 0 1 -47.55 -27.649
             L -47.636 -31.001
             L -47.636 -69.929
             A 2.114 2.114 0 0 0 -48.255 -71.424
             L -51.326 -74.495
             A 2.114 2.114 0 0 0 -52.821 -75.114
             L -54.25 -75.114
             A 1.614 1.614 0 0 0 -55.858 -73.65
             A 0.386 0.386 0 0 1 -55.926 -73.465
             A 0.614 0.614 0 0 0 -56.037 -73.113
             L -56.038 -72.506
             A 0.614 0.614 0 0 0 -55.928 -72.154
             A 0.386 0.386 0 0 1 -55.859 -71.933
             L -55.864 -69.2
             A 0.186 0.186 0 0 1 -56.049 -69.014
             L -61.451 -69.014
             A 0.186 0.186 0 0 1 -61.636 -69.2
             L -61.641 -71.933
             A 0.386 0.386 0 0 1 -61.572 -72.154
             A 0.614 0.614 0 0 0 -61.462 -72.506
             L -61.463 -73.135
             A 0.614 0.614 0 0 0 -61.574 -73.487
             A 0.386 0.386 0 0 1 -61.642 -73.668
             A 1.614 1.614 0 0 0 -63.247 -75.114
             L -64.679 -75.114
             A 2.114 2.114 0 0 0 -66.174 -74.495
             L -69.245 -71.424
             A 2.114 2.114 0 0 0 -69.864 -69.929
             L -69.864 -31.001
             L -69.95 -27.649
             A 0.036 0.036 0 0 1 -69.986 -27.614
             L -70.5 -27.614
             L -71.014 -27.614
             A 0.036 0.036 0 0 1 -71.05 -27.649
             L -71.136 -31.001
             L -71.136 -69.929
             A 2.114 2.114 0 0 0 -71.755 -71.424
             L -74.826 -74.495
             A 2.114 2.114 0 0 0 -76.321 -75.114
             L -77.75 -75.114
             A 1.614 1.614 0 0 0 -79.358 -73.65
             A 0.386 0.386 0 0 1 -79.426 -73.465
             A 0.614 0.614 0 0 0 -79.537 -73.113
             L -79.538 -72.506
             A 0.614 0.614 0 0 0 -79.428 -72.154
             A 0.386 0.386 0 0 1 -79.359 -71.933
             L -79.364 -69.2
             A 0.186 0.186 0 0 1 -79.549 -69.014
             L -84.951 -69.014
             A 0.186 0.186 0 0 1 -85.136 -69.2
             L -85.141 -71.933
             A 0.386 0.386 0 0 1 -85.072 -72.154
             A 0.614 0.614 0 0 0 -84.962 -72.506
             L -84.963 -73.135
             A 0.614 0.614 0 0 0 -85.074 -73.487
             A 0.386 0.386 0 0 1 -85.142 -73.668
             A 1.614 1.614 0 0 0 -86.747 -75.114
             L -88.179 -75.114
             A 2.114 2.114 0 0 0 -89.674 -74.495
             L -92.745 -71.424
             A 2.114 2.114 0 0 0 -93.364 -69.929
             L -93.364 -31.001
             L -93.45 -27.649
             A 0.036 0.036 0 0 1 -93.486 -27.614
             L -94 -27.614
             A 0.114 0.114 0 0 0 -94.114 -27.5
             L -94.114 -25
             A 0.114 0.114 0 0 0 -94 -24.886
             L 0 -24.886
             A 0.114 0.114 0 0 0 0.114 -25
             L 0.114 -27.5
             A 0.114 0.114 0 0 0 0 -27.614
             L -0.514 -27.614
             A 0.036 0.036 0 0 1 -0.549 -27.649
             L -0.636 -31.001
             L -0.636 -69.929" fill="none" stroke="#1fb714" stroke-width="0.1"/>
</g>
</g>
</svg>
