<?xml version="1.0" encoding="UTF-8" standalone="no"?>
<svg xmlns="http://www.w3.org/2000/svg" width="194mm" height="264mm" viewBox="0 0 194 264">
<desc>Created with Glowforge for Fusion 360. To download visit: https://cam.autodesk.com/hsmposts?p=glowforge</desc>
<!-- CAM Setup Info:
Work Area Width: 194mm
Work Area Height: 264mm
Work Area Too Small?: false
Stock box Upper Right: 95,130
Stock box Lower Left: -95,-130
Origin: 0,0
Selected Colors: #0000d3, #02abea, #1fb714, #dd0907, #f20884, #fbf305
-->
<g id="global-translation-frame" transform="translate(97, 132) scale(1, 1)">
<g id="opperation-1">
    <title>Numerals (Op: 1/3)</title>
    <path d="M -83.656 -9.525
             L -86.182 -15.916
             M -85.252 -16.284
             L -82.58 -9.525
             M -82.185 -8.525
             L -79.418 -1.525
             M -80.494 -1.525
             L -83.26 -8.525
             M -79.023 -0.525
             L -76.256 6.475
             M -77.332 6.475
             L -80.098 -0.525
             M -75.861 7.475
             L -73.065 14.55
             L -81.55 14.55
             M -81.55 13.55
             L -74.535 13.55
             L -76.936 7.475
             M -82.55 14.55
             L -90.3 14.55
             M -90.3 13.55
             L -82.55 13.55
             M -66.8 13.55
             L -59.05 13.55
             M -59.05 14.55
             L -66.8 14.55
             M -58.05 13.55
             L -51.035 13.55
             L -53.436 7.475
             M -52.361 7.475
             L -49.565 14.55
             L -58.05 14.55
             M -53.832 6.475
             L -56.598 -0.525
             M -55.523 -0.525
             L -52.756 6.475
             M -56.994 -1.525
             L -59.76 -8.525
             M -58.685 -8.525
             L -55.918 -1.525
             M -60.156 -9.525
             L -62.682 -15.916
             M -61.752 -16.284
             L -59.08 -9.525
             M -38.252 -16.284
             L -35.58 -9.525
             M -36.656 -9.525
             L -39.182 -15.916
             M -35.185 -8.525
             L -32.418 -1.525
             M -33.494 -1.525
             L -36.26 -8.525
             M -32.023 -0.525
             L -29.256 6.475
             M -30.332 6.475
             L -33.098 -0.525
             M -28.861 7.475
             L -26.065 14.55
             L -34.55 14.55
             M -34.55 13.55
             L -27.535 13.55
             L -29.936 7.475
             M -35.55 14.55
             L -43.3 14.55
             M -43.3 13.55
             L -35.55 13.55
             M -19.8 13.55
             L -12.05 13.55
             M -12.05 14.55
             L -19.8 14.55
             M -11.05 13.55
             L -4.035 13.55
             L -6.436 7.475
             M -5.361 7.475
             L -2.565 14.55
             L -11.05 14.55
             M -6.832 6.475
             L -9.598 -0.525
             M -8.523 -0.525
             L -5.756 6.475
             M -9.994 -1.525
             L -12.76 -8.525
             M -11.685 -8.525
             L -8.918 -1.525
             M -13.156 -9.525
             L -15.682 -15.916
             M -14.752 -16.284
             L -12.08 -9.525" fill="none" stroke="#0000d3" stroke-width="0.1"/>
</g>
<g id="opperation-2">
    <title>Breakaways (Op: 2/3)</title>
    <path d="M -23.5 -22.5
             L -23.5 -23.8
             M -47 -22.5
             L -47 -23.8
             M -70.5 -22.5
             L -70.5 -23.8" fill="none" stroke="#02abea" stroke-width="0.1"/>
</g>
<g id="opperation-3">
    <title>Perimeter (Op: 3/3)</title>
    <path d="M -47 -25.114
             L -94 -25.114
             A 0.114 0.114 0 0 0 -94.114 -25
             L -94.114 -22.5
             A 0.114 0.114 0 0 0 -94 -22.386
             L -93.486 -22.386
             A 0.036 0.036 0 0 1 -93.45 -22.351
             L -93.364 -18.999
             L -93.364 19.929
             A 2.114 2.114 0 0 0 -92.745 21.424
             L -89.674 24.495
             A 2.114 2.114 0 0 0 -88.179 25.114
             L -86.75 25.114
             A 1.614 1.614 0 0 0 -85.142 23.65
             A 0.386 0.386 0 0 1 -85.074 23.465
             A 0.614 0.614 0 0 0 -84.963 23.113
             L -84.962 22.506
             A 0.614 0.614 0 0 0 -85.072 22.154
             A 0.386 0.386 0 0 1 -85.141 21.933
             L -85.136 19.2
             A 0.186 0.186 0 0 1 -84.951 19.014
             L -79.549 19.014
             A 0.186 0.186 0 0 1 -79.364 19.2
             L -79.359 21.933
             A 0.386 0.386 0 0 1 -79.428 22.154
             A 0.614 0.614 0 0 0 -79.538 22.506
             L -79.537 23.135
             A 0.614 0.614 0 0 0 -79.426 23.487
             A 0.386 0.386 0 0 1 -79.358 23.668
             A 1.614 1.614 0 0 0 -77.753 25.114
             L -76.321 25.114
             A 2.114 2.114 0 0 0 -74.826 24.495
             L -71.755 21.424
             A 2.114 2.114 0 0 0 -71.136 19.929
             L -71.136 -18.999
             L -71.05 -22.351
             A 0.036 0.036 0 0 1 -71.014 -22.386
             L -70.5 -22.386
             L -69.986 -22.386
             A 0.036 0.036 0 0 1 -69.95 -22.351
             L -69.864 -18.999
             L -69.864 19.929
             A 2.114 2.114 0 0 0 -69.245 21.424
             L -66.174 24.495
             A 2.114 2.114 0 0 0 -64.679 25.114
             L -63.25 25.114
             A 1.614 1.614 0 0 0 -61.642 23.65
             A 0.386 0.386 0 0 1 -61.574 23.465
             A 0.614 0.614 0 0 0 -61.463 23.113
             L -61.462 22.506
             A 0.614 0.614 0 0 0 -61.572 22.154
             A 0.386 0.386 0 0 1 -61.641 21.933
             L -61.636 19.2
             A 0.186 0.186 0 0 1 -61.451 19.014
             L -56.049 19.014
             A 0.186 0.186 0 0 1 -55.864 19.2
             L -55.859 21.933
             A 0.386 0.386 0 0 1 -55.928 22.154
             A 0.614 0.614 0 0 0 -56.038 22.506
             L -56.037 23.135
             A 0.614 0.614 0 0 0 -55.926 23.487
             A 0.386 0.386 0 0 1 -55.858 23.668
             A 1.614 1.614 0 0 0 -54.253 25.114
             L -52.821 25.114
             A 2.114 2.114 0 0 0 -51.326 24.495
             L -48.255 21.424
             A 2.114 2.114 0 0 0 -47.636 19.929
             L -47.636 -18.999
             L -47.55 -22.351
             A 0.036 0.036 0 0 1 -47.514 -22.386
             L -47 -22.386
             L -46.486 -22.386
             A 0.036 0.036 0 0 1 -46.45 -22.351
             L -46.364 -18.999
             L -46.364 19.929
             A 2.114 2.114 0 0 0 -45.745 21.424
             L -42.674 24.495
             A 2.114 2.114 0 0 0 -41.179 25.114
             L -39.75 25.114
             A 1.614 1.614 0 0 0 -38.142 23.65
             A 0.386 0.386 0 0 1 -38.074 23.465
             A 0.614 0.614 0 0 0 -37.963 23.113
             L -37.962 22.506
             A 0.614 0.614 0 0 0 -38.072 22.154
             A 0.386 0.386 0 0 1 -38.141 21.933
             L -38.136 19.2
             A 0.186 0.186 0 0 1 -37.951 19.014
             L -32.549 19.014
             A 0.186 0.186 0 0 1 -32.364 19.2
             L -32.359 21.933
             A 0.386 0.386 0 0 1 -32.428 22.154
             A 0.614 0.614 0 0 0 -32.538 22.506
             L -32.537 23.135
             A 0.614 0.614 0 0 0 -32.426 23.487
             A 0.386 0.386 0 0 1 -32.358 23.668
             A 1.614 1.614 0 0 0 -30.753 25.114
             L -29.321 25.114
             A 2.114 2.114 0 0 0 -27.826 24.495
             L -24.755 21.424
             A 2.114 2.114 0 0 0 -24.136 19.929
             L -24.136 -18.999
             L -24.05 -22.351
             A 0.036 0.036 0 0 1 -24.014 -22.386
             L -23.5 -22.386
             L -22.986 -22.386
             A 0.036 0.036 0 0 1 -22.95 -22.351
             L -22.864 -18.999
             L -22.864 19.929
             A 2.114 2.114 0 0 0 -22.245 21.424
             L -19.174 24.495
             A 2.114 2.114 0 0 0 -17.679 25.114
             L -16.25 25.114
             A 1.614 1.614 0 0 0 -14.642 23.65
             A 0.386 0.386 0 0 1 -14.574 23.465
             A 0.614 0.614 0 0 0 -14.463 23.113
             L -14.462 22.506
             A 0.614 0.614 0 0 0 -14.572 22.154
             A 0.386 0.386 0 0 1 -14.641 21.933
             L -14.636 19.2
             A 0.186 0.186 0 0 1 -14.451 19.014
             L -9.049 19.014
             A 0.186 0.186 0 0 1 -8.864 19.2
             L -8.859 21.933
             A 0.386 0.386 0 0 1 -8.928 22.154
             A 0.614 0.614 0 0 0 -9.038 22.506
             L -9.037 23.135
             A 0.614 0.614 0 0 0 -8.926 23.487
             A 0.386 0.386 0 0 1 -8.858 23.668
             A 1.614 1.614 0 0 0 -7.252 25.114
             L -5.821 25.114
             A 2.114 2.114 0 0 0 -4.326 24.495
             L -1.255 21.424
             A 2.114 2.114 0 0 0 -0.636 19.929
             L -0.636 -18.999
             L -0.549 -22.351
             A 0.036 0.036 0 0 1 -0.514 -22.386
             L 0 -22.386
             A 0.114 0.114 0 0 0 0.114 -22.5
             L 0.114 -25
             A 0.114 0.114 0 0 0 0 -25.114
             L -47 -25.114" fill="none" stroke="#1fb714" stroke-width="0.1"/>
</g>
</g>
</svg>
