<?xml version="1.0" encoding="UTF-8" standalone="no"?>
<svg xmlns="http://www.w3.org/2000/svg" width="194mm" height="264mm" viewBox="0 0 194 264">
<desc>Created with Glowforge for Fusion 360. To download visit: https://cam.autodesk.com/hsmposts?p=glowforge</desc>
<!-- CAM Setup Info:
Work Area Width: 194mm
Work Area Height: 264mm
Work Area Too Small?: false
Stock box Upper Right: 95,130
Stock box Lower Left: -95,-130
Origin: 0,0
Selected Colors: #0000d3, #02abea, #1fb714, #dd0907, #f20884, #fbf305
-->
<g id="global-translation-frame" transform="translate(97, 132) scale(1, 1)">
<g id="opperation-1">
    <title>Numerals (Op: 1/3)</title>
    <path d="M -43.117 45.475
             A 8.068 8.068 0 0 0 -40.137 51.88
             M -39.507 51.104
             A 7.068 7.068 0 0 1 -42.117 45.475
             M -42.025 44.475
             A 7.068 7.068 0 0 1 -35.55 38.568
             M -35.55 37.565
             A 8.068 8.068 0 0 0 -43.037 44.475
             M -34.55 38.568
             A 7.068 7.068 0 0 1 -28.075 44.475
             M -27.063 44.475
             A 8.068 8.068 0 0 0 -34.55 37.565
             M -27.983 45.475
             A 7.068 7.068 0 0 1 -30.002 50.565
             A 7.068 7.068 0 0 1 -35.05 52.686
             A 8.42 8.42 0 0 0 -41.072 55.222
             A 8.42 8.42 0 0 0 -43.468 61.301
             M -42.467 61.301
             A 7.42 7.42 0 0 1 -40.365 55.929
             A 7.42 7.42 0 0 1 -35.05 53.686
             A 8.068 8.068 0 0 0 -29.295 51.272
             A 8.068 8.068 0 0 0 -26.983 45.475
             M -43.385 62.301
             A 8.42 8.42 0 0 0 -35.55 69.511
             M -35.55 68.509
             A 7.42 7.42 0 0 1 -42.373 62.301
             M -34.55 69.511
             A 8.42 8.42 0 0 0 -26.715 62.301
             M -27.727 62.301
             A 7.42 7.42 0 0 1 -34.55 68.509
             M -26.632 61.301
             A 8.42 8.42 0 0 0 -29.894 54.449
             M -30.506 55.24
             A 7.42 7.42 0 0 1 -27.633 61.301
             M -19.885 62.301
             A 8.42 8.42 0 0 0 -12.05 69.511
             M -12.05 68.509
             A 7.42 7.42 0 0 1 -18.873 62.301
             M -18.967 61.301
             A 7.42 7.42 0 0 1 -16.865 55.929
             A 7.42 7.42 0 0 1 -11.55 53.686
             A 8.068 8.068 0 0 0 -5.795 51.272
             A 8.068 8.068 0 0 0 -3.483 45.475
             M -4.483 45.475
             A 7.068 7.068 0 0 1 -6.502 50.565
             A 7.068 7.068 0 0 1 -11.55 52.686
             A 8.42 8.42 0 0 0 -17.572 55.222
             A 8.42 8.42 0 0 0 -19.968 61.301
             M -3.563 44.475
             A 8.068 8.068 0 0 0 -11.05 37.565
             M -11.05 38.568
             A 7.068 7.068 0 0 1 -4.575 44.475
             M -12.05 37.565
             A 8.068 8.068 0 0 0 -19.537 44.475
             M -18.525 44.475
             A 7.068 7.068 0 0 1 -12.05 38.568
             M -19.617 45.475
             A 8.068 8.068 0 0 0 -16.637 51.88
             M -16.007 51.104
             A 7.068 7.068 0 0 1 -18.617 45.475
             M -7.006 55.24
             A 7.42 7.42 0 0 1 -4.133 61.301
             M -3.132 61.301
             A 8.42 8.42 0 0 0 -6.394 54.449
             M -4.227 62.301
             A 7.42 7.42 0 0 1 -11.05 68.509
             M -11.05 69.511
             A 8.42 8.42 0 0 0 -3.215 62.301
             M -50.132 61.301
             A 8.42 8.42 0 0 0 -53.394 54.449
             M -54.006 55.24
             A 7.42 7.42 0 0 1 -51.133 61.301
             M -51.227 62.301
             A 7.42 7.42 0 0 1 -58.05 68.509
             M -58.05 69.511
             A 8.42 8.42 0 0 0 -50.215 62.301
             M -59.05 68.509
             A 7.42 7.42 0 0 1 -65.873 62.301
             M -66.885 62.301
             A 8.42 8.42 0 0 0 -59.05 69.511
             M -65.967 61.301
             A 7.42 7.42 0 0 1 -63.865 55.929
             A 7.42 7.42 0 0 1 -58.55 53.686
             A 8.068 8.068 0 0 0 -52.795 51.272
             A 8.068 8.068 0 0 0 -50.483 45.475
             M -51.483 45.475
             A 7.068 7.068 0 0 1 -53.502 50.565
             A 7.068 7.068 0 0 1 -58.55 52.686
             A 8.42 8.42 0 0 0 -64.572 55.222
             A 8.42 8.42 0 0 0 -66.968 61.301
             M -50.563 44.475
             A 8.068 8.068 0 0 0 -58.05 37.565
             M -58.05 38.568
             A 7.068 7.068 0 0 1 -51.575 44.475
             M -59.05 37.565
             A 8.068 8.068 0 0 0 -66.537 44.475
             M -65.525 44.475
             A 7.068 7.068 0 0 1 -59.05 38.568
             M -66.617 45.475
             A 8.068 8.068 0 0 0 -63.637 51.88
             M -63.007 51.104
             A 7.068 7.068 0 0 1 -65.617 45.475
             M -74.063 44.475
             A 8.068 8.068 0 0 0 -81.55 37.565
             M -81.55 38.568
             A 7.068 7.068 0 0 1 -75.075 44.475
             M -74.983 45.475
             A 7.068 7.068 0 0 1 -77.002 50.565
             A 7.068 7.068 0 0 1 -82.05 52.686
             A 8.42 8.42 0 0 0 -88.072 55.222
             A 8.42 8.42 0 0 0 -90.468 61.301
             M -89.467 61.301
             A 7.42 7.42 0 0 1 -87.365 55.929
             A 7.42 7.42 0 0 1 -82.05 53.686
             A 8.068 8.068 0 0 0 -76.295 51.272
             A 8.068 8.068 0 0 0 -73.983 45.475
             M -90.385 62.301
             A 8.42 8.42 0 0 0 -82.55 69.511
             M -82.55 68.509
             A 7.42 7.42 0 0 1 -89.373 62.301
             M -81.55 69.511
             A 8.42 8.42 0 0 0 -73.715 62.301
             M -74.727 62.301
             A 7.42 7.42 0 0 1 -81.55 68.509
             M -73.632 61.301
             A 8.42 8.42 0 0 0 -76.894 54.449
             M -77.506 55.24
             A 7.42 7.42 0 0 1 -74.633 61.301
             M -86.507 51.104
             A 7.068 7.068 0 0 1 -89.117 45.475
             M -90.117 45.475
             A 8.068 8.068 0 0 0 -87.137 51.88
             M -89.025 44.475
             A 7.068 7.068 0 0 1 -82.55 38.568
             M -82.55 37.565
             A 8.068 8.068 0 0 0 -90.037 44.475" fill="none" stroke="#0000d3" stroke-width="0.1"/>
</g>
<g id="opperation-2">
    <title>Breakaways (Op: 2/3)</title>
    <path d="M -23.5 76.5
             L -23.5 77.8
             M -47 76.5
             L -47 77.8
             M -70.5 76.5
             L -70.5 77.8" fill="none" stroke="#02abea" stroke-width="0.1"/>
</g>
<g id="opperation-3">
    <title>Perimeter (Op: 3/3)</title>
    <path d="M -0.636 34.071
             A 2.114 2.114 0 0 0 -1.255 32.576
             L -4.326 29.505
             A 2.114 2.114 0 0 0 -5.821 28.886
             L -7.25 28.886
             A 1.614 1.614 0 0 0 -8.858 30.35
             A 0.386 0.386 0 0 1 -8.926 30.535
             A 0.614 0.614 0 0 0 -9.037 30.887
             L -9.038 31.494
             A 0.614 0.614 0 0 0 -8.928 31.846
             A 0.386 0.386 0 0 1 -8.859 32.067
             L -8.864 34.8
             A 0.186 0.186 0 0 1 -9.049 34.986
             L -14.45 34.986
             A 0.186 0.186 0 0 1 -14.636 34.8
             L -14.641 32.067
             A 0.386 0.386 0 0 1 -14.572 31.846
             A 0.614 0.614 0 0 0 -14.462 31.494
             L -14.463 30.865
             A 0.614 0.614 0 0 0 -14.574 30.513
             A 0.386 0.386 0 0 1 -14.642 30.332
             A 1.614 1.614 0 0 0 -16.247 28.886
             L -17.679 28.886
             A 2.114 2.114 0 0 0 -19.174 29.505
             L -22.245 32.576
             A 2.114 2.114 0 0 0 -22.864 34.071
             L -22.864 72.999
             L -22.95 76.351
             A 0.036 0.036 0 0 1 -22.986 76.386
             L -23.5 76.386
             L -24.014 76.386
             A 0.036 0.036 0 0 1 -24.05 76.351
             L -24.136 72.999
             L -24.136 34.071
             A 2.114 2.114 0 0 0 -24.755 32.576
             L -27.826 29.505
             A 2.114 2.114 0 0 0 -29.321 28.886
             L -30.75 28.886
             A 1.614 1.614 0 0 0 -32.358 30.35
             A 0.386 0.386 0 0 1 -32.426 30.535
             A 0.614 0.614 0 0 0 -32.537 30.887
             L -32.538 31.494
             A 0.614 0.614 0 0 0 -32.428 31.846
             A 0.386 0.386 0 0 1 -32.359 32.067
             L -32.364 34.8
             A 0.186 0.186 0 0 1 -32.549 34.986
             L -37.951 34.986
             A 0.186 0.186 0 0 1 -38.136 34.8
             L -38.141 32.067
             A 0.386 0.386 0 0 1 -38.072 31.846
             A 0.614 0.614 0 0 0 -37.962 31.494
             L -37.963 30.865
             A 0.614 0.614 0 0 0 -38.074 30.513
             A 0.386 0.386 0 0 1 -38.142 30.332
             A 1.614 1.614 0 0 0 -39.747 28.886
             L -41.179 28.886
             A 2.114 2.114 0 0 0 -42.674 29.505
             L -45.745 32.576
             A 2.114 2.114 0 0 0 -46.364 34.071
             L -46.364 72.999
             L -46.45 76.351
             A 0.036 0.036 0 0 1 -46.486 76.386
             L -47 76.386
             L -47.514 76.386
             A 0.036 0.036 0 0 1 -47.55 76.351
             L -47.636 72.999
             L -47.636 34.071
             A 2.114 2.114 0 0 0 -48.255 32.576
             L -51.326 29.505
             A 2.114 2.114 0 0 0 -52.821 28.886
             L -54.25 28.886
             A 1.614 1.614 0 0 0 -55.858 30.35
             A 0.386 0.386 0 0 1 -55.926 30.535
             A 0.614 0.614 0 0 0 -56.037 30.887
             L -56.038 31.494
             A 0.614 0.614 0 0 0 -55.928 31.846
             A 0.386 0.386 0 0 1 -55.859 32.067
             L -55.864 34.8
             A 0.186 0.186 0 0 1 -56.049 34.986
             L -61.451 34.986
             A 0.186 0.186 0 0 1 -61.636 34.8
             L -61.641 32.067
             A 0.386 0.386 0 0 1 -61.572 31.846
             A 0.614 0.614 0 0 0 -61.462 31.494
             L -61.463 30.865
             A 0.614 0.614 0 0 0 -61.574 30.513
             A 0.386 0.386 0 0 1 -61.642 30.332
             A 1.614 1.614 0 0 0 -63.247 28.886
             L -64.679 28.886
             A 2.114 2.114 0 0 0 -66.174 29.505
             L -69.245 32.576
             A 2.114 2.114 0 0 0 -69.864 34.071
             L -69.864 72.999
             L -69.95 76.351
             A 0.036 0.036 0 0 1 -69.986 76.386
             L -70.5 76.386
             L -71.014 76.386
             A 0.036 0.036 0 0 1 -71.05 76.351
             L -71.136 72.999
             L -71.136 34.071
             A 2.114 2.114 0 0 0 -71.755 32.576
             L -74.826 29.505
             A 2.114 2.114 0 0 0 -76.321 28.886
             L -77.75 28.886
             A 1.614 1.614 0 0 0 -79.358 30.35
             A 0.386 0.386 0 0 1 -79.426 30.535
             A 0.614 0.614 0 0 0 -79.537 30.887
             L -79.538 31.494
             A 0.614 0.614 0 0 0 -79.428 31.846
             A 0.386 0.386 0 0 1 -79.359 32.067
             L -79.364 34.8
             A 0.186 0.186 0 0 1 -79.549 34.986
             L -84.951 34.986
             A 0.186 0.186 0 0 1 -85.136 34.8
             L -85.141 32.067
             A 0.386 0.386 0 0 1 -85.072 31.846
             A 0.614 0.614 0 0 0 -84.962 31.494
             L -84.963 30.865
             A 0.614 0.614 0 0 0 -85.074 30.513
             A 0.386 0.386 0 0 1 -85.142 30.332
             A 1.614 1.614 0 0 0 -86.747 28.886
             L -88.179 28.886
             A 2.114 2.114 0 0 0 -89.674 29.505
             L -92.745 32.576
             A 2.114 2.114 0 0 0 -93.364 34.071
             L -93.364 72.999
             L -93.45 76.351
             A 0.036 0.036 0 0 1 -93.486 76.386
             L -94 76.386
             A 0.114 0.114 0 0 0 -94.114 76.5
             L -94.114 79
             A 0.114 0.114 0 0 0 -94 79.114
             L 0 79.114
             A 0.114 0.114 0 0 0 0.114 79
             L 0.114 76.5
             A 0.114 0.114 0 0 0 0 76.386
             L -0.514 76.386
             A 0.036 0.036 0 0 1 -0.549 76.351
             L -0.636 72.999
             L -0.636 34.071" fill="none" stroke="#1fb714" stroke-width="0.1"/>
</g>
</g>
</svg>
