<?xml version="1.0" encoding="UTF-8" standalone="no"?>
<svg xmlns="http://www.w3.org/2000/svg" width="194mm" height="264mm" viewBox="0 0 194 264">
<desc>Created with Glowforge for Fusion 360. To download visit: https://cam.autodesk.com/hsmposts?p=glowforge</desc>
<!-- CAM Setup Info:
Work Area Width: 194mm
Work Area Height: 264mm
Work Area Too Small?: false
Stock box Upper Right: 95,130
Stock box Lower Left: -95,-130
Origin: 0,0
Selected Colors: #0000d3, #02abea, #1fb714, #dd0907, #f20884, #fbf305
-->
<g id="global-translation-frame" transform="translate(97, 132) scale(1, 1)">
<g id="opperation-1">
    <title>Numerals (Op: 1/3)</title>
    <path d="M -82.703 94.475
             L -87.652 87.798
             M -86.848 87.202
             L -81.458 94.475
             M -80.717 95.475
             L -74.278 104.162
             A 9.3 9.3 0 0 1 -72.482 110.475
             M -73.486 110.475
             A 8.3 8.3 0 0 0 -75.082 104.758
             L -81.962 95.475
             M -72.621 111.475
             A 9.3 9.3 0 0 1 -81.55 118.998
             M -81.55 117.998
             A 8.3 8.3 0 0 0 -73.642 111.475
             M -82.55 118.966
             A 9.3 9.3 0 0 1 -90.879 111.475
             M -89.858 111.475
             A 8.3 8.3 0 0 0 -82.55 117.961
             M -91.018 110.475
             A 9.3 9.3 0 0 1 -82.525 100.432
             A 9.3 9.3 0 0 1 -80.99 100.431
             M -81.072 101.428
             A 8.3 8.3 0 0 0 -90.022 109.022
             A 8.3 8.3 0 0 0 -90.014 110.475
             M -67.518 110.475
             A 9.3 9.3 0 0 1 -59.025 100.432
             A 9.3 9.3 0 0 1 -57.49 100.431
             M -57.572 101.428
             A 8.3 8.3 0 0 0 -66.522 109.022
             A 8.3 8.3 0 0 0 -66.514 110.475
             M -66.358 111.475
             A 8.3 8.3 0 0 0 -59.05 117.961
             M -59.05 118.966
             A 9.3 9.3 0 0 1 -67.379 111.475
             M -58.05 117.998
             A 8.3 8.3 0 0 0 -50.142 111.475
             M -49.121 111.475
             A 9.3 9.3 0 0 1 -58.05 118.998
             M -49.986 110.475
             A 8.3 8.3 0 0 0 -51.582 104.758
             L -58.462 95.475
             M -57.217 95.475
             L -50.778 104.162
             A 9.3 9.3 0 0 1 -48.982 110.475
             M -59.203 94.475
             L -64.152 87.798
             M -63.348 87.202
             L -57.958 94.475
             M -39.848 87.202
             L -34.458 94.475
             M -35.703 94.475
             L -40.652 87.798
             M -33.717 95.475
             L -27.278 104.162
             A 9.3 9.3 0 0 1 -25.482 110.475
             M -26.486 110.475
             A 8.3 8.3 0 0 0 -28.082 104.758
             L -34.962 95.475
             M -25.621 111.475
             A 9.3 9.3 0 0 1 -34.55 118.998
             M -34.55 117.998
             A 8.3 8.3 0 0 0 -26.642 111.475
             M -35.55 118.966
             A 9.3 9.3 0 0 1 -43.879 111.475
             M -42.858 111.475
             A 8.3 8.3 0 0 0 -35.55 117.961
             M -44.018 110.475
             A 9.3 9.3 0 0 1 -35.525 100.432
             A 9.3 9.3 0 0 1 -33.99 100.431
             M -34.072 101.428
             A 8.3 8.3 0 0 0 -43.022 109.022
             A 8.3 8.3 0 0 0 -43.014 110.475
             M -20.518 110.475
             A 9.3 9.3 0 0 1 -12.025 100.432
             A 9.3 9.3 0 0 1 -10.49 100.431
             M -10.572 101.428
             A 8.3 8.3 0 0 0 -19.522 109.022
             A 8.3 8.3 0 0 0 -19.514 110.475
             M -19.358 111.475
             A 8.3 8.3 0 0 0 -12.05 117.961
             M -12.05 118.966
             A 9.3 9.3 0 0 1 -20.379 111.475
             M -11.05 117.998
             A 8.3 8.3 0 0 0 -3.142 111.475
             M -2.121 111.475
             A 9.3 9.3 0 0 1 -11.05 118.998
             M -2.986 110.475
             A 8.3 8.3 0 0 0 -4.582 104.758
             L -11.462 95.475
             M -10.217 95.475
             L -3.778 104.162
             A 9.3 9.3 0 0 1 -1.982 110.475
             M -12.203 94.475
             L -17.152 87.798
             M -16.348 87.202
             L -10.958 94.475" fill="none" stroke="#0000d3" stroke-width="0.1"/>
</g>
<g id="opperation-2">
    <title>Breakaways (Op: 2/3)</title>
    <path d="M -23.5 81.5
             L -23.5 80.2
             M -47 81.5
             L -47 80.2
             M -70.5 81.5
             L -70.5 80.2" fill="none" stroke="#02abea" stroke-width="0.1"/>
</g>
<g id="opperation-3">
    <title>Perimeter (Op: 3/3)</title>
    <path d="M -47 78.886
             L -94 78.886
             A 0.114 0.114 0 0 0 -94.114 79
             L -94.114 81.5
             A 0.114 0.114 0 0 0 -94 81.614
             L -93.486 81.614
             A 0.036 0.036 0 0 1 -93.45 81.649
             L -93.364 85.001
             L -93.364 123.929
             A 2.114 2.114 0 0 0 -92.745 125.424
             L -89.674 128.495
             A 2.114 2.114 0 0 0 -88.179 129.114
             L -86.75 129.114
             A 1.614 1.614 0 0 0 -85.142 127.651
             L -85.142 127.65
             A 0.386 0.386 0 0 1 -85.074 127.465
             A 0.614 0.614 0 0 0 -84.963 127.113
             L -84.962 126.506
             A 0.614 0.614 0 0 0 -85.072 126.154
             A 0.386 0.386 0 0 1 -85.141 125.933
             L -85.136 123.199
             A 0.186 0.186 0 0 1 -84.951 123.014
             L -79.549 123.014
             A 0.186 0.186 0 0 1 -79.364 123.199
             L -79.359 125.933
             A 0.386 0.386 0 0 1 -79.428 126.154
             A 0.614 0.614 0 0 0 -79.538 126.506
             L -79.537 127.135
             A 0.614 0.614 0 0 0 -79.426 127.487
             A 0.386 0.386 0 0 1 -79.358 127.668
             A 1.614 1.614 0 0 0 -77.753 129.114
             L -76.321 129.114
             A 2.114 2.114 0 0 0 -74.826 128.495
             L -71.755 125.424
             A 2.114 2.114 0 0 0 -71.136 123.929
             L -71.136 85.001
             L -71.05 81.649
             A 0.036 0.036 0 0 1 -71.014 81.614
             L -70.5 81.614
             L -69.986 81.614
             A 0.036 0.036 0 0 1 -69.95 81.649
             L -69.864 85.001
             L -69.864 123.929
             A 2.114 2.114 0 0 0 -69.245 125.424
             L -66.174 128.495
             A 2.114 2.114 0 0 0 -64.679 129.114
             L -63.25 129.114
             A 1.614 1.614 0 0 0 -61.642 127.651
             L -61.642 127.65
             A 0.386 0.386 0 0 1 -61.574 127.465
             A 0.614 0.614 0 0 0 -61.463 127.113
             L -61.462 126.506
             A 0.614 0.614 0 0 0 -61.572 126.154
             A 0.386 0.386 0 0 1 -61.641 125.933
             L -61.636 123.199
             A 0.186 0.186 0 0 1 -61.451 123.014
             L -56.049 123.014
             A 0.186 0.186 0 0 1 -55.864 123.199
             L -55.859 125.933
             A 0.386 0.386 0 0 1 -55.928 126.154
             A 0.614 0.614 0 0 0 -56.038 126.506
             L -56.037 127.135
             A 0.614 0.614 0 0 0 -55.926 127.487
             A 0.386 0.386 0 0 1 -55.858 127.668
             A 1.614 1.614 0 0 0 -54.253 129.114
             L -52.821 129.114
             A 2.114 2.114 0 0 0 -51.326 128.495
             L -48.255 125.424
             A 2.114 2.114 0 0 0 -47.636 123.929
             L -47.636 85.001
             L -47.55 81.649
             A 0.036 0.036 0 0 1 -47.514 81.614
             L -47 81.614
             L -46.486 81.614
             A 0.036 0.036 0 0 1 -46.45 81.649
             L -46.364 85.001
             L -46.364 123.929
             A 2.114 2.114 0 0 0 -45.745 125.424
             L -42.674 128.495
             A 2.114 2.114 0 0 0 -41.179 129.114
             L -39.75 129.114
             A 1.614 1.614 0 0 0 -38.142 127.651
             L -38.142 127.65
             A 0.386 0.386 0 0 1 -38.074 127.465
             A 0.614 0.614 0 0 0 -37.963 127.113
             L -37.962 126.506
             A 0.614 0.614 0 0 0 -38.072 126.154
             A 0.386 0.386 0 0 1 -38.141 125.933
             L -38.136 123.199
             A 0.186 0.186 0 0 1 -37.951 123.014
             L -32.549 123.014
             A 0.186 0.186 0 0 1 -32.364 123.199
             L -32.359 125.933
             A 0.386 0.386 0 0 1 -32.428 126.154
             A 0.614 0.614 0 0 0 -32.538 126.506
             L -32.537 127.135
             A 0.614 0.614 0 0 0 -32.426 127.487
             A 0.386 0.386 0 0 1 -32.358 127.668
             A 1.614 1.614 0 0 0 -30.753 129.114
             L -29.321 129.114
             A 2.114 2.114 0 0 0 -27.826 128.495
             L -24.755 125.424
             A 2.114 2.114 0 0 0 -24.136 123.929
             L -24.136 85.001
             L -24.05 81.649
             A 0.036 0.036 0 0 1 -24.014 81.614
             L -23.5 81.614
             L -22.986 81.614
             A 0.036 0.036 0 0 1 -22.95 81.649
             L -22.864 85.001
             L -22.864 123.929
             A 2.114 2.114 0 0 0 -22.245 125.424
             L -19.174 128.495
             A 2.114 2.114 0 0 0 -17.679 129.114
             L -16.25 129.114
             A 1.614 1.614 0 0 0 -14.642 127.651
             L -14.642 127.65
             A 0.386 0.386 0 0 1 -14.574 127.465
             A 0.614 0.614 0 0 0 -14.463 127.113
             L -14.462 126.506
             A 0.614 0.614 0 0 0 -14.572 126.154
             A 0.386 0.386 0 0 1 -14.641 125.933
             L -14.636 123.199
             A 0.186 0.186 0 0 1 -14.451 123.014
             L -9.049 123.014
             A 0.186 0.186 0 0 1 -8.864 123.199
             L -8.859 125.933
             A 0.386 0.386 0 0 1 -8.928 126.154
             A 0.614 0.614 0 0 0 -9.038 126.506
             L -9.037 127.135
             A 0.614 0.614 0 0 0 -8.926 127.487
             A 0.386 0.386 0 0 1 -8.858 127.668
             A 1.614 1.614 0 0 0 -7.252 129.114
             L -5.821 129.114
             A 2.114 2.114 0 0 0 -4.326 128.495
             L -1.255 125.424
             A 2.114 2.114 0 0 0 -0.636 123.929
             L -0.636 85.001
             L -0.549 81.649
             A 0.036 0.036 0 0 1 -0.514 81.614
             L 0 81.614
             A 0.114 0.114 0 0 0 0.114 81.5
             L 0.114 79
             A 0.114 0.114 0 0 0 0 78.886
             L -47 78.886" fill="none" stroke="#1fb714" stroke-width="0.1"/>
</g>
</g>
</svg>
